<?xml version="1.0" standalone="no"?>
<!DOCTYPE svg PUBLIC "-//W3C//DTD SVG 1.1//EN" "http://www.w3.org/Graphics/SVG/1.1/DTD/svg11.dtd" >
<svg>
<metadata>
Created by FontForge 20120731 at Mon Sep 15 21:06:08 2014
 By World Wide Web Server
Copyright (c) by ParaGraph Intl. 1994.
</metadata>
<defs>
<font id="NinaCTT" horiz-adv-x="439" >
  <font-face 
    font-family="NinaCTT"
    font-weight="400"
    font-stretch="normal"
    units-per-em="1000"
    panose-1="0 0 0 0 0 0 0 0 0 0"
    ascent="800"
    descent="-200"
    x-height="334"
    cap-height="624"
    bbox="-200 -468 1548 1063"
    underline-thickness="20"
    underline-position="-123"
    unicode-range="U+0020-2122"
  />
<missing-glyph horiz-adv-x="800" 
d="M50 0v800h700v-800h-700zM700 50v700h-600v-700h600z" />
    <glyph glyph-name=".notdef" horiz-adv-x="800" 
d="M50 0v800h700v-800h-700zM700 50v700h-600v-700h600z" />
    <glyph glyph-name=".null" horiz-adv-x="0" 
 />
    <glyph glyph-name="nonmarkingreturn" horiz-adv-x="614" 
 />
    <glyph glyph-name="space" unicode=" " horiz-adv-x="614" 
 />
    <glyph glyph-name="exclam" unicode="!" horiz-adv-x="438" 
d="M413 830q0 -4 -43 -99q-61 -137 -84 -192q-47 -113 -53 -141t-8 -45t-2 -25q0 -17 8 -22q3 -2 19 -2q12 -1 12 -17q0 -6 -3 -20.5t-25.5 -22.5t-43.5 -8t-29.5 12t-8.5 35q0 13 2.5 28t7.5 37q15 70 72 213q52 132 102.5 239.5t59.5 107.5q13 0 18 -8.5t5 -24.5
q0 -9 -2 -22t-4 -23zM216 48q-6 -27 -19 -39q-22 -19 -73 -19q-17 0 -30.5 15.5t-9.5 31.5q3 14 31 33t51 19q24 0 39 -11t11 -30z" />
    <glyph glyph-name="quotedbl" unicode="&#x22;" horiz-adv-x="511" 
d="M406 924q0 -38 -3 -73.5t-12 -84.5q-5 -35 -12.5 -64t-15.5 -49.5t-32 -23.5q-15 -2 -20.5 4t-8.5 32q0 4 16 56q11 36 16 59q10 62 21.5 123.5t21.5 61.5q14 0 21.5 -11t7.5 -30zM562 926q0 -37 -3 -73t-10.5 -79t-14 -70t-16.5 -51q-4 -12 -10.5 -15.5t-20.5 -6.5
q-15 -2 -20 4.5t-9 31.5q0 4 16 56q11 36 16 59q10 62 21.5 123.5t21.5 61.5q14 0 21.5 -11t7.5 -30z" />
    <glyph glyph-name="numbersign" unicode="#" horiz-adv-x="1235" 
d="M1380 367q0 -17 -70 -41q-54 -19 -163 -47l-180 -46q-18 -5 -88 -19q-47 -10 -89 -24q-9 -35 -14.5 -84t-5.5 -89q0 -5 5 -40q2 -11 0 -23q-2 -16 -11.5 -27t-24.5 -11q-13 0 -21 20t-8 45q0 50 3 95t9 102q-69 -15 -157.5 -39t-206.5 -60q-2 -15 -7 -28t-5 -27
q0 -32 18 -40t18 -15q0 -13 -15 -20.5t-29 -7.5q-25 3 -37.5 28t-12.5 57q0 13 3 25.5t4 18.5q-152 -46 -165 -50q-55 -15 -71 -15q-10 0 -17.5 16t-7.5 27q-1 5 147 47q84 23 121 37q11 39 16 75t10 91q-39 -14 -110 -33t-139 -37l-16.5 -5.5t-16.5 -1.5q-17 3 -17 26
q2 16 131 59q69 23 193 60q25 127 41 202q31 140 50 140q20 0 28 -4t10 -21q2 -14 -23 -103q-17 -62 -23 -88l-23 -115q43 9 87 18q98 20 173 37q99 22 126 31q4 23 34 183q11 60 13 75t2 27q0 11 -3 33t-3 35q1 11 8.5 15.5t23.5 8.5q27 5 33 -40q3 -21 3 -46
q0 -31 -2 -45.5t-18 -92.5t-31 -143q49 15 159.5 35t140.5 20q17 0 17 -24q0 -15 -73 -35q-47 -13 -143.5 -33t-117.5 -28q-11 -53 -13 -62q-7 -31 -25 -89l139 30q66 15 165 41q46 12 150 39q74 19 84 19q13 1 19 1q9 0 14 -4t5 -16zM781 406q-32 -17 -192 -55
q-97 -22 -193 -44q-7 -24 -19 -88t-15 -75q95 24 148 37q150 39 228 63q9 24 33 121q3 15 10 41z" />
    <glyph glyph-name="dollar" unicode="$" horiz-adv-x="703" 
d="M664 686q-2 -14 -12.5 -22.5t-23.5 -8.5q-14 0 -47 17t-52 17q-15 -44 -37 -137q-16 -69 -32 -137q69 -37 93 -60q54 -51 54 -129q0 -93 -66 -153q-70 -64 -188 -79q-6 -23 -36 -122q-15 -49 -15 -88q0 -19 8 -39q18 -46 18 -47q-2 -13 -8.5 -18.5t-17.5 -5.5
q-16 -2 -34 23t-18 49q0 55 18 143q15 72 28 109q-33 0 -77.5 13.5t-86.5 38.5q-32 20 -50 39q-22 23 -24 45q0 14 2.5 27t17.5 13q11 0 46 -39q23 -26 46 -41q30 -20 66.5 -33t65.5 -13q22 71 39 136q24 91 45 188q-94 19 -180 56q-121 52 -121 106q0 41 60 82
q48 33 135 68q65 25 115 40t85 15q30 115 35 132q21 66 36 66q10 1 15 1q15 0 15 -18q0 -34 -41 -174q33 0 79.5 -23t44.5 -37zM464 682q-91 -16 -169 -48q-56 -24 -90 -47q-39 -27 -44 -49q-7 -30 78 -61q64 -24 164 -43zM550 230q5 35 -34 75q-29 31 -72 55
q-11 -56 -39 -163l-38 -144q76 0 126 50q46 46 57 127z" />
    <glyph glyph-name="percent" unicode="%" horiz-adv-x="1076" 
d="M1030 156q0 -77 -54 -119q-66 -51 -215 -51q-82 0 -115 47q-22 31 -22 85q0 63 104 138q97 70 155 70q73 0 112 -53q35 -47 35 -117zM924 895q-3 -21 -80 -172q-69 -135 -143 -274l-84 -156q-30 -59 -90 -163q-67 -117 -86 -153q-38 -73 -38 -97q0 -32 -6 -50t-23 -20
q-18 0 -25.5 12t-7.5 34q0 39 27 95q16 34 74 133q66 113 111.5 202.5t92 181t76.5 150.5t56 107q-50 -46 -113 -83q-35 -20 -132 -68q0 -106 -121 -180q-115 -70 -261 -70q-57 0 -89 19q-38 23 -38 72q0 30 34 106q28 63 60 117q-4 50 52 68q39 13 114 13q12 0 24 -0.5
t23 -0.5q92 0 130 -27q37 -40 68 -63q46 21 107 61q71 47 130 98q23 21 85 93q42 49 59 46q15 -2 15 -19q0 -8 -1 -12zM967 161q0 31 -19 69q-23 45 -52 45q-45 0 -131 -67t-88 -95q-4 -35 25 -55.5t76 -20.5q76 0 127 28q62 34 62 96zM470 605q-40 30 -75 45t-69 15
q-28 0 -61 -0.5t-85 -16.5q22 -32 38 -40q25 -13 92 -13q15 0 40 -1t35 -1q22 0 41.5 2.5t43.5 9.5zM482 552q-35 0 -87.5 -2.5t-94.5 -2.5q-65 0 -89 7t-65 34q-25 -40 -44 -93t-19 -80q0 -17 22.5 -31t45.5 -14q85 0 176 41q117 52 155 141z" />
    <glyph glyph-name="ampersand" unicode="&#x26;" horiz-adv-x="748" 
d="M679 245q0 -58 -50 -114q-34 -38 -79 -64q25 -17 60 -25q20 -5 43.5 -7.5t39 -5t15.5 -12.5q0 -14 -11.5 -18.5t-31.5 -4.5q-21 1 -29 1q-42 0 -72 8.5t-62 30.5q-92 -36 -160 -51q-54 -12 -100 -12q-82 0 -117 29q-39 32 -39 113q0 71 47 142q39 59 112 122q5 44 10 89
q7 42 35 91q40 70 111 122.5t115 52.5q37 0 47 -19q6 -11 6 -43q0 -72 -148 -211q-60 -56 -116 -99q6 -9 9 -25.5t10 -27.5q40 37 87 64q60 35 103 35q57 0 109 -46q56 -50 56 -115zM506 648q0 24 -21 24q-27 0 -68 -42q-31 -31 -76 -95q-26 -35 -37 -83q-3 -16 -6 -42
q134 130 158 157q50 57 50 81zM624 238q0 49 -35 82t-83 33q-33 0 -79 -28q-34 -21 -72 -56q29 -56 54.5 -87t87.5 -84q57 31 88 63q39 39 39 77zM449 70q-61 58 -82 84.5t-45 73.5q-16 -23 -24.5 -38.5t-12 -30t-16.5 -17.5t-20 10t-7 33q0 19 15 41q11 16 33 38
q-4 10 -12.5 28t-15.5 34q-50 -42 -85 -93q-38 -56 -38 -101q0 -8 -0.5 -15.5t-0.5 -14.5q0 -37 16 -53q24 -23 91 -23q50 0 103 11.5t101 32.5z" />
    <glyph glyph-name="quotesingle" unicode="'" horiz-adv-x="324" 
d="M380 924q0 -32 -3 -73.5t-11 -84.5q-5 -35 -12.5 -64t-15.5 -49.5t-32 -23.5q-19 -3 -24 8t-5 28q0 6 15 56q12 40 15.5 57.5t18.5 102t26 84.5q13 0 20.5 -11.5t7.5 -29.5z" />
    <glyph glyph-name="parenleft" unicode="(" horiz-adv-x="746" 
d="M769 -70q0 -17 -28 -22q-11 -2 -51 -2q-96 0 -204 24q-137 31 -228 89q-68 43 -106 104t-38 139q0 70 32 143q27 61 79 132q15 21 103 130q40 51 89.5 93t68.5 42q34 0 34 -24q0 -8 -32 -37q-110 -100 -141 -134q-76 -84 -121 -168q-54 -100 -54 -180q0 -72 41 -128
q37 -50 104.5 -87t160.5 -62q71 -19 157 -32q22 -4 94 -11q40 -4 40 -9z" />
    <glyph glyph-name="parenright" unicode=")" horiz-adv-x="749" 
d="M698 341q0 -64 -39 -137.5t-107 -136.5q-55 -50 -147 -90q-76 -33 -160 -52q-69 -16 -109 -16q-22 0 -42.5 5t-20.5 16q0 13 16 16.5t47 3.5q60 0 155 30q125 40 208 109q64 54 99 114q40 70 40 147q0 122 -31 186q-26 53 -110 129q-50 44 -119 77q-91 43 -131 43
q-32 0 -46 8t-14 16q0 17 13.5 27.5t34.5 10.5q33 0 115 -35q111 -47 195 -121t115 -137q38 -78 38 -213z" />
    <glyph glyph-name="asterisk" unicode="*" horiz-adv-x="720" 
d="M810 641q-3 -15 -166 -42.5t-213 -27.5q67 -61 99 -94q66 -68 66 -91q0 -12 -8 -16.5t-20 -4.5q-13 1 -89 80q-44 46 -60 59q3 -22 5 -35q7 -35 8.5 -46t5.5 -32.5t2 -32.5q-1 -18 -14 -18q-9 1 -14 1q-19 0 -22.5 24.5t-6.5 49.5q-7 24 -11 53t-6 46
q-160 -150 -162.5 -165t-10 -23.5t-17.5 -8.5q-19 0 -19 38q0 24 73 106q25 28 59 62q-37 0 -92 -8t-114 -16q-15 0 -19.5 5.5t-4.5 16.5q0 16 66.5 33.5t185.5 33.5q-24 25 -51.5 43.5t-44.5 18.5q-14 0 -21.5 10t-9.5 24q-2 11 7.5 18.5t20.5 7.5q16 1 65.5 -26t95.5 -65
q8 77 15 123q20 129 52 129q12 0 12 -12q-2 -17 -2 -31q0 -36 -5 -88t-17 -118q148 135 177 161q85 77 124 107q50 39 69 39q9 0 10.5 -1.5t1.5 -10.5q0 -10 -69 -72t-138 -122q-81 -72 -98 -92q46 0 118 11t149 23q41 0 38 -24z" />
    <glyph glyph-name="plus" unicode="+" horiz-adv-x="1103" 
d="M865 329q-74 -11 -114.5 -16t-114.5 -15q-8 -30 -9 -60.5t-1 -53.5v-26q0 -79 8 -105q9 -12 18 -23q0 -18 -6 -31t-21 -15q-15 -1 -23.5 9.5t-12.5 31.5q-8 38 -15 78t-7 80q0 42 7 98q-21 -2 -42 -5t-83 -14q-96 -19 -146 -28q-94 -18 -116 -18q-26 0 -34.5 2.5
t-8.5 16.5q0 21 66 40q52 15 126.5 25.5t106.5 15.5q93 15 128 20q20 116 31 173q21 104 41 104q12 0 15.5 -6t3.5 -18v-12l-19 -150q-4 -24 -8 -63q0 -6 -1 -18l127 16q122 16 158.5 20t84.5 4q34 0 48.5 -5.5t14.5 -18.5q0 -22 -68.5 -26t-133.5 -7z" />
    <glyph glyph-name="comma" unicode="," horiz-adv-x="670" 
d="M412 12q0 -65 -70 -133q-54 -53 -156 -109q-54 -31 -85 -46q-45 -22 -64 -22h-12q-13 0 -12 10q0 12 65 46q29 15 74 40q85 47 142 99q67 60 67 103q0 34 -17.5 50.5t-42.5 16.5q-15 2 -28.5 -16t-28.5 -17q-11 0 -17.5 2t-4.5 17q3 21 29 45t53 24q6 1 16 1q53 0 76 -43
q16 -30 16 -68z" />
    <glyph glyph-name="hyphen" unicode="-" horiz-adv-x="977" 
d="M823 329q0 -19 -11 -24t-42 -5q-48 0 -166 -1t-143 -1q-53 0 -153 -7q-57 -4 -85 -4q-18 0 -28 5t-10 12q0 31 24 31q21 0 66 4q101 9 186 9q97 0 164.5 3.5t147.5 8.5q22 0 36 -7t14 -24z" />
    <glyph glyph-name="period" unicode="." horiz-adv-x="372" 
d="M220 73q0 -28 -24.5 -49.5t-43.5 -21.5q-13 0 -19 8t-6 28q0 22 19 49.5t41 27.5q15 0 24 -12.5t9 -29.5z" />
    <glyph glyph-name="slash" unicode="/" horiz-adv-x="500" 
d="M530 814q-2 -14 -44 -91q-21 -38 -99 -176q-87 -154 -109 -194q-42 -77 -75 -147q-39 -82 -59 -143q-24 -73 -24 -121q0 -14 -7 -22.5t-27 -8.5q-16 0 -20 12.5t-4 45.5q0 92 173 415q1 1 43 76q68 121 92 166q55 100 88 164q12 24 22 36q16 19 34 19q9 0 14 -10t2 -21z
" />
    <glyph glyph-name="zero" unicode="0" horiz-adv-x="809" 
d="M775 367q0 -138 -120 -224q-91 -65 -245 -96q-104 -21 -192 -21q-102 0 -146 56q-36 46 -36 129q0 120 117 204q89 64 236 100q110 27 180 27q100 0 153 -41.5t53 -133.5zM720 365q0 54 -40 87t-99 33q-177 0 -318 -76q-161 -87 -161 -223q0 -60 42 -84q32 -18 96 -18
q189 0 321 64q159 77 159 217z" />
    <glyph glyph-name="one" unicode="1" horiz-adv-x="314" 
d="M178 82q-1 -17 -1 -33q-2 -25 -21 -25q-7 0 -17 6l-9 6q-11 29 -17 108t-6 114q0 59 12 153q26 204 26 206q1 6 1 17q0 12 -1.5 31.5t-1.5 20.5q0 16 11.5 26.5t29.5 12.5q13 2 18 -7t5 -25q0 -10 -1.5 -25t-2.5 -32q0 -36 -21 -178t-21 -184q0 -70 5 -117q6 -38 12 -75z
" />
    <glyph glyph-name="two" unicode="2" horiz-adv-x="674" 
d="M595 41q-6 0 -27 13q-28 17 -50 25q-87 34 -201 34q-78 0 -138 -34q-66 -39 -131 -77q-17 0 -28 5t-10 17q0 30 79 77q30 18 120 62q24 29 54 63q55 63 90 112q44 60 89 122.5t45 110.5q0 41 -27 59t-81 18q-78 0 -146 -53q-54 -42 -70 -84q-5 -14 -21 -22t-24 -7
q-9 1 -18 3q-4 3 -5.5 11t-1.5 16q0 16 17 40q39 49 100 90q89 59 179 59q64 0 108.5 -36.5t44.5 -90.5q0 -70 -53 -143q-41 -52 -62 -81q-31 -42 -61 -80q-82 -102 -83 -104q15 2 32 4.5t26 2.5q47 0 102 -10.5t102 -30.5q31 -13 50 -33t19 -35q0 -23 -19 -23z" />
    <glyph glyph-name="three" unicode="3" horiz-adv-x="565" 
d="M541 202q0 -90 -99 -134q-77 -34 -186 -34q-59 0 -126 19q-81 23 -81 55q0 19 12 30t29 11q25 -26 66.5 -46.5t113.5 -20.5q88 0 152 35t64 92q0 65 -81 120t-176 55q-9 0 -55 -7t-67 -7q-12 0 -20 -0.5t-13 -0.5q-20 0 -22 15q-2 10 47 31q76 33 99 46q68 38 110 79
q48 47 48 84q0 12 -15.5 20.5t-36.5 8.5q-41 0 -108 -31q-58 -27 -111 -65q-4 -4 -8 -7.5t-13 -3.5q-6 0 -10 1q-18 4 -18 18q1 9 1 13q0 24 107 76t172 52q56 0 80 -27q18 -20 18 -52q0 -49 -46 -99q-28 -31 -108 -91q68 0 163 -60q118 -75 118 -175z" />
    <glyph glyph-name="four" unicode="4" horiz-adv-x="665" 
d="M754 336q1 -16 -15 -17.5t-30 -2.5q-55 -7 -100 -13q-83 -11 -127 -19q-14 -50 -30 -128q-20 -96 -20 -127v-23v-18q0 -36 -2.5 -49t-13.5 -15q-29 0 -36 50q-3 23 -3 55q0 47 14 112.5t29 130.5q-65 -17 -151 -37q-115 -27 -143 -27q-49 0 -76 15q-36 20 -36 67
q0 24 30 113q16 47 64 175.5t54 146t16.5 32.5t21.5 15q21 0 27 -13q3 -7 3 -25q0 -9 -39 -107q-59 -149 -74 -189q-40 -108 -40 -131q0 -22 26 -32q19 -7 40 -7q51 0 189 35q62 16 105 29q9 49 19 94t19.5 85.5t13.5 51.5q14 36 35 36q20 0 26 -30q2 -14 -7 -39
q-14 -39 -15 -45l-34 -145q133 24 220 24q36 -3 40 -28z" />
    <glyph glyph-name="five" unicode="5" horiz-adv-x="656" 
d="M823 725q0 -21 -92 -35.5t-191 -29.5q-105 -19 -191.5 -42.5t-110.5 -41.5q-14 -10 -50 -73q-31 -54 -61 -107q36 3 72.5 5t81.5 2q137 0 215 -31q92 -36 92 -110q0 -95 -109.5 -163t-264.5 -68q-59 0 -111 19q-69 25 -77 72q-2 17 6.5 30.5t34.5 13.5q20 0 28 -7t14 -28
t22 -30q28 -15 104 -15q81 0 174 40q119 51 119 128q0 59 -73 79q-48 13 -155 13q-98 0 -141 -8q-27 -8 -53 -16q-46 0 -46 48q0 13 7 33q11 31 39 75q5 8 46 78q28 48 52 63q18 13 77 31q74 22 211 51q79 17 157 29t121 12q22 0 37.5 -4t15.5 -13z" />
    <glyph glyph-name="six" unicode="6" horiz-adv-x="641" 
d="M642 216q0 -106 -93 -160q-72 -42 -171 -42q-174 0 -257 80q-69 67 -69 184q0 48 35 134q24 60 77 158q20 38 72 131q13 25 17 30q15 20 36 20q15 0 20 -12q2 -5 2 -21q0 -9 -63 -111q-39 -64 -67 -120t-47 -106q-25 -66 -25 -100q0 -59 21 -101.5t68 -69.5q10 -6 34 -13
q11 -3 16 -5q-21 45 -21 83q0 87 64 147t166 60q77 0 131 -47.5t54 -118.5zM575 211q0 46 -35 78q-38 35 -95 35q-68 0 -114.5 -45.5t-46.5 -112.5q0 -30 23.5 -64t45 -36t29 -2.5t13.5 -0.5q75 0 123 33q57 39 57 115z" />
    <glyph glyph-name="seven" unicode="7" horiz-adv-x="479" 
d="M439 660q0 -49 -20.5 -130.5t-40.5 -159.5q-14 -56 -23 -121t-9 -103q0 -27 3 -47q7 -47 7 -61q0 -24 -10 -43t-30 -19q-23 0 -31 29.5t-8 75.5v26t1 25q0 20 13 93t32 154q0 1 38 162q18 77 18 93q0 19 -16 23.5t-37 4.5q-47 0 -159 -28q-119 -32 -238 -63q-33 0 -33 22
q-3 24 22 33q90 34 243 65t233 31q28 0 38 -19q7 -14 7 -43z" />
    <glyph glyph-name="eight" unicode="8" horiz-adv-x="650" 
d="M650 559q0 -11 -33 -26q-21 -9 -27 -12q0 -34 -14.5 -59.5t-29.5 -25.5q-14 0 -21.5 5t-7.5 20q1 6 1 9l-207 -175q133 -66 145 -74q74 -51 74 -123q0 -47 -52 -69q-43 -18 -114 -18q-80 0 -142 30q-74 36 -74 99q0 76 69 131q-46 27 -91 55q-62 53 -62 137q0 88 154 145
q123 46 230 46q68 0 93 -9q44 -15 49 -67q27 0 43.5 -5t16.5 -14zM546 551q0 34 -20.5 43.5t-80.5 9.5q-83 0 -182 -30q-141 -43 -141 -116q0 -59 49 -93q62 -31 85 -45q102 83 141 115q94 76 149 116zM473 109q0 38 -39 67q-7 5 -164 77q-46 -42 -55 -56q-12 -19 -12 -54
q0 -39 44 -61t108 -22q48 0 76 8q42 12 42 41z" />
    <glyph glyph-name="nine" unicode="9" horiz-adv-x="715" 
d="M672 403q0 -54 -24 -202t-24 -165q0 -23 -8 -38.5t-27 -15.5q-5 0 -8 1q-21 4 -21 31q0 5 1 17t1 19q0 22 22 137q11 57 11 91v48.5v23.5q-16 -11 -36 -20.5t-57 -22.5q-60 -20 -111 -31q-81 -17 -168 -17q-73 0 -130 27q-71 33 -71 91q0 33 52 77.5t130.5 84.5t150.5 61
q84 24 163 24q70 0 104 -41q24 -29 24 -65q0 -18 -9.5 -36.5t-14.5 -27.5q28 -3 39 -14t11 -37zM583 521q0 18 -18 35q-24 22 -61 22q-52 0 -130.5 -22t-150.5 -59q-58 -30 -98.5 -65.5t-40.5 -57.5q0 -34 43 -51q33 -13 75 -13q81 0 147 7.5t121 25.5q33 11 67 30
q25 15 51 30h-29q-13 0 -19.5 2.5t-6.5 12.5q0 8 12 23q20 26 21 27q10 14 13.5 27t3.5 26z" />
    <glyph glyph-name="colon" unicode=":" horiz-adv-x="353" 
d="M269 418q0 -30 -20 -49t-45 -16q-18 3 -23 8t-5 15q0 8 -1 13q-3 21 18 38t40 17q10 0 23 -10t13 -16zM204 88q0 -29 -9 -48.5t-32 -19.5q-31 0 -37 11q-4 19 -5.5 28t-1.5 18q0 23 12.5 37t37.5 14q15 0 25 -13t10 -27z" />
    <glyph glyph-name="semicolon" unicode=";" horiz-adv-x="498" 
d="M340 373q0 -36 -11 -48q-7 -7 -28 -9q-10 -2 -26.5 7.5t-16.5 20.5q0 44 5 57q9 23 41 23q25 0 32 -15q4 -8 4 -36zM340 -6q0 -65 -70 -133q-54 -53 -156 -109q-54 -31 -85 -46q-45 -22 -64 -22h-12q-13 0 -12 10q0 12 65 46q29 15 74 40q85 47 142 99q67 60 67 103
q0 34 -17.5 50.5t-42.5 16.5q-15 2 -28.5 -16t-28.5 -17q-11 0 -17.5 2t-4.5 17q3 21 29 45t53 24q6 1 16 1q53 0 76 -43q16 -30 16 -68z" />
    <glyph glyph-name="less" unicode="&#x3c;" horiz-adv-x="738" 
d="M684 612q18 0 21 -6t3 -20q0 -7 -44 -30q-101 -50 -201 -100q-80 -43 -166 -94q-70 -42 -115 -72q31 -13 121 -63q64 -36 88 -47q72 -36 126 -70t54 -45q0 -9 -10 -14t-21 -5q-10 0 -58 26q-82 44 -110 58q-149 70 -178 85q-88 47 -88 71q0 25 99 88q75 48 210 118
q95 49 175 84.5t94 35.5z" />
    <glyph glyph-name="equal" unicode="=" horiz-adv-x="869" 
d="M774 353q0 -13 -22 -13q-12 0 -25.5 1t-26.5 2q-22 0 -79.5 -5t-122.5 -14q-21 -3 -169 -28q-59 -10 -66 -10q-32 0 -39 1q-28 4 -28 23q0 36 81 36q24 0 107 14q56 9 115.5 19t100 12.5t85.5 2.5h22q24 0 45.5 -13.5t21.5 -27.5zM829 182q0 -12 -21 -12q-11 0 -31.5 1.5
t-21.5 1.5q-19 0 -115.5 -10.5t-167.5 -20.5q-49 -7 -103 -17q-120 -22 -133 -22q-34 0 -50.5 4.5t-16.5 19.5q0 36 82 36q28 0 107 14q55 10 117 20.5t151.5 18t135.5 7.5q24 0 45.5 -13.5t21.5 -27.5z" />
    <glyph glyph-name="greater" unicode="&#x3e;" horiz-adv-x="738" 
d="M120 14q-15 0 -19.5 4.5t-4.5 22.5q0 9 75 45q135 66 170 84q92 50 166 94q50 30 115 72q-26 12 -67 34q-113 62 -142 76q-72 36 -126 70t-54 46q0 9 10 14t21 5q10 0 58 -26q82 -44 110 -58q153 -73 178 -86q88 -47 88 -70q0 -25 -99 -88q-82 -52 -210 -119
q-99 -51 -175 -84.5t-94 -35.5z" />
    <glyph glyph-name="question" unicode="?" horiz-adv-x="598" 
d="M787 821q0 -53 -56 -119q-47 -56 -114 -101q-80 -54 -155 -90q-86 -41 -133 -41q-16 -39 -23 -55q-20 -47 -25 -67q-1 -5 -1.5 -12t-0.5 -11q0 -17 1 -34.5t1 -19.5q-3 -19 -12 -33q-12 -20 -29 -17q-33 4 -33 49q0 14 3 33q0 1 7 38l48 149q11 31 41 35q26 2 42 3
q36 4 103 36.5t130.5 77.5t100.5 84q44 46 44 78q0 48 -38 63q-22 9 -74 9q-94 0 -213 -32t-150 -64q-13 -14 -24.5 -26.5t-26.5 -9.5q-10 1 -17.5 2t-7.5 9q0 5 3 20q11 55 164 107t275 52q90 0 130 -28t40 -85zM240 50q-4 -19 -23 -33t-38 -10q-13 3 -19.5 15.5t-6.5 27.5
q0 9 1 12q6 30 22.5 44t33.5 14q15 0 23.5 -14.5t8.5 -36.5q0 -7 -2 -19z" />
    <glyph glyph-name="A" unicode="A" horiz-adv-x="650" 
d="M607 103q0 -36 -7 -53t-29 -14q-21 3 -28 26.5t-7 69.5q0 16 1 53t1 57q-34 -5 -67 -10q-68 -10 -157 -22q-117 -16 -180 -23q-4 -6 -53 -99q-32 -61 -45 -62q-34 0 -34 22q0 14 39 90q12 23 41 78q42 82 111 188q95 146 175 232q105 113 174 113q39 0 56 -33
q14 -28 14 -78q0 -16 -11 -108q-6 -50 -6 -79q0 -71 -1 -109q-4 -150 -4 -176q0 -13 8.5 -33.5t8.5 -29.5zM535 298q2 33 3.5 81t1.5 67q0 37 6 86q13 107 13 111q0 23 -6 35.5t-20 12.5q-43 0 -132 -103q-70 -81 -152 -203q-62 -93 -91 -145z" />
    <glyph glyph-name="B" unicode="B" horiz-adv-x="776" 
d="M756 98q0 -78 -76 -130t-193 -52q-98 0 -189 36q-104 41 -104 98q0 22 3.5 37.5t23.5 15.5q12 0 16.5 -13t4.5 -30q0 -30 89.5 -63t146.5 -33q74 0 138 32q78 39 78 102q0 38 -24.5 74.5t-68.5 67.5t-101.5 49t-115.5 18q-16 0 -22.5 7.5t-6.5 21.5q0 24 43 33.5t53 14.5
q60 31 76 40q46 27 81 56.5t59 64.5t27 65q0 13 -12.5 19.5t-31.5 6.5q-36 0 -76 -9t-77 -29q-60 -34 -123 -95q-54 -53 -91 -105q-51 -72 -72 -106q-17 -27 -38 -66q-25 -44 -45 -91q-14 -32 -34 -89q-13 -34 -20.5 -43.5t-20.5 -9.5q-24 0 -24 26q0 10 3 20.5t9 27.5
q25 76 80 177q59 108 124 193q51 66 108.5 117.5t119.5 86.5q94 50 197 50q32 0 50 -13q26 -18 26 -61q0 -38 -25 -80t-73 -86q-33 -30 -70.5 -54.5t-85.5 -46.5q36 -5 75.5 -20.5t78.5 -43.5q49 -35 79.5 -84t30.5 -104z" />
    <glyph glyph-name="C" unicode="C" horiz-adv-x="658" 
d="M650 108q26 11 32 11q2 0 7 -9q3 -3 3 -10q0 -13 -15 -23q-41 -27 -94 -43q-66 -20 -146 -20q-160 0 -270 57q-141 73 -141 215q0 89 126 177.5t242 88.5q63 0 90.5 -14.5t27.5 -55.5q0 -19 -14.5 -38.5t-33.5 -21.5q-21 0 -21 23q0 33 -14.5 42.5t-46.5 9.5
q-73 0 -176 -64q-115 -71 -115 -145q0 -95 89 -152q97 -62 278 -62q65 0 121 12q39 8 71 22z" />
    <glyph glyph-name="D" unicode="D" horiz-adv-x="990" 
d="M1031 329q0 -132 -205 -227t-472 -95q-103 0 -178 21q-100 28 -100 85q0 19 8.5 34t24.5 14q15 -3 22 -10.5t7 -25.5q0 -31 47 -51q56 -24 159 -24q100 0 230 24q169 31 271 88q131 73 131 176q0 74 -89 131q-66 42 -183 76q-76 19 -151 38q-16 -48 -25 -76
q-26 -78 -35 -106q-5 -17 -39 -135q-9 -32 -21 -69q-7 -27 -14 -53q-8 -22 -27 -22q-31 0 -31 46q0 13 27 96q24 75 64 187q15 41 26 78t15 57q-52 0 -73 1q-104 5 -108 5q-54 0 -122 -23q-49 -16 -69 -30q-10 -8 -21 -16t-24 -8q-9 0 -14.5 7.5t-5.5 17.5q0 26 91 64
t148 38q12 0 45 1t55 1q68 0 114.5 -5.5t94.5 -15.5q118 -25 193 -53q108 -40 165 -92q69 -63 69 -149z" />
    <glyph glyph-name="E" unicode="E" horiz-adv-x="754" 
d="M794 595q3 -19 -71 -31q-153 -25 -173.5 -30t-135.5 -31q-150 -34 -198 -49q-30 -84 -45 -129q-20 -57 -29 -92q89 25 238.5 55.5t178.5 30.5q5 1 10.5 1h7.5q28 0 25 -27q0 -10 -24 -12.5t-43 -6.5q-178 -40 -271 -66q-75 -21 -139 -47q-7 -25 -13 -49t-6 -40
t10.5 -23.5t22.5 -7.5q39 0 87 3t96.5 11t188.5 34q102 19 123 19q15 0 20.5 -5t5.5 -17q1 -8 -44 -20.5t-138 -30.5t-153 -27.5t-115.5 -15.5t-91.5 -6q-33 0 -49 14t-16 38q0 44 11 90q16 56 25 90q18 68 36 121q15 43 36 95q-20 0 -32 5.5t-12 16.5q0 4 3 10
q11 18 67.5 33t116.5 31q61 21 178 42q59 11 134 23q55 11 76 15q50 9 74 9q16 0 21 -5.5t7 -18.5z" />
    <glyph glyph-name="F" unicode="F" horiz-adv-x="610" 
d="M630 566q-76 0 -212 -12q-65 0 -118 -16.5t-106 -33.5q-16 -34 -32 -75q-19 -47 -35 -95q-10 -39 -15 -58q-9 -36 -22 -60q35 0 62 4.5t56 9.5q51 8 109 23.5t119 32.5q13 0 20.5 -8t7.5 -17q0 -19 -87 -46q-73 -22 -156 -37q-47 -9 -89 -15.5t-61 -6.5
q-9 -23 -23.5 -68.5t-19.5 -63.5q-8 -22 -12 -28q-7 -10 -22 -13q-10 -1 -16.5 6.5t-6.5 12.5q0 13 21 82q18 58 18 60q-18 9 -24 16t-6 20q0 16 18 22.5t37 13.5q11 46 43 139q22 63 44 127q-9 -3 -22.5 -6t-20.5 -3q-24 0 -24 18q0 5 1 8q5 21 126.5 62t207.5 41
q46 4 92 7t94 3q53 0 83.5 -3t32.5 -11q3 -20 -13 -26t-49 -6z" />
    <glyph glyph-name="G" unicode="G" horiz-adv-x="786" 
d="M835 286q-5 -1 -19.5 -1h-25.5h-15h-15h-14h-13h-12h-41t-43 1h-13q-54 0 -117.5 -8.5t-124.5 -25.5q45 -22 90 -43q67 -37 67 -67q0 -49 -99 -88q-90 -35 -181 -35q-90 0 -158 56q-82 68 -82 189q0 128 141 224q122 83 234 83q43 0 87.5 -23.5t44.5 -48.5
q-3 -26 -9.5 -35.5t-17.5 -7.5q-19 2 -18 14q0 21 -24.5 32.5t-64.5 11.5q-125 0 -220 -81t-95 -179q0 -83 64 -138q57 -49 122 -49q47 0 127 23q91 26 91 52q0 10 -93 44t-93 71q0 26 106.5 51.5t204.5 25.5q59 0 115.5 2.5t122.5 6.5q23 0 35 -4t14 -20q0 -18 -15.5 -25.5
t-42.5 -7.5z" />
    <glyph glyph-name="H" unicode="H" horiz-adv-x="575" 
d="M605 648q-26 -44 -56 -118q-35 -85 -57 -184q-13 -61 -24 -153.5t-11 -142.5q0 -22 -3.5 -29t-22.5 -7q-15 0 -23.5 15.5t-8.5 36.5q1 9 1 13q0 41 7.5 98.5t20.5 117.5q-69 0 -154 -10.5t-170 -20.5q-17 -55 -24 -86q-10 -44 -10 -80q-1 -6 -1 -20q0 -26 -6 -33t-20 -7
q-15 0 -20.5 12t-5.5 34v26q0 7 20.5 96.5t39.5 177.5q26 118 31 160.5t7 60.5q7 48 36 48q12 0 16.5 -9t4.5 -29q0 -11 -2 -36t-2 -37q-3 -37 -18.5 -101t-30.5 -124q42 4 75 8q64 9 68 9q43 0 75 4q97 12 103 12q26 118 60 208q46 121 83 121q17 0 19.5 -8t2.5 -23z" />
    <glyph glyph-name="I" unicode="I" horiz-adv-x="407" 
d="M326 564q-50 -187 -82 -308q-35 -132 -35 -182q0 -37 -6.5 -50.5t-27.5 -13.5q-16 0 -20 19t-4 31v18.5t1 15.5q0 74 45 216l62 196q9 42 19 84q10 34 27 34q13 0 18 -9t5 -24v-13q-2 -10 -2 -14z" />
    <glyph glyph-name="J" unicode="J" horiz-adv-x="600" 
d="M612 595q-28 -36 -38 -72.5t-10 -109.5q0 -54 -25.5 -141t-53.5 -126q-40 -55 -88 -79t-116 -24q-85 0 -165 47.5t-80 101.5q0 24 22 24q34 -43 88 -76q61 -37 154 -37q55 0 91 24.5t63 83.5q24 54 42 133.5t18 135.5q0 48 9 72.5t29 42.5q-37 0 -128 -13
q-55 -8 -111 -15.5t-121.5 -21t-133.5 -27.5q-34 3 -34 22q0 29 156 58q60 11 150.5 23.5t185.5 19.5t142 7q6 0 30 2t38 2q35 0 35 -11q1 -9 1 -12q0 -13 -24 -18.5t-126 -15.5z" />
    <glyph glyph-name="K" unicode="K" horiz-adv-x="935" 
d="M962 90q-2 -10 -11.5 -14.5t-23.5 -4.5q-6 0 -19 1t-18 1q-48 0 -107 8.5t-165 28.5q-62 12 -168 34q-95 16 -136 24q-70 14 -146 50q-17 -62 -28 -99q-22 -69 -39 -69q-14 0 -22 4t-8 19t17 72t31 95q-17 26 -17 38q1 12 1 24q0 19 16 45.5t35 32.5q11 66 22 133
q18 79 44 76q11 0 16.5 -13t5.5 -26q2 -16 -9 -58q-16 -62 -18 -73q64 43 232.5 108.5t217.5 65.5q36 -4 42 -6q24 -7 24 -23q-2 -14 -11.5 -18t-28.5 -4h-26q-40 0 -155 -40q-129 -45 -216 -96q-110 -65 -110 -116q0 -25 89 -55.5t213 -50.5q85 -14 157 -26
q97 -16 157 -23.5t100 -7.5q63 0 63 -27q0 -7 -1 -10z" />
    <glyph glyph-name="L" unicode="L" horiz-adv-x="698" 
d="M726 109q5 -8 5 -11q0 -7 -18 -16.5t-77 -23.5q-46 -11 -113 -22q-129 -21 -257 -41q-173 -25 -234 -25q-21 0 -31.5 8t-10.5 32q2 15 55.5 141.5t114 263t94.5 205.5q7 16 18.5 25t17.5 9q14 0 16 -6.5t2 -18.5q0 -9 -37 -89l-80 -172q-51 -112 -76.5 -178t-36.5 -94
q-20 -51 -20 -64q0 -6 6.5 -7t11.5 -1q15 0 79 6.5t138 16.5q40 5 97 15q76 14 93 16.5t137 20.5q60 9 66 11q26 9 30 9t10 -10z" />
    <glyph glyph-name="M" unicode="M" horiz-adv-x="955" 
d="M888 288q-67 -278 -67 -329q0 -10 2.5 -26t2.5 -17q0 -17 -17 -17q-28 0 -39 20q-7 13 -7 40q0 34 19 133.5t48 212.5q17 61 47 153q48 145 48 155q2 12 2 18q0 7 -5 7q-12 0 -60 -62q-42 -54 -75 -106q-55 -87 -138 -212q-87 -131 -111 -164q-20 -43 -35 -66t-30 -23
q-29 0 -31.5 26t-2.5 27q-7 37 -35 116t-70 181q-20 48 -36 82q-23 48 -32 67q-14 -26 -36.5 -83.5t-47.5 -130.5q-47 -135 -66.5 -208.5t-19.5 -105.5q0 -43 -27 -43q-18 0 -22 9t-9 41q-3 25 39 159q33 105 74 218q8 23 36 92q38 95 48 148q4 25 9 51q6 16 30 16
q12 0 17.5 -15t4 -32.5t13 -63.5t63.5 -165q34 -84 62 -149q43 -98 56 -129q35 53 71 106q56 84 113 168q45 67 90 137t98 131q68 79 98 79q13 0 19.5 -18t6.5 -39q0 -75 -51 -232q-37 -114 -47 -157z" />
    <glyph glyph-name="N" unicode="N" horiz-adv-x="761" 
d="M839 688q-2 -21 -49 -92q-73 -110 -99 -157q-92 -163 -115 -208q-67 -131 -67 -178q0 -21 -6 -32q-9 -16 -30 -16q-29 0 -31.5 26t-2.5 27q-7 37 -35 116t-70 181q-20 48 -36 82q-23 48 -32 67q-14 -26 -36.5 -83.5t-47.5 -130.5q-47 -135 -66.5 -208.5t-19.5 -105.5
q0 -43 -27 -43q-18 0 -22 9t-9 41q-3 25 39 159q33 105 74 218q8 23 36 92q38 95 48 148q4 25 9 51q6 16 30 16q12 0 17.5 -15t4 -32.5t13 -63.5t63.5 -165q38 -95 56 -141q22 -54 50 -120q24 56 61 132q50 102 85 163q71 122 121 201q59 93 69 94q20 3 22.5 -8t2.5 -24z
" />
    <glyph glyph-name="O" unicode="O" horiz-adv-x="736" 
d="M797 520q0 -165 -86 -292q-75 -111 -203 -174q-117 -58 -238 -58q-110 0 -176 39q-86 51 -86 168q0 75 78 190q82 122 200 206q136 97 264 97q111 0 179 -50t68 -126zM742 500q0 61 -49 102q-55 46 -153 46q-95 0 -214 -86q-106 -77 -185.5 -182.5t-79.5 -163.5
q0 -96 67 -138q50 -31 135 -31q158 0 275 81q98 68 155 183q49 99 49 189z" />
    <glyph glyph-name="P" unicode="P" horiz-adv-x="613" 
d="M732 516q0 -135 -162 -206q-123 -54 -276 -54q-31 0 -54.5 2.5t-57.5 7.5q-24 -78 -31 -105q-15 -62 -15 -118q0 -29 -6 -42t-25 -13q-6 1 -9 1q-12 1 -18.5 11.5t-6.5 39.5v10q0 42 27 126q16 51 38 105q-12 3 -18.5 13.5t-6.5 23.5q0 8 4 16q15 23 25 30q14 6 28 13
q16 57 67 122q60 77 141 125q98 58 205 58q63 0 105 -42q46 -46 46 -124zM667 518q0 61 -31 86q-25 20 -74 20q-45 0 -107.5 -24.5t-111.5 -66.5t-87 -103q-30 -47 -52 -102q53 -15 101 -15q152 0 247 45q115 54 115 160z" />
    <glyph glyph-name="Q" unicode="Q" horiz-adv-x="806" 
d="M791 418q0 -123 -71 -217q-53 -69 -138 -115q27 -19 79 -39q40 -15 40 -22q2 -11 2 -16t-2 -7q-6 -6 -29 -6q-47 0 -103 32q-28 16 -55 33q-66 -27 -125 -40q-95 -21 -222 -21q-110 0 -152 50q-27 32 -27 87q0 86 82 201q77 108 113 108q13 0 15.5 -2.5t2.5 -25.5
q0 -10 -19 -30q-32 -34 -39 -42q-41 -49 -66 -98q-31 -61 -31 -115q0 -51 37 -69q28 -14 96 -14t165 13.5t127 30.5q-85 56 -130 98q-49 46 -49 72q0 9 3.5 20t15.5 11q50 -49 105 -97q62 -56 119 -79q85 46 133 107q62 79 62 184q0 59 -28 111q-39 73 -116 73
q-67 0 -138 -39q-62 -34 -118 -94q-26 -28 -133 -175q-32 -44 -44 -44q-14 0 -14 24q0 25 45 94q51 78 117 140q79 74 128 102q73 42 160 42q88 0 145 -61.5t57 -164.5z" />
    <glyph glyph-name="R" unicode="R" horiz-adv-x="685" 
d="M622 540q0 61 -32 86q-25 20 -74 20q-46 0 -107 -24.5t-110 -67t-88 -102.5q-30 -46 -53 -103q54 -14 101 -14q153 0 248 45q115 54 115 160zM197 276q85 -57 143 -88q80 -42 178 -75q65 -21 130 -41q70 -25 70 -46q0 -10 -8 -19t-19 -9q-20 -2 -106 26q-26 8 -88 31
q-103 38 -195 87q-67 36 -168 102q-14 -42 -27 -84q-17 -57 -17 -95q0 -29 -6 -42t-25 -13q-6 1 -9 1q-12 2 -18.5 11.5t-6.5 38.5v11q0 43 27 126q10 31 38 104q-9 2 -15 9q-9 11 -9 28q0 11 4 16q15 24 24 30q14 6 28 13q16 56 67 122q61 79 141 126q97 57 205 57
q62 0 106.5 -43.5t44.5 -121.5q0 -135 -161 -206q-125 -55 -277 -55q-13 0 -26 -0.5t-25 -0.5z" />
    <glyph glyph-name="S" unicode="S" horiz-adv-x="720" 
d="M686 530q2 -18 2 -24q0 -24 -26 -24q-19 0 -20.5 8.5t-3.5 18.5q-8 35 -78 54.5t-150 19.5q-104 0 -163.5 -27t-59.5 -71q0 -49 108 -91q12 -5 127 -44q106 -34 172 -84q80 -61 80 -129q0 -71 -113 -109q-95 -32 -230 -32q-95 0 -187 35q-106 40 -106 96q0 31 24 31
q17 0 34 -31q12 -23 76 -48q81 -32 178 -32q11 -1 17 -1q73 0 155 26q95 30 95 70q0 47 -70 88q-49 29 -163 70q-163 59 -183 69q-85 45 -85 117q0 48 57 90q82 60 248 60q94 0 174 -28q91 -32 91 -78z" />
    <glyph glyph-name="T" unicode="T" horiz-adv-x="628" 
d="M835 703q0 -9 -71 -30q-62 -18 -116 -30l-206 -48q-19 -45 -42.5 -156t-46.5 -225q-7 -32 -9.5 -82t-2.5 -113q0 -18 -3 -23q-8 -13 -40 -13q-15 0 -21 12.5t-6 33.5q0 18 2 31t3 19q13 102 23 165q17 102 34.5 176t48.5 158q-21 -7 -54 -15.5t-57 -15.5
q-106 -28 -179 -44q-94 -21 -118 -21q-19 0 -30 4.5t-11 15.5q0 19 22 28q86 20 196 48l468 116q49 12 112.5 25t79.5 13q15 0 19.5 -6.5t4.5 -22.5z" />
    <glyph glyph-name="U" unicode="U" horiz-adv-x="642" 
d="M692 629q0 -56 -46 -171t-105 -208q-35 -56 -72 -97q-53 -59 -109 -91q-71 -40 -148 -40q-91 0 -147 54q-52 50 -52 118q0 93 53 231q33 79 67 158q8 22 24 38.5t31 16.5q11 0 14 -11t3 -29q0 -15 -15 -44q-53 -104 -62 -127q-24 -62 -39.5 -124.5t-15.5 -93.5
q0 -81 50 -112q37 -23 109 -23q81 0 175 92q69 68 113 146q26 45 62 144q41 111 41 153q-1 13 -1 18q0 26 11 36.5t31 10.5q13 0 20.5 -11.5t7.5 -33.5z" />
    <glyph glyph-name="V" unicode="V" horiz-adv-x="631" 
d="M784 703q6 -6 6 -14q0 -11 -13 -29q-9 -12 -27.5 -31.5t-42.5 -51.5q-31 -41 -58 -87q-93 -160 -185 -320q-110 -177 -157 -177q-52 0 -91 38q-34 33 -62 99q-20 46 -45 132q-21 72 -30 164t-9 184q0 18 5.5 28t20.5 10q14 0 19.5 -9t5.5 -39q6 -69 13 -138
q11 -95 27 -155q69 -259 131 -259q28 0 80 74q41 58 108 175q93 162 119.5 206.5t54 90.5t49.5 71q21 21 31 29q20 16 34 16q9 0 16 -7z" />
    <glyph glyph-name="W" unicode="W" horiz-adv-x="913" 
d="M1064 646q0 -18 -50 -106.5t-122 -193.5q-57 -83 -110 -147q-63 -76 -114 -115q-60 -46 -108 -46q-36 0 -69 19q-18 10 -108 89q-35 40 -52 59q-31 35 -61 35q-31 0 -56 -28q-15 -18 -47 -73q-49 -82 -54 -88q-19 -22 -37 -22q-30 0 -44 45q-4 15 -8 45q0 54 27 157
q19 73 58 189q25 73 49 137q17 41 23 51q18 31 34 21q15 -10 15 -26q0 -11 -56 -176q-28 -84 -40 -119q-17 -54 -30 -115.5t-13 -103.5q14 10 31 35l26 40q42 57 65 74t47 17q39 0 80 -30q19 -14 70 -64t83 -73q45 -32 77 -32q34 0 81 44q39 37 95 110q6 7 102 139
q64 87 99 145q42 69 42 97q0 23 8 36.5t36 13.5q15 2 23 -12t8 -28z" />
    <glyph glyph-name="X" unicode="X" horiz-adv-x="647" 
d="M497 497q-91 -85 -181 -169q22 -26 70 -69q32 -29 75 -65q36 -31 97 -56q104 -43 104 -48q0 -11 -6.5 -13.5t-12.5 -2.5q-5 0 -21 2q-28 0 -82 18q-66 22 -114 57q-31 23 -74 64q-19 18 -70 69q-97 -134 -106 -147q-78 -115 -78 -150q0 -24 -5 -41t-22 -17
q-15 0 -21.5 9.5t-6.5 42.5v12q0 37 74 153q57 90 130 182q-40 51 -71.5 101.5t-31.5 67.5q0 10 5.5 20t14.5 13q15 4 65 -80q31 -53 58 -84q3 2 92 92q73 74 135 128q75 66 96 66q17 0 26.5 -8t9.5 -30t-77 -66q-49 -28 -72 -51z" />
    <glyph glyph-name="Y" unicode="Y" horiz-adv-x="566" 
d="M622 655q0 -34 -23 -83q-19 -41 -58 -99q-23 -35 -50 -72.5t-54 -75.5q-40 -58 -80 -115q-45 -67 -70.5 -115t-39 -92t-13.5 -82q1 -10 1 -15q1 -5 1 -14q0 -17 -6.5 -29t-21.5 -17q-17 -5 -22.5 9.5t-5.5 42.5v32q0 37 14 80t40 96q23 46 55 101t66 112q-34 38 -64 69
q-25 26 -87 88l-94 96q-52 52 -69 49.5t-22 6t-5 22.5q0 13 13.5 21t27.5 8q28 0 103 -74q21 -21 82 -85l149 -159q20 20 49 56q36 45 62 85q35 49 53 87q23 47 23 78q0 13 9.5 22.5t21.5 6.5q11 -3 13 -12t2 -29z" />
    <glyph glyph-name="Z" unicode="Z" horiz-adv-x="622" 
d="M600 58q-26 -3 -122 -11q-39 -3 -101 -9.5t-130 -14.5q-146 -18 -182 -18q-28 0 -36 2q-19 5 -19 34q0 20 62 87q15 16 118 122q24 25 102 87.5t130 104.5q65 53 65 62q0 5 -27 8.5t-47 3.5q-55 0 -133 -2.5t-124 -2.5h-19q-20 0 -29.5 4t-9.5 20q0 18 79 26t173 8h212
q21 0 40 -6t20 -18q0 -11 -69 -66q-225 -179 -239 -191q-84 -76 -149 -140q-55 -54 -83 -86q74 8 132 15q158 19 254 19l146 14q20 0 29.5 -3.5t9.5 -12.5q0 -14 -11 -23t-42 -13z" />
    <glyph glyph-name="bracketleft" unicode="[" horiz-adv-x="482" 
d="M569 787q-3 -15 -11 -20.5t-30 -5.5q-10 -1 -21 -1h-17h-48.5t-45.5 -2q-26 -64 -53.5 -146.5t-59.5 -193.5q-54 -191 -86 -356q22 0 65.5 -1.5t95.5 -2.5q48 -5 48 -29q0 -13 -13 -18.5t-33 -5.5q-59 3 -107 5t-92 2q-15 3 -21.5 11t-6.5 21q0 7 1 11q7 47 19.5 100
t30.5 116.5t36 126.5q26 98 67 216q31 91 59 159q6 16 20 24.5t46 8.5h15q14 0 43 1t42 1q27 0 43.5 -2.5t13.5 -18.5z" />
    <glyph glyph-name="backslash" unicode="\" horiz-adv-x="421" 
d="M318 -25q0 -8 -10.5 -13.5t-18.5 -4.5q-5 0 -11 8.5t-8 17.5l-32 150q-23 102 -38 168q-9 39 -48 193q-11 46 -41 161q-20 74 -38 144.5t-19 81.5q0 21 22 21q21 0 31 -21q3 -7 6 -22q19 -56 46 -164q24 -101 49 -201q42 -173 74 -319q36 -165 36 -200z" />
    <glyph glyph-name="bracketright" unicode="]" horiz-adv-x="413" 
d="M-5 29q3 15 11 20.5t30 5.5q10 1 21 1h17h44h18h15q12 2 17 2q26 64 55 151q26 78 58 189q54 191 86 356q-22 0 -65.5 1t-95.5 3q-48 5 -48 29q0 13 13 18.5t33 5.5q59 -3 107 -5t92 -2q15 -3 21.5 -11t6.5 -21q0 -7 -1 -11q-7 -47 -19.5 -100t-30.5 -117t-36 -126
q-26 -98 -67 -216q-31 -91 -59 -159q-6 -16 -20 -24.5t-46 -8.5h-15q-14 0 -43 -1t-42 -1q-27 0 -34 1q-26 4 -23 20z" />
    <glyph glyph-name="asciicircum" unicode="^" horiz-adv-x="882" 
d="M670 715q0 -20 -5 -28.5t-22 -8.5q-19 0 -50 118q-16 62 -41 181q-38 -46 -114 -148q-67 -90 -106 -138q-50 -62 -63 -62q-19 0 -24 2.5t-5 16.5q0 11 78 117q82 111 150 195q84 103 96 103q19 0 27 -11.5t14 -38.5t41 -177q24 -102 24 -121z" />
    <glyph glyph-name="underscore" unicode="_" horiz-adv-x="637" 
d="M602 -110q0 -12 -17.5 -19t-42.5 -10q-73 -9 -200 -15.5t-306 -6.5h-23q-27 0 -27 19q-1 14 10.5 18.5t30.5 4.5h23q129 0 223.5 4t187.5 12q35 3 81 18q19 6 32 6q28 0 28 -31z" />
    <glyph glyph-name="grave" unicode="`" horiz-adv-x="734" 
d="M485 686q0 -14 -4.5 -17.5t-17.5 -3.5q-21 0 -95 50q-52 37 -75 53q-53 36 -106 73q-57 42 -57 59q0 14 2 23t19 6q11 -2 66 -43q50 -38 102.5 -75.5t79.5 -56.5q86 -60 86 -68z" />
    <glyph glyph-name="a" unicode="a" horiz-adv-x="943" 
d="M756 5q-85 0 -140 52q-29 27 -52 75q-48 -61 -71 -78q-63 -47 -163 -47q-95 0 -138.5 38.5t-43.5 127.5q-27 -20 -70 -46q-8 -5 -59 -36q-20 -12 -29 -12q-7 0 -12.5 8t-5.5 14q0 15 23 31l177 122q64 46 121.5 69t119.5 23q52 0 103.5 -23t75.5 -61q12 17 17 24
q10 14 27 14q21 0 25.5 -4.5t4.5 -21.5q0 -8 -24 -56q-12 -24 -12 -36q-5 -43 33 -83q43 -45 107 -45q29 0 91 32q38 20 81 48q18 12 35 12q12 0 17 -6q4 -7 -2 -20t-16 -19q-56 -38 -94 -58q-73 -38 -126 -38zM560 226q-29 35 -70 49.5t-99 14.5q-85 0 -136 -50
q-46 -45 -46 -103q0 -35 32.5 -56t83.5 -21q88 0 149 56q26 24 86 110z" />
    <glyph glyph-name="b" unicode="b" horiz-adv-x="786" 
d="M816 104q-44 -28 -76 -40t-74 -12t-93 20t-73 40q-26 -50 -58 -75q-52 -41 -136 -41q-98 0 -136 84q-12 28 -18 84q-29 -15 -47 -24q-56 -29 -92 -51q-19 -12 -29 -12q-9 0 -13.5 8.5t-4.5 13.5q0 12 18 25q45 25 83 45.5t93 54.5q25 61 54 120q39 78 76.5 137t69.5 89
q40 38 79 38q38 0 56 -24q15 -20 15 -52q0 -61 -29 -114q-25 -47 -77 -95q-44 -41 -109 -85q-53 -36 -85 -52q-1 -7 -1 -21q0 -50 24 -82q29 -39 85 -39q62 0 99 43q16 19 43 75q-2 8 -3 27.5t-1 25.5q0 31 10 45.5t26 14.5q21 0 29 -11t8 -30q0 -20 -1 -26t-10 -40
q9 -20 56.5 -45.5t89.5 -25.5q30 0 59 10.5t65 32.5q14 10 29 10q12 0 19 -8q6 -7 -2 -19.5t-18 -18.5zM455 512q1 8 1 11q0 15 -23 15q-22 0 -53.5 -31.5t-61.5 -80.5q-21 -33 -51 -96t-39 -80l140 104q41 37 64 76.5t23 81.5z" />
    <glyph glyph-name="c" unicode="c" horiz-adv-x="617" 
d="M640 101q-70 -46 -113 -62q-74 -27 -195 -27q-107 0 -164 46q-29 23 -62 86l-87 -52q-8 -4 -16 -7.5t-15 -3.5q-9 0 -13 7q-5 6 0 19t14 19q30 20 67 46q19 13 50 36q3 38 80 95q84 63 158 63q50 0 88 -22q32 -19 30 -34q-3 -23 -11.5 -34t-28.5 -11q-18 0 -38.5 25.5
t-41.5 25.5q-47 0 -111 -44q-71 -49 -71 -100q0 -49 48.5 -80.5t125.5 -31.5q82 0 155 21q60 17 117 51q10 6 22 11t20 5t12.5 -5.5t4.5 -12.5q0 -6 -7 -13.5t-18 -15.5z" />
    <glyph glyph-name="d" unicode="d" horiz-adv-x="925" 
d="M953 104q-45 -31 -87 -47q-67 -26 -138 -26q-89 0 -140 38q-20 15 -73 82q-54 -44 -107 -87q-60 -38 -148 -38q-65 0 -110.5 35t-45.5 83l-91 -59q-13 -8 -25 -8q-11 0 -16.5 6t-5.5 14q0 16 17 27q32 22 51 34q67 45 88 57q61 69 136 104q64 30 125 30q65 0 99 -12
q25 -9 50 -32q28 56 68 122q53 88 88 130q49 59 76 53q14 -3 18 -11t2 -21q-6 -26 -63 -113l-102 -154q-54 -84 -54 -107q0 -42 47 -82q52 -45 121 -45q56 0 99 16q27 10 86 44q21 12 36 12q10 0 14.5 -6t4.5 -10q0 -7 -6 -15t-14 -14zM508 223q-28 45 -31 48
q-27 22 -103 22q-55 0 -132 -48q-85 -53 -85 -103q0 -35 27 -50.5t80 -15.5q74 0 118 28q35 22 126 119z" />
    <glyph glyph-name="e" unicode="e" horiz-adv-x="479" 
d="M510 102q-67 -40 -116 -56q-65 -21 -156 -21q-78 0 -119.5 22t-63.5 66q-49 -32 -68 -32q-10 0 -16 9q-5 9 0.5 19.5t15.5 16.5l47 32q-1 5 -2 15t-1 19v21.5t1 24.5q4 42 46 75.5t95 33.5q36 0 63 -22q32 -26 32 -71q0 -51 -58 -81q-24 -13 -102 -34q12 -40 52 -56
q33 -13 96 -13q75 0 131 20q36 13 88 47q13 7 21 10t18 3q9 0 14 -5t5 -11q0 -19 -23 -32zM209 253q0 16 -7 27q-12 18 -39 18q-26 0 -50 -26t-24 -48v-24.5t1 -15.5q50 13 76 25q43 20 43 44z" />
    <glyph glyph-name="f" unicode="f" horiz-adv-x="649" 
d="M491 346q-91 -83 -178 -123q-72 -33 -111 -55q108 -52 112 -54q73 -31 123 -31t109 15t94 35q13 8 23.5 12.5t17.5 4.5t14 -7q2 -2 3.5 -6t1.5 -8q0 -7 -6 -14t-16 -13q-57 -33 -126 -50t-125 -17q-64 0 -132 28q-42 17 -97 52q4 -20 4 -52q0 -96 -20 -198
q-26 -131 -75 -205q-32 -47 -46 -65q-46 -57 -99 -57q-54 0 -77 32.5t-23 92.5t68 184q48 87 128 203q66 96 69 96q-38 -17 -60 -28t-53 -29q-21 -12 -33 -12q-7 0 -11.5 5.5t-4.5 12.5q0 16 17 27q37 25 92.5 53.5t111.5 57.5q17 25 35 51q3 5 59 102q51 101 170 250
q91 113 134 113q12 1 18 1q20 0 31 -10q15 -14 15 -52q0 -107 -43 -195q-38 -78 -114 -147zM594 648q1 5 1 9v6q0 10 -5 13.5t-20 2.5q-20 0 -90 -98q-51 -75 -77 -112q-35 -52 -69 -103q-68 -101 -77 -116q57 28 116 72t102 90q57 64 89 134q25 55 30 102zM54 -325
q54 84 78 210q17 88 17 174v23q-1 7 -1 10q-9 -15 -89 -143q-63 -100 -97 -167q-45 -89 -42 -123q0 -39 1 -45q5 -28 41 -28q30 0 61 42q12 17 31 47z" />
    <glyph glyph-name="g" unicode="g" horiz-adv-x="718" 
d="M242 -463q-56 0 -86.5 25.5t-30.5 59.5q-1 8 -1 13q0 33 18 70t68 96q62 71 141.5 137.5t141.5 97.5q2 16 15 45q4 10 13 27q-75 -55 -129 -74q-42 -15 -92 -15q-99 0 -130 50q-14 22 -20 92q-56 -23 -133 -72q-13 -8 -23 -8q-11 0 -18 10q-2 3 -2 10q0 18 14 26
q24 16 101 61q50 29 80 47q52 51 128.5 89t126.5 38q69 0 120 -16q74 -23 74 -70q0 -60 -18.5 -110t-35.5 -92q79 23 88 27q22 10 67 38q9 6 16 7.5t12 1.5q11 0 15 -5.5t4 -9.5q0 -17 -24 -32q-44 -29 -103.5 -52.5t-87.5 -34.5q-25 -48 -48 -111t-44 -125
q-26 -72 -57 -136q-25 -52 -64 -78.5t-96 -26.5zM534 180q10 16 14 26q14 31 12 53q0 18 -27 29q-33 14 -96 14q-104 0 -172 -61q-56 -50 -56 -97q0 -30 21.5 -53.5t57.5 -23.5q58 0 126 34q52 26 120 79zM476 -26q-48 -37 -108 -91.5t-112 -109.5q-21 -21 -48.5 -69.5
t-27.5 -67.5q0 -50 61 -50q32 0 61 19q34 22 53 61t79 208q26 72 42 100z" />
    <glyph glyph-name="h" unicode="h" horiz-adv-x="730" 
d="M754 98q-45 -29 -67 -40q-56 -29 -123 -29q-54 0 -92 50q-1 1 -47 82q-19 34 -32 44q-23 19 -71 23q-22 0 -71 -25q-58 -30 -107 -75q-15 -13 -37 -51q-39 -67 -47 -67q-14 -1 -21.5 5t-7.5 16q0 17 25 59l22 36q-11 -6 -38 -21q-18 -10 -29.5 -17.5t-21.5 -7.5
q-13 0 -17.5 8.5t-4.5 13.5q0 12 26 28l108 64q51 136 186.5 292.5t202.5 156.5q19 0 39.5 -17t20.5 -40q0 -34 -24 -82.5t-59 -85t-73 -69.5q-75 -63 -80 -68q83 0 144 -67q15 -16 39 -61q40 -76 77 -76q36 0 67 13t78 43q22 16 41 16q10 0 15 -6.5t5 -12.5q0 -15 -26 -32z
M494 566q0 16 -14 17q-38 6 -104 -66q-49 -53 -119 -154q-47 -68 -93 -136q62 41 130 101q54 48 58 51q142 129 142 187z" />
    <glyph glyph-name="i" unicode="i" horiz-adv-x="500" 
d="M575 518q-16 -6 -32 9.5t-16 29.5q0 13 1 17.5t8.5 11t17.5 6.5q12 0 21 -6q18 -11 18 -37q0 -23 -18 -31zM526 101q-71 -45 -122 -66t-85 -21q-78 0 -107 32q-25 27 -25 92q0 16 4 36.5t8 39.5q-45 -32 -71 -49q-77 -53 -115 -75q-17 -10 -32 -10q-8 0 -11.5 5t-3.5 11
q0 13 17 26q82 61 222 149q22 13 72 62q43 41 64 44q15 1 19.5 -3.5t4.5 -16.5v-16q-46 -56 -81 -99q-39 -49 -39 -94t19.5 -66.5t64.5 -21.5q28 0 99 38l60 35q26 17 46 17q9 0 13 -5.5t4 -10.5q0 -8 -7.5 -17.5t-17.5 -15.5z" />
    <glyph glyph-name="j" unicode="j" horiz-adv-x="438" 
d="M689 587q-11 -8 -23 -8q-17 0 -25 15q-3 8 -3 14q0 7 3.5 17.5t15 15t19.5 4.5q5 0 13 -3q14 -8 14 -26q0 -20 -14 -29zM-200 -378q0 56 18.5 98.5t105.5 140.5q44 49 106 91q54 37 140 80q18 54 38 103q16 41 40 93q-118 -71 -235 -142q-17 -11 -29 -11q-10 0 -16 8
t-6 14q0 10 14 19q38 25 99 63q36 22 117 72q56 34 66 41q31 21 54 43q43 48 60 66q29 30 53 30q16 0 21 -9.5t5 -26.5q-3 -28 -68 -85q-42 -37 -61 -62q-31 -38 -57 -96q-20 -45 -37 -100l96 32q70 26 104 49q23 16 41 16q11 0 14.5 -6.5t3.5 -11.5q0 -14 -31.5 -37
t-117.5 -52q-64 -22 -128 -43q-8 -20 -41 -122q-50 -155 -103 -230q-43 -62 -70 -82q-34 -26 -87 -26q-50 0 -79.5 22.5t-29.5 60.5zM149 -25q-74 -44 -121 -80q-40 -31 -76 -70q-55 -61 -78.5 -105t-23.5 -84q0 -18 8 -25q14 -11 57 -11q31 0 62 28q38 35 82 116
q26 49 53 126q18 53 37 105z" />
    <glyph glyph-name="k" unicode="k" horiz-adv-x="776" 
d="M821 142q6 -8 6 -15q0 -12 -21 -24q-51 -29 -121 -53.5t-114 -24.5q-110 0 -196 71q-67 56 -71 94q-5 34 51 34q60 0 98 15q50 20 50 61q-4 40 -40 40q-37 0 -117 -42.5t-143 -99.5q-3 -4 -67 -105q-47 -74 -72 -74q-5 0 -10.5 4.5t-4.5 11.5q2 14 13 37q4 8 39 70
q-19 -13 -42 -27q-29 -18 -45 -25.5t-25 -7.5t-14 9.5t-5 12.5q0 9 11 16q29 20 45 29l44 26q30 20 57 40q14 11 52 41q53 136 114 238q75 126 129 136q22 4 39.5 -12.5t17.5 -51.5q0 -72 -50 -141q-19 -27 -58 -69q27 14 52.5 21.5t54.5 7.5q37 0 61 -17q29 -21 29 -63
q0 -74 -72 -106q-51 -23 -128 -23q42 -48 75 -71q47 -32 99 -32q51 0 119 18t107 42q26 17 38 17q8 0 15 -8zM431 538v19q-2 8 -11 8q-16 2 -53 -52q-28 -41 -63 -105q-10 -18 -26 -55q-12 -28 -18 -43q45 42 105 119q66 85 66 109z" />
    <glyph glyph-name="l" unicode="l" horiz-adv-x="571" 
d="M595 100q-58 -36 -141 -62t-136 -26q-141 0 -187 40q-2 2 -41 75q-9 -6 -40 -21q-19 -9 -32 -17q-19 -12 -35 -12q-9 0 -12.5 6.5t-3.5 14.5q0 11 15 22q21 15 67 40q20 11 40 25q14 64 37 132q33 99 65 146q60 89 121 141q74 63 139 63q25 0 39 -12t14 -38
q0 -62 -71 -160q-53 -73 -151 -172q-58 -58 -134 -127q0 -59 42 -79q35 -17 109 -17q56 0 131 19t124 49q14 9 26.5 13t21.5 4t13.5 -5t4.5 -13q0 -14 -25 -29zM425 600q-42 0 -98 -55q-28 -28 -86 -101q-25 -32 -56 -105.5t-42 -122.5q35 28 105 101q75 79 131 150
q65 83 65 111q0 22 -19 22z" />
    <glyph glyph-name="m" unicode="m" horiz-adv-x="1438" 
d="M1457 95q-60 -39 -112 -58q-63 -23 -126 -23q-84 0 -113 30q-16 17 -16 52q0 14 9 36l22 46q1 10 -1.5 22.5t-10.5 13.5q-28 0 -110 -46q-72 -43 -147 -87.5t-96 -44.5q-44 0 -44 37q0 8 1 13.5t31 87.5q12 33 12 59q0 25 -16.5 35t-45.5 10q-64 0 -105 -14.5t-111 -61.5
q-20 -14 -54 -71q-27 -45 -64 -45q-12 0 -24 12t-12 22q0 20 39 68q19 23 19 47q0 17 -24 22t-60 5q-32 -4 -67 -23q-23 -13 -70 -47q-8 -6 -86 -62q-53 -38 -59 -42q-15 -9 -30 -9q-13 0 -15.5 5t-2.5 12q0 8 3.5 15t12.5 13q42 25 80 52q31 22 70 52q47 36 90 56
q55 26 107 26q49 0 74 -17q27 -26 44 -41q62 28 125 57q62 25 132 25q52 0 77 -40q20 -32 20 -78q0 -15 -1.5 -26t-16 -40.5t-15.5 -36.5q0 -15 15 -15q112 65 198 114q95 54 157 54q26 0 39.5 -16t13.5 -41q0 -29 -21.5 -62t-21.5 -58q0 -16 20 -21.5t59 -5.5
q35 0 102 24.5t97 45.5q23 16 38 16q9 0 16 -9t-1.5 -21.5t-23.5 -22.5z" />
    <glyph glyph-name="n" unicode="n" horiz-adv-x="1103" 
d="M1120 98q-68 -40 -100 -52q-55 -20 -132 -20q-59 0 -92 19t-33 44q0 28 12 75t12 59q0 13 -7 21t-22 8q-56 0 -119 -20q-27 -8 -176 -76q-10 -9 -58 -67q-36 -43 -55 -43q-14 0 -26 13t-12 27q0 6 33 45q21 25 29 37q3 20 -16 39t-48 19q-41 0 -123 -44q-3 -2 -94 -49
q-51 -27 -76 -43q-19 -12 -35 -12q-11 0 -16 6q-4 6 0 18t18 22q108 70 193.5 110t129.5 40q57 0 97 -16t40 -49q97 47 189 71q77 20 140 20q51 0 66 -27q8 -14 8 -50q0 -21 -14 -73q-7 -26 -7 -42q0 -25 23 -32q13 -4 49 -4q57 0 110 20q31 12 82 41q11 7 22 11.5t20 4.5
t14 -6.5t5 -11.5q0 -8 -7.5 -15.5t-23.5 -17.5z" />
    <glyph glyph-name="o" unicode="o" horiz-adv-x="721" 
d="M736 97q-32 -21 -92 -42t-113.5 -30t-90.5 -11t-102 -2q-139 0 -185 48q-28 29 -28 98q-21 -15 -65 -42q-32 -19 -48.5 -29t-28.5 -10q-10 0 -15 8q-4 6 0 18.5t14 18.5l124 84q97 65 168 103q95 51 141 51q54 0 117 -61t63 -119q0 -27 -32 -67t-66 -51q45 0 116 27
q59 22 96 45q26 17 42 17q9 0 13.5 -6t4.5 -10q0 -8 -7 -16.5t-26 -21.5zM540 182q0 38 -43 72.5t-81 34.5q-40 0 -83.5 -15.5t-81.5 -41.5q-33 -23 -48 -41q-21 -25 -21 -54q0 -37 34 -50q27 -10 94 -10q81 0 151 28q79 32 79 77z" />
    <glyph glyph-name="p" unicode="p" horiz-adv-x="847" 
d="M838 132q12 9 22.5 13t18.5 4q10 0 13 -5.5t3 -12.5q0 -17 -20 -30q-34 -21 -71 -35.5t-84 -22.5q-28 -5 -61.5 -7t-63.5 -2h-43q-99 0 -157 36q-49 31 -49 69q0 19 10 31t28 12q4 0 21 -36t63 -36q80 0 149 49t69 103q0 36 -40 52q-30 12 -77 12q-87 0 -164 -40
q-65 -34 -127 -99q-53 -55 -105 -134q-41 -62 -76 -128q-24 -45 -47 -91q-23 -54 -41 -91q-35 -72 -55 -72q-10 0 -16 7.5t-8 19.5q-3 19 11 49q11 25 36.5 66.5t113.5 196.5q64 113 99 165q-26 -14 -94 -44q-53 -23 -79 -41q-21 -13 -34 -13q-11 0 -17 9q-5 7 1 19t13 16
q20 13 144 73q60 29 102 56q23 21 79 94q36 47 62 47q11 0 14 -5t3 -15q0 -7 -2 -15t-5 -18q41 14 83 28q50 13 123 13q63 0 107 -29q54 -35 54 -100q0 -51 -60 -105q-52 -47 -108 -66q21 -2 37.5 -3.5t37.5 -1.5q30 0 79 10q25 6 48 15q32 13 60 33z" />
    <glyph glyph-name="q" unicode="q" horiz-adv-x="684" 
d="M701 96q-29 -18 -69 -35.5t-54 -23.5q-44 -103 -87 -207q-59 -137 -106 -203q-65 -91 -133 -91q-46 0 -63 12q-23 16 -23 62q0 44 59 152q49 90 125 201q27 39 38 53q5 7 44 55q-70 -19 -112 -26.5t-87 -7.5q-70 0 -103 40q-24 29 -24 69l-87 -55q-26 -16 -40 -16
q-10 0 -14 6t-4 10q0 8 5.5 16t14.5 14l128 89q38 81 181 150q132 64 228 64q54 0 85 -33q27 -29 23 -63q0 -13 -10.5 -24.5t-29.5 -11.5q-12 0 -19 38t-61 38q-39 0 -80 -10.5t-85 -34.5q-79 -44 -115 -73q-50 -40 -53 -78q0 -52 17.5 -69.5t63.5 -17.5q52 0 131 23
q40 12 81 25q15 15 73 88q39 49 54 47q15 -3 20.5 -7.5t5.5 -19.5t-42 -72q-21 -28 -94 -120q-69 -87 -99 -129q-47 -68 -98 -161q-63 -116 -63 -154q0 -13 4.5 -17.5t16.5 -4.5q8 1 13 1q53 0 116 103q44 71 102.5 212t71 162.5t56.5 40.5q57 25 67 32q23 17 42 17
q14 0 19 -8q13 -21 -30 -47z" />
    <glyph glyph-name="r" unicode="r" horiz-adv-x="708" 
d="M728 96q-71 -49 -109 -64.5t-85 -15.5q-90 0 -130 53q-33 44 -33 124q0 27 26.5 77t26.5 61q0 8 -10 16t-50 29q-17 7 -31 18t-35 32q-43 -82 -124 -183q-95 -119 -158 -153q-19 -10 -32 -10q-9 0 -13.5 4.5t-4.5 11.5q0 12 16 23q80 56 160 164q65 87 112 185
q-14 16 -21 48t-7 59q0 26 13 44q18 25 54 25q32 0 48 -27q11 -19 11 -43q0 -16 -4 -33.5t-20 -65.5q15 -20 31 -32q12 -9 42 -27q26 -13 53 -26q34 -19 34 -41q0 -20 -31 -76t-31 -92q0 -54 24 -82q28 -33 91 -33q44 0 70 13q43 28 87 54q23 14 40 14q8 0 11.5 -6t3.5 -13
q0 -14 -25 -32zM287 523q-15 24 -15 41q2 12 4.5 17.5t10.5 6.5q8 0 12.5 -7.5t4.5 -17.5t-6 -21t-11 -19z" />
    <glyph glyph-name="s" unicode="s" horiz-adv-x="708" 
d="M722 95q-58 -38 -97 -56q-70 -33 -122 -33q-195 0 -281 53q-23 14 -96 103q-14 -10 -45 -30q-58 -37 -67 -43q-20 -14 -34 -14q-10 0 -13 5t-3 11q0 16 16 28q35 24 61 41.5t51 36.5q36 28 103 85q31 26 60.5 51.5t92.5 81.5q104 93 119 93q24 0 24 -22q0 -14 -24 -39
q-9 -10 -84 -74q65 -44 100 -81q51 -54 51 -106q0 -33 -14 -60q-20 -39 -63 -60q19 -5 32.5 -6t25.5 -1q37 0 90 23q27 12 84 44q19 11 27 15q15 7 25 7q8 0 11 -5t3 -10q0 -9 -9 -19t-24 -19zM476 179q0 40 -44.5 79.5t-89.5 78.5q-34 -26 -81 -65q-70 -58 -92 -76
q25 -39 88.5 -76t103.5 -37q45 0 80 27t35 69z" />
    <glyph glyph-name="t" unicode="t" horiz-adv-x="500" 
d="M479 258q-95 -17 -155 -25q-96 -13 -160 -13q-2 -11 -3 -24t-1 -20q0 -57 40 -93t106 -36q37 0 129 50q52 30 62 36t22.5 11.5t20.5 5.5q10 0 13.5 -6.5t3.5 -10.5q0 -8 -8.5 -16.5t-21.5 -16.5q-52 -32 -103 -63q-78 -43 -120 -43q-88 0 -143 52q-43 41 -61 105
q-18 -20 -42 -35.5t-47 -29.5q-11 -7 -24 -7t-16 5t-3 11q0 12 13 24l59 43q13 10 27 25q5 5 13 16l-105 -31q-12 -3 -19.5 3.5t-7.5 22.5q1 17 74 38q28 8 82 22q30 62 73 140q63 115 109 182q62 91 90 91q11 0 16 -3q15 -9 15 -43q0 -31 -46 -109q-33 -56 -95 -145
q-38 -53 -75 -106q23 0 63 5.5t78 11.5q63 9 69 10q55 9 111 19q18 2 28 2q19 0 28 -5t7 -19q-3 -24 -35.5 -27t-60.5 -4z" />
    <glyph glyph-name="u" unicode="u" horiz-adv-x="1034" 
d="M1068 104q-71 -43 -116.5 -58t-87.5 -15q-96 0 -150 19q-32 11 -112 80q-122 -74 -123 -75q-88 -43 -189 -43q-105 0 -154 54q-34 38 -34 88q-21 -23 -50 -43q-20 -14 -40 -27q-8 -5 -19 -5q-15 0 -19.5 7.5t-4.5 12.5q0 12 20 26q25 15 46 35q7 7 38 40q41 55 65 85
q45 57 73 61q12 0 19.5 -7t7.5 -29q0 -11 -35 -52t-35 -97q0 -53 37 -77q29 -19 78 -19q96 0 174 35q62 28 114 80q30 30 79 96q32 43 46 43q15 0 29 -4t14 -15q0 -42 -38 -89q-21 -25 -41 -50q21 -35 59 -54q55 -28 143 -28q32 0 80.5 17t94.5 44q18 12 32 12q10 0 14 -7
t4 -13q0 -17 -19 -28z" />
    <glyph glyph-name="v" unicode="v" horiz-adv-x="665" 
d="M799 385q0 -21 -13.5 -36t-34.5 -22t-46.5 -11t-57.5 -4q-9 0 -17 -0.5t-15 -0.5q-14 0 -20 3q-8 -87 -79 -164q-88 -95 -217 -95q-90 0 -141.5 20t-62.5 59l-77 -43q-12 -6 -22 -6q-12 0 -16 6t-4 17q0 13 8 18q35 20 69.5 43t48.5 31q0 30 41 85q45 61 79 61
q19 0 22.5 -5.5t3.5 -12.5v-16q0 -24 -43 -72t-43 -72q0 -36 48 -50q32 -9 95 -9q96 0 168 82q57 65 57 108q0 16 -2 25q-7 32 -7 34q0 4 3 20t9 20t33 4q14 0 34 -15t32 -15q20 -1 33 -1q16 0 26 1t19 5.5t20.5 19.5t20.5 15q13 0 31.5 -8t16.5 -19z" />
    <glyph glyph-name="w" unicode="w" horiz-adv-x="995" 
d="M1090 394q-2 -23 -33 -38t-71 -15q-17 -1 -24 -1q-10 0 -16 3q3 -18 5 -37t2 -40q0 -91 -48 -141q-63 -65 -209 -65q-57 0 -88 16q-5 3 -54 39q-45 -36 -93 -55q-65 -26 -142 -26q-76 0 -123 35q-42 31 -52 82q-49 -21 -77 -33.5t-49.5 -26t-33.5 -13.5q-8 0 -13.5 5.5
t-5.5 11.5q0 16 21 30q28 18 69 37q51 23 103 47q53 81 94 131q56 68 84 68q23 0 29.5 -8.5t6.5 -29.5q0 -39 -77 -108t-77 -104q0 -42 35 -58q24 -11 66 -11q84 0 137 22q69 29 74 71q13 82 68 77q12 0 22.5 -10.5t10.5 -20.5q-1 -13 -20 -38q-9 -12 -9 -24q0 -30 25 -41
q18 -8 54 -8h18.5t18.5 1q108 0 145 35q24 23 30 85q0 13 -13 67q-7 29 -7 44q0 10 3.5 23t14 28.5t23.5 17.5q10 1 31.5 -9.5t40.5 -10.5q31 0 44 17t33 17q19 0 23 -9.5t4 -28.5z" />
    <glyph glyph-name="x" unicode="x" horiz-adv-x="878" 
d="M886 142q10 7 29 7q12 0 17 -5q5 -7 0 -18.5t-12 -16.5q-69 -44 -111 -58q-61 -20 -160 -20q-93 0 -127 14q-25 10 -62 56q-67 -50 -142 -73q-58 -18 -110 -18q-27 0 -52 23t-25 56q0 20 7 36.5t23 13.5q24 -5 24 -33q0 -48 59 -48q37 0 87.5 26.5t100.5 54.5q0 34 17 69
q10 21 29 46q-10 27 -38.5 40t-56.5 13q-45 0 -131 -51q-56 -33 -147 -101q-46 -35 -92 -69q-14 -9 -25 -9t-14.5 8.5t-3.5 15.5q0 12 14 21l194 146q136 94 219 94q40 0 79 -26l48 -34q56 40 67 46q45 22 116 22q30 0 52.5 -13t24.5 -33q0 -15 -4.5 -26.5t-16.5 -11.5
q-9 0 -27 18t-42 18q-53 0 -115 -45q-73 -53 -83 -123q-4 -30 27 -51q39 -26 117 -26q102 0 142.5 11.5t103.5 53.5z" />
    <glyph glyph-name="y" unicode="y" horiz-adv-x="667" 
d="M602 295q-5 -28 -50 -100q-15 -24 -89 -133q52 11 96 25q58 19 90 38q20 12 31 12q10 0 17 -10q4 -6 4 -11t-3 -11t-19 -16q-34 -21 -121 -55t-128 -44q-52 -94 -149 -249q-62 -96 -109 -143q-57 -56 -107 -56q-48 0 -66 20q-21 23 -21 73q0 66 48 126q32 40 116 109
q63 52 129 95q76 47 120 75l36 66q-45 -17 -71 -25q-81 -26 -118 -26q-65 0 -92.5 13.5t-29.5 33.5q0 12 1.5 32t1.5 22q-32 -22 -47.5 -32.5t-55.5 -34.5q-12 -7 -26 -7q-11 0 -16.5 6t-5.5 14q0 12 13 20q18 12 80 45q43 23 66 41q7 43 32 68t49 25q17 0 23.5 -5.5
t6.5 -30.5q0 -18 -30 -49t-30 -53q-1 -17 -1 -25q0 -17 8 -25.5t33 -8.5q87 0 142 28q31 16 114 85q18 15 52 73q26 44 52 44q12 0 19 -12.5t5 -26.5zM362 -24q-18 -17 -71 -54q-61 -42 -116 -88q-91 -76 -98 -84q-43 -48 -43 -117q0 -24 17 -32q8 -4 26 -4q24 0 71.5 49.5
t89.5 113.5q34 52 86 149q22 41 38 67z" />
    <glyph glyph-name="z" unicode="z" horiz-adv-x="652" 
d="M683 103q-32 -20 -72 -39q-13 -6 -137 -56q0 -68 -41 -159.5t-105 -170.5q-51 -63 -107.5 -99.5t-108.5 -36.5q-44 0 -71.5 24t-27.5 69q0 85 209 262q43 37 80 64q45 33 98 63q-16 33 -40 49.5t-47 16.5q-8 0 -16 -1.5t-14 -1.5q-22 0 -38.5 8.5t-17.5 26.5q-2 20 41 31
q39 8 79 17q35 34 51 52q30 33 26 59q-1 19 -3 28.5t-17 9.5q-40 0 -108 -33q-79 -39 -141 -98q-40 -37 -78 -63q-21 -15 -61 -39q-12 -6 -24 -6t-15.5 4.5t-3.5 11.5q0 16 10 23q32 21 64 43q37 27 83 67q71 64 147.5 102.5t129.5 38.5q46 0 59 -14q10 -11 10 -49
q0 -62 -31 -110q-18 -28 -65 -72q30 -16 39 -25q6 -6 41 -52q94 44 189 89q13 8 27 8t19 -8q4 -5 0 -17t-12 -17zM421 -24q-29 -15 -72 -44q-36 -24 -79 -57q-57 -44 -131.5 -131.5t-74.5 -108.5q0 -17 17 -29t40 -12q33 0 80.5 35t92.5 90q52 64 89.5 139.5t37.5 117.5z
" />
    <glyph glyph-name="braceleft" unicode="{" 
d="M535 779q5 -31 -35 -31h-42q-31 0 -49.5 -7t-34.5 -31t-36 -84q-48 -147 -67 -183q-11 -21 -37 -27q-4 -1 -65 -8q33 -12 45 -28q7 -9 7 -22q0 -46 -11 -102q-5 -25 -17 -72q-24 -87 -31 -120t-7 -54q0 -14 19.5 -18.5t55.5 -4.5h39q18 0 41.5 -0.5t23.5 -15.5
q0 -23 -25 -32q-18 -6 -60 -6q-11 0 -22 0.5t-22 0.5q-61 0 -77 8q-28 14 -28 63q0 29 16 105l18 81q10 40 13 51q15 55 15 77q3 18 -10 30t-29 16.5t-26.5 18t-10.5 31.5q3 19 14.5 32.5t33.5 13.5q30 0 60 8t39 22q22 32 63 170q18 62 40 87q31 34 75 44q26 6 87 6
q34 0 37 -19z" />
    <glyph glyph-name="bar" unicode="|" horiz-adv-x="596" 
d="M516 718q0 -22 -33.5 -91t-83.5 -160t-99 -179q-44 -80 -87 -160q-53 -97 -79 -153q-36 -75 -42 -108t-17 -40q-1 -1 -22 -5q-5 1 -7 2q-17 9 -15 25q6 42 89 202q78 148 156 297l178 338q14 35 19 47q13 32 36 30q10 0 10 -12q-3 -20 -3 -33z" />
    <glyph glyph-name="braceright" unicode="}" 
d="M-24 -44q0 12 8.5 20t26.5 8h32q39 0 54 5q23 8 40.5 33.5t36.5 91.5q47 161 67 198q10 20 38 27q4 1 64 8q-25 9 -38 21t-13 29q0 36 8 80t24 103q11 40 23 81q9 35 9 61q0 14 -19.5 18.5t-53.5 4.5h-39h-13h-11q-23 0 -32.5 2.5t-9.5 13.5q0 22 21 30t56 8
q13 0 25.5 -0.5t25.5 -0.5q61 0 78 -8q28 -13 28 -62q0 -33 -12 -85q-2 -10 -18 -72q-4 -16 -18.5 -65.5t-14.5 -69.5q0 -18 13 -30t33 -18q10 -3 20 -17t10 -31q0 -18 -13 -32t-35 -14q-30 0 -59 -8t-40 -22q-20 -29 -62 -186q-18 -67 -41 -94q-30 -34 -75 -44
q-26 -6 -86 -6q-17 0 -21 1q-17 5 -17 21z" />
    <glyph glyph-name="asciitilde" unicode="~" horiz-adv-x="604" 
d="M563 460q-2 -17 -44 -36t-87 -19q-13 0 -32 2t-78 79q-27 35 -56 35q-27 0 -54 -15t-27 -36q0 -12 -5 -19t-19 -7q-16 0 -20 6.5t-4 19.5q0 41 49 70t102 29q31 0 70 -60t84 -60q18 0 43 12q54 26 57 26q14 0 17.5 -6t3.5 -21z" />
    <glyph glyph-name="c128" horiz-adv-x="776" 
d="M275 643l-17 -74q-11 -45 -38 -116q-15 -39 -28 -72q17 2 39 3t57 1q58 0 129.5 -10.5t111.5 -29.5q56 -26 95 -69q43 -48 52 -103q2 -16 2 -25q0 -87 -88 -147.5t-233 -60.5q-85 0 -146 21q-71 24 -80 68q-3 17 -3 28q0 10 3 19.5t19 9.5q11 0 17.5 -11.5t8.5 -27.5
q5 -23 63.5 -41t117.5 -18q111 0 183 38q77 41 77 110q0 13 -3 27q-7 36 -40.5 72t-79.5 57q-30 15 -105 26.5t-122 11.5q-37 0 -98 -7l-42 -117q-13 -40 -25.5 -90.5t-21.5 -99.5q-3 -28 -7 -38q-7 -19 -23 -21q-12 -3 -19 3t-8.5 14t-1.5 16q0 11 1 19.5t3 18.5
q9 69 35 151q21 66 52 141q-10 5 -13 21q-1 8 7.5 15t25.5 14l54 129q12 31 21 81q4 21 8 49l-17 -5q-51 -13 -103 -29q-72 -22 -92 -22q-41 0 -41 19q0 23 40 37q2 1 71 18q76 21 153 43q9 40 32 40q8 0 16 -8t8 -17q30 6 80 18q111 27 154 36q15 3 78 18q30 7 31 7
q15 0 19.5 -8t4.5 -25q0 -11 -27 -23q-21 -9 -53 -16l-206 -48z" />
    <glyph glyph-name="c129" horiz-adv-x="460" 
d="M558 632h-62q-75 0 -123 -7t-155 -37q-12 -25 -40 -106q-9 -25 -51 -148q-33 -89 -46 -127q-20 -58 -53 -183q-8 -22 -12 -28q-7 -10 -22 -13q-10 -1 -16.5 6.5t-6.5 12.5q0 22 11 65t29 97l135 402q-9 -3 -22.5 -6t-20.5 -3q-24 0 -24 18q0 5 1 8q7 29 143 63
q146 37 283 37q52 0 82 -5t32 -14q3 -20 -13 -26t-49 -6zM648 984q17 -6 17 -14q0 -4 -4.5 -14t-35.5 -36q-40 -33 -120 -88q-52 -37 -106.5 -74.5t-73.5 -33.5q-23 5 -23 19q0 3 5.5 12.5t86.5 61.5q54 35 79 52q31 21 82 57q85 61 93 58z" />
    <glyph glyph-name="quotesinglbase" unicode="&#x201a;" horiz-adv-x="670" 
d="M420 0q0 -37 -18 -71.5t-80 -89.5t-92 -55h-12q-12 0 -12 9q0 10 14 22q34 27 68 53q43 38 60 61q22 30 22 59q0 48 -34 48q-16 0 -23 -11t-18 -11q-13 0 -18 4t-3 16q2 22 19.5 39.5t44.5 17.5q50 0 69 -32q13 -22 13 -59z" />
    <glyph glyph-name="florin" unicode="&#x192;" horiz-adv-x="624" 
d="M660 137q7 -12 7 -17q0 -10 -20 -24q-67 -45 -123 -65q-49 -17 -99 -17q-162 0 -162 95q0 51 103 103t103 72q0 25 -15.5 36.5t-50.5 11.5q-37 0 -110 -51q-68 -48 -135 -95q-72 -46 -109 -71q-22 -16 -43 -31q-13 -7 -20 -7t-16 9q-4 4 -4 11q0 11 16 22t62 42
q62 42 83 55q36 23 105.5 74t96.5 65q50 27 93 27q48 0 78 -33q26 -28 26 -59q0 -57 -104 -106t-104 -71q0 -32 31 -44q23 -9 73 -9q81 0 195 72q19 11 30 11q8 0 13 -6zM690 804q17 -6 17 -14q0 -4 -4.5 -14t-35.5 -36q-40 -33 -120 -88q-53 -38 -108 -76t-72 -32
q-23 7 -23 19q0 3 5.5 12.5t86.5 61.5q54 35 79 52q31 21 82 57q85 61 93 58z" />
    <glyph glyph-name="quotedblbase" unicode="&#x201e;" horiz-adv-x="786" 
d="M420 0q0 -37 -18 -71.5t-80 -89.5t-92 -55h-12q-12 0 -12 9q0 10 14 22q34 27 68 53q43 38 60 61q22 30 22 59q0 48 -34 48q-16 0 -23 -11t-18 -11q-13 0 -18 4t-3 16q2 22 19.5 39.5t44.5 17.5q50 0 69 -32q13 -22 13 -59zM666 0q0 -37 -18 -71.5t-80 -89.5t-92 -55h-12
q-12 0 -12 9q0 10 14 22q34 27 68 53q43 38 60 61q22 30 22 59q0 48 -34 48q-16 0 -23 -11t-18 -11q-13 0 -18 4t-3 16q2 22 19.5 39.5t44.5 17.5q50 0 69 -32q13 -22 13 -59z" />
    <glyph glyph-name="ellipsis" unicode="&#x2026;" horiz-adv-x="598" 
d="M92 71q17 0 31 -11t14 -25q-5 -33 -43 -33q-29 0 -29 18t7 34.5t20 16.5zM289 72q16 0 28.5 -12.5t12.5 -23.5q0 -15 -12.5 -26.5t-31.5 -11.5q-11 0 -19 7.5t-8 24.5q0 12 8.5 27t21.5 15zM490 68q13 0 29 -14t14 -24q0 -14 -15 -25t-33 -11q-15 0 -21.5 6.5t-6.5 16.5
q0 15 9.5 33t23.5 18z" />
    <glyph glyph-name="dagger" unicode="&#x2020;" horiz-adv-x="407" 
d="M289 398q-25 -102 -42 -175q-31 -132 -38 -170q-15 -78 -15 -117q0 -37 -6.5 -50.5t-27.5 -13.5q-16 0 -20 19t-4 31v18.5t1 15.5q0 45 16 124q10 50 38 160l40 156q-42 0 -107 -5t-102 -5q-18 0 -28 5t-10 12q0 31 24 31q67 5 123.5 8.5t112.5 3.5l15 60q9 42 19 84
q10 34 27 34q13 0 18 -9t5 -24v-13q-2 -10 -3 -21t-7 -38q-9 -35 -17 -70q71 0 95 6.5t65 6.5q22 0 36 -7t14 -24q0 -19 -11 -24t-42 -5q-32 0 -79.5 -2t-89.5 -2z" />
    <glyph glyph-name="daggerdbl" unicode="&#x2021;" 
d="M255 257q81 0 110 5t72 5q22 0 36 -7t14 -24q0 -19 -11 -24t-42 -5h-190q-20 -81 -35 -160.5t-15 -110.5q0 -37 -6.5 -50.5t-27.5 -13.5q-16 0 -20 19t-4 31v18.5t1 15.5q0 31 8 76q5 28 39 173q-36 0 -121 -7q-49 -4 -74 -4q-18 0 -28 5t-10 12q0 31 24 31q3 0 88 5.5
t133 5.5l35 143q-42 0 -107 -5t-102 -5q-18 0 -28 5t-10 12q0 31 24 31q67 5 123.5 8.5t112.5 3.5l15 60q9 42 19 84q10 34 27 34q13 0 18 -9t5 -24v-13q-2 -10 -3 -21t-7 -38q-9 -35 -17 -70q71 0 95 6.5t65 6.5q22 0 36 -7t14 -24q0 -19 -11 -24t-42 -5q-32 0 -79.5 -2
t-89.5 -2z" />
    <glyph glyph-name="circumflex" unicode="&#x2c6;" horiz-adv-x="562" 
d="M541 608q0 -16 -3 -19t-15 -3q-14 -2 -40 25t-87 107l-100 128q-11 -15 -56 -67.5t-77 -87.5q-12 -14 -24 -27q-21 -25 -24 -26q-24 -3 -21 17q3 31 30 65l126 164q30 35 45 35q21 2 60 -53q36 -52 72 -103l90 -106q24 -32 24 -49z" />
    <glyph glyph-name="Scaron" unicode="&#x160;" horiz-adv-x="869" 
d="M479 308v-97t1 -103q0 -17 0.5 -32t6.5 -31t53 -26.5t102 -10.5q116 0 178 63q52 53 52 129q0 62 -61.5 105.5t-151.5 43.5q-28 0 -68 -10q-3 -1 -59 -17zM483 366l70 17q41 9 74 14t63 5q94 0 162 -46q78 -53 78 -141q0 -105 -63 -173q-79 -85 -241 -85q-63 0 -103 7.5
t-62 19.5t-28.5 36.5t-10.5 70.5q0 32 1 112.5t1 88.5l-16 -4q-3 2 -20.5 9.5t-15.5 17.5q1 7 16 15.5t39 17.5l3 41q0 41 13 138q6 45 6 59q0 38 -27 38q-25 0 -73 -69q-43 -62 -97 -164q-25 -47 -96 -189q-35 -72 -69 -144q-40 -79 -53 -80q-34 0 -34 22q0 12 39 90
q8 17 40 78q46 92 92 185q74 145 132 227q78 111 129 111q39 0 56 -33q14 -27 14 -77q0 -17 -11 -108q-6 -50 -6 -79z" />
    <glyph glyph-name="guilsinglleft" unicode="&#x2039;" horiz-adv-x="583" 
d="M460 338q-1 -7 -57.5 -43.5t-114.5 -74.5q-41 -27 -87 -61q-18 -13 -69 -53l88 -24q64 -17 90 -25q40 -13 40 -21q0 -25 -25 -25q-9 0 -49 8.5t-88.5 21t-62.5 16.5q-57 17 -57 31q0 28 20.5 44.5t76.5 58t91 66.5q73 52 111 75q54 33 73 33q21 0 21 -15q-1 -7 -1 -12z
" />
    <glyph glyph-name="OE" unicode="&#x152;" horiz-adv-x="625" 
d="M459 59q11 1 19 -9q4 -5 11 -24q5 -18 52.5 -28.5t103.5 -10.5q116 0 178 63q52 53 52 129q0 61 -57 98.5t-158 37.5q-58 0 -125 -14q-17 -55 -49 -158q-19 -61 -27 -84zM470 295q-69 0 -154 -10.5t-170 -20.5q-19 -62 -30 -107q-16 -66 -16 -102q-1 -6 -1 -20
q0 -26 -6 -33t-20 -7q-15 0 -20.5 12t-5.5 34v26q0 9 25 116q51 217 51 218q30 133 35.5 178.5t7.5 63.5q7 48 37 48q12 0 16.5 -10t4.5 -29q0 -11 -2 -39.5t-2 -31.5q-3 -36 -22.5 -115t-36.5 -149q42 4 75 8q64 9 68 9q43 0 75 4q97 12 103 12q31 92 63 184q54 145 80 145
q10 0 12.5 -3.5t2.5 -17.5q0 -13 -34.5 -134t-49.5 -162q14 0 65.5 3.5t74.5 3.5q95 0 160 -40q77 -48 77 -135q0 -105 -63 -173q-79 -85 -241 -85q-71 0 -124 17t-65 52q-6 -21 -8 -23q-7 -10 -26 -14q-10 -1 -16.5 6.5t-6.5 12.5q0 22 51 192z" />
    <glyph glyph-name="c141" horiz-adv-x="605" 
d="M604 35q-3 -15 -10 -19.5t-20 -4.5q-11 1 -18 1q-78 0 -163 41q-18 8 -99 53q-44 23 -96 61l-60 44q-17 -71 -29 -116q-24 -85 -41 -85q-15 0 -22.5 3t-7.5 19q2 16 23.5 96.5t32.5 111.5q-11 16 -14.5 27.5t-3.5 24.5v22q0 17 14 38t31 27q32 102 50 163q35 114 59 112
q12 0 17.5 -12.5t5.5 -27.5q2 -19 -29 -103q-21 -55 -28 -74q72 49 198 112q140 70 181 70q27 0 46.5 -6t19.5 -23q-2 -14 -10.5 -17.5t-29.5 -3.5h-26q-51 0 -195 -76q-158 -83 -213 -155q-7 -19 -10 -35.5t-5 -31.5q28 -27 76.5 -61.5t101.5 -63.5q65 -34 130.5 -59
t97.5 -25h16q31 0 31 -18q0 -6 -1 -9zM705 978q17 -6 17 -14q0 -4 -4.5 -14t-35.5 -36q-40 -33 -120 -88q-53 -38 -108 -76t-72 -32q-23 7 -23 19q0 3 5.5 12.5t86.5 61.5q54 35 79 52q31 21 82 57q85 61 93 58z" />
    <glyph glyph-name="c142" horiz-adv-x="566" 
d="M264 643l-17 -74q-11 -45 -38 -116q-15 -39 -28 -72q18 2 68.5 3t60.5 1q118 0 174 -43.5t56 -146.5q0 -92 -16 -160q-19 -80 -49 -80q-21 0 -27.5 7.5t-2.5 19.5q16 49 27 102t11 84q0 96 -34 127q-38 35 -160 35q-14 0 -59.5 -2t-71.5 -5l-42 -117q-13 -40 -25.5 -90.5
t-21.5 -99.5q-3 -28 -7 -38q-7 -19 -23 -21q-12 -3 -19 3t-8.5 14t-1.5 16q0 11 1 19.5t3 18.5q9 69 35 151q21 66 52 141q-10 5 -13 21q-1 8 7.5 15t25.5 14l54 129q12 31 21 81q4 21 8 49l-17 -5q-51 -13 -103 -29q-72 -22 -92 -22q-41 0 -41 19q0 23 40 37q2 1 71 18
q76 21 153 43q9 40 32 40q8 0 16 -8t8 -17q30 6 80 18q111 27 154 36q15 3 78 18q30 7 31 7q15 0 19.5 -8t4.5 -25q0 -11 -27 -23q-21 -9 -53 -16l-206 -48z" />
    <glyph glyph-name="c143" horiz-adv-x="602" 
d="M295 21q-8 -20 -22 -64.5t-17 -61t-5.5 -38.5t-2.5 -40q0 -14 -7 -22t-16 -8q-12 0 -16.5 12t-4.5 35v18t1 19q0 27 14 73.5t26 69.5l-125 -24q-24 -3 -47 -7q-35 0 -35 24q3 28 4.5 41t7.5 46l39 208q6 30 26 129q13 62 18.5 107.5t7.5 63.5q7 48 37 48q13 0 17.5 -8
t4.5 -25q0 -12 -1.5 -34.5t-1.5 -23.5q-3 -33 -33 -165q-17 -76 -27 -128q-13 -67 -26 -137.5t-13 -79.5v-8q1 -1 9 -1q11 0 76 10q38 6 77 12q10 23 17 33q12 18 21 18q15 0 15 -12q0 -8 -4 -18l-6 -15q32 4 63.5 7.5t51.5 3.5q10 86 34 215.5t32 168.5q20 91 41.5 152.5
t40.5 61.5q14 0 18 -6t4 -25l-46 -184q-29 -114 -38.5 -170.5t-19 -114t-9.5 -91.5q0 -7 3 -19t3 -16q0 -7 -8 -11.5t-28 -4.5q-54 0 -150 -14z" />
    <glyph glyph-name="c144" horiz-adv-x="675" 
d="M408 -51l-70 -36q-50 -27 -78 -48q-57 -44 -131.5 -131.5t-74.5 -108.5q0 -17 17 -29t40 -12q33 0 80.5 35t94 92t78.5 122q24 50 44 116zM245 410q68 117 111 180q54 79 70 79q22 0 31 -10.5t9 -30.5q-1 -8 -1 -13q-2 -24 -51 -85q-36 -43 -51 -62l-39 -47q56 7 122 7
q52 0 82 -5t32 -14q3 -20 -13 -26t-49 -6q-59 0 -118 -7q-35 -4 -102 -15q-31 -56 -44.5 -78.5t-29.5 -45.5q37 14 75 22t78 8q33 0 59.5 -17t47.5 -48q15 -22 21 -41.5t6 -42.5q0 -18 -4 -43.5t-7 -39.5q94 44 189 89q13 8 27 8t19 -8q4 -5 0 -17t-12 -17q-46 -29 -113 -63
t-125 -57q-36 -121 -70 -184q-28 -52 -78 -113.5t-106.5 -98t-108.5 -36.5q-44 0 -71.5 24t-27.5 69q0 85 209 262q38 33 97 66.5t111 51.5q2 10 15 52q8 26 8 43q0 19 -12 43q-20 36 -34 47q-21 16 -69 20q-22 0 -66.5 -13.5t-84.5 -37.5q-18 -11 -47 -63
q-59 -104 -64 -104q-14 -1 -21.5 5t-7.5 16q0 16 15.5 49t37.5 64q-16 -9 -32 -22q-20 -17 -39 -33q-14 -9 -24 -9q-13 0 -17.5 8.5t-4.5 13.5q0 12 26 28q11 7 79 55q37 27 53 36l76 139l-49 -9q-20 -4 -56.5 -18.5t-50.5 -14.5q-20 0 -26.5 1.5t-6.5 13.5l2 13
q5 18 70.5 42t154.5 40z" />
    <glyph glyph-name="quoteleft" unicode="&#x2018;" 
d="M188 612q0 35 19.5 71.5t79.5 89.5q32 28 53 41.5t38 13.5q10 0 17.5 -0.5t6.5 -9.5q0 -10 -25 -29q-42 -32 -57 -45q-81 -73 -81 -120q0 -48 33 -48q16 0 23 11t18 11q14 0 19 -3.5t3 -16.5q-3 -23 -20 -40t-45 -17q-49 0 -69 32q-13 21 -13 59z" />
    <glyph glyph-name="quoteright" unicode="&#x2019;" 
d="M385 722q0 -46 -30 -89q-21 -29 -68 -71q-32 -29 -53 -42.5t-38 -13.5h-13q-12 0 -11 10q0 9 14 21q33 26 67 53q43 38 60 61q22 30 22 59q0 48 -34 48q-16 0 -23 -10.5t-18 -10.5q-24 0 -21 19q2 22 20 40t45 18q49 0 68 -33q13 -22 13 -59z" />
    <glyph glyph-name="quotedblleft" unicode="&#x201c;" horiz-adv-x="643" 
d="M416 634q0 47 30 89q21 30 69 71q32 29 53 42.5t38 13.5q10 0 17.5 -0.5t6.5 -9.5q0 -10 -25 -29q-42 -32 -57 -45q-81 -73 -81 -120q0 -48 33 -48q16 0 23 10.5t18 10.5t17.5 -2t4.5 -17q-3 -23 -20.5 -40.5t-44.5 -17.5q-49 0 -69 33q-13 21 -13 59zM170 634
q0 47 30 89q21 30 69 71q32 29 53 42.5t38 13.5q10 0 17.5 -0.5t6.5 -9.5q0 -10 -25 -29q-42 -32 -57 -45q-81 -73 -81 -120q0 -48 33 -48q16 0 23 10.5t18 10.5t17.5 -2t4.5 -17q-3 -23 -20.5 -40.5t-44.5 -17.5q-49 0 -69 33q-13 21 -13 59z" />
    <glyph glyph-name="quotedblright" unicode="&#x201d;" horiz-adv-x="643" 
d="M366 684q0 -37 -18 -71.5t-80 -89.5t-92 -55h-12q-12 0 -12 9q0 10 14 22q34 26 68 53q43 38 60 61q22 30 22 59q0 48 -34 48q-16 0 -23 -11t-18 -11q-13 0 -18 4t-3 16q2 22 19.5 39.5t44.5 17.5q50 0 69 -32q13 -22 13 -59zM612 684q0 -37 -18 -71.5t-80 -89.5t-92 -55
h-12q-12 0 -12 9q0 10 14 22q34 26 68 53q43 38 60 61q22 30 22 59q0 48 -34 48q-16 0 -23 -11t-18 -11q-13 0 -18 4t-3 16q2 22 19.5 39.5t44.5 17.5q50 0 69 -32q13 -22 13 -59z" />
    <glyph glyph-name="bullet" unicode="&#x2022;" horiz-adv-x="569" 
d="M223 310q0 33 26 56t61 23q33 0 56 -26t23 -61q0 -33 -26 -56t-61 -23q-33 0 -56 26t-23 61z" />
    <glyph glyph-name="endash" unicode="&#x2013;" horiz-adv-x="876" 
d="M721 269q0 -19 -11 -24t-42 -5q-32 0 -94.5 -1t-112.5 -1q-67 0 -154.5 -2.5t-95.5 -2.5q-18 0 -28 5t-10 12q0 31 24 31q25 0 111.5 3.5t152.5 3.5q100 0 129 1.5t70 4.5q27 0 44 -4.5t17 -20.5z" />
    <glyph glyph-name="emdash" unicode="&#x2014;" horiz-adv-x="977" 
d="M943 269q0 -19 -11 -24t-42 -5q-30 0 -192 -1t-237 -1q-52 0 -128 -5q-182 -12 -206 -12q-18 0 -28 5t-10 12q0 31 24 31q107 8 195 13.5t153 5.5q102 0 246 6t186 6q22 0 36 -7t14 -24z" />
    <glyph glyph-name="tilde" unicode="&#x2dc;" horiz-adv-x="815" 
d="M847 712q0 -29 -68 -65.5t-141 -36.5q-70 0 -128 74t-112 74q-41 0 -94 -39q-49 -43 -98 -85q-8 0 -12 8t-4 18q0 26 66 81q78 65 152 65q69 0 129.5 -75.5t115.5 -75.5q38 0 83.5 21t91.5 44q19 0 19 -8z" />
    <glyph glyph-name="trademark" unicode="&#x2122;" horiz-adv-x="843" 
d="M833 689q0 -40 -15.5 -99t-30.5 -118q-37 -151 -37 -160v-23q0 -18 -13 -18q-20 0 -26 11t-6 30q0 17 10 61q7 32 27 111q10 39 31 110q14 49 13 58q3 3 3 4.5v4.5q-8 0 -37 -41q-14 -20 -27 -41q-30 -47 -83.5 -127.5t-65.5 -97.5q-14 -28 -23.5 -42t-19.5 -14
q-21 0 -23 12.5t-3 23.5q-4 22 -20 68t-43 109q-11 27 -18 43q-13 27 -18 37q-16 -34 -45 -119q-20 -55 -29 -91q-12 -46 -12 -73q0 -31 -23 -31q-12 -1 -15 4.5t-7 29.5q-2 16 17.5 83.5t40.5 123.5q8 22 21 55q23 58 29 88q3 17 7 35q4 10 21 10q9 0 14.5 -11t4 -23.5
t11.5 -48.5t34 -86q18 -47 34 -84t33 -74l159 238q26 40 55 72q36 40 54 40q10 0 15.5 -12t5.5 -28zM382 690q0 -7 -13.5 -13t-32.5 -12t-25.5 -9t-50.5 -13q-24 -65 -54 -215q-5 -24 -6 -36.5t-1 -32.5v-25.5t1 -27.5v-14q-3 -18 -30 -18q-8 0 -14 7.5t-6 27.5q0 15 2 29
q11 86 22 145q15 82 37 145l-56 -15q-47 -12 -59.5 -14.5t-26.5 -2.5q-30 0 -30 16t11 21q18 5 31 8l231 63q12 3 34 7.5t28 4.5q10 0 10 -9q-2 -10 -2 -17z" />
    <glyph glyph-name="scaron" unicode="&#x161;" horiz-adv-x="904" 
d="M543 149q-17 -24 -17 -25q-7 -12 -7 -28q0 -39 14 -54q18 -20 69 -20q39 0 73 31.5t34 71.5q0 26 -21 37t-58 11q-22 2 -46.5 -5t-40.5 -19zM570 277q0 14 -4 19.5t-20 5.5q-35 0 -106 -61q-20 -17 -121 -114q-60 -59 -92 -83q-52 -39 -90 -39q-64 0 -104 37
q-33 31 -33 61q0 18 4.5 27t21.5 9q13 0 38.5 -40.5t72.5 -40.5q18 0 59.5 31.5t91.5 78.5q91 86 130 116q86 66 142 66q39 0 52 -17q8 -10 8 -33q0 -27 -19 -55q-8 -11 -26 -33q18 5 31 7q26 5 55 5q43 0 72 -25q34 -29 34 -76q0 -17 -4 -29.5t-23 -39.5q50 18 112 58
q22 14 36 14q13 0 20 -10q4 -4 4 -10q0 -12 -30 -30q-51 -30 -96 -52q-63 -30 -104 -38q-40 -19 -80 -19q-77 0 -111 36q-28 30 -28 87q0 25 14 52q8 14 31 48q7 10 30 40q32 42 32 47z" />
    <glyph glyph-name="guilsinglright" unicode="&#x203a;" horiz-adv-x="583" 
d="M109 28q0 7 54 42l118 76q41 27 87 61q18 13 69 53l-87 24q-64 17 -90 25q-40 13 -40 21q0 16 4.5 20.5t20.5 4.5q8 0 50 -9t84 -20q71 -18 96 -29t25 -19q0 -18 -3.5 -26.5t-18.5 -19.5q-22 -18 -74 -56q-61 -45 -91 -67q-74 -52 -111 -75q-54 -33 -74 -33t-20 14
q1 8 1 13z" />
    <glyph glyph-name="oe" unicode="&#x153;" horiz-adv-x="935" 
d="M578 169q-17 -24 -17 -25q-7 -12 -7 -28q0 -39 14 -54q18 -20 69 -20q39 0 73 31.5t34 71.5q0 26 -21 37t-58 11q-22 2 -46.5 -5t-40.5 -19zM531 196q-42 -21 -105.5 -35t-130.5 -14h-54q-19 0 -37 1t-36 4q-27 -50 -53 -99q-27 -43 -53 -43q-17 0 -14 16q2 16 32 68
q22 37 31 56l-96 -66q-12 -8 -26 -8q-11 0 -16 7t-5 13q0 11 12 20q82 53 122 90q18 17 60 59q18 18 59 77q32 45 44 45q10 0 17.5 -0.5t7.5 -6.5l-2 -10q-3 -10 -46 -85q-31 -54 -47 -84q6 -2 28 -3t49 -1h11q14 0 32.5 0.5t36.5 3.5l108 16q109 28 156 94l24 32
q18 22 30 23q17 0 17 -15q0 -5 -2 -22.5t-16 -37.5q-25 -32 -45 -59q17 4 33.5 8t38.5 4q43 0 72 -25q34 -29 34 -76q0 -37 -24 -71q45 13 76 25q21 8 46 21l22.5 12t13.5 4q8 0 13 -8q4 -4 4 -11q0 -16 -29 -33q-42 -25 -103 -46t-107 -26q-17 -12 -37 -17.5t-40 -5.5
q-77 0 -111 36q-28 30 -28 87q0 26 10 48q4 10 23 38z" />
    <glyph glyph-name="c157" horiz-adv-x="696" 
d="M217 229q21 -5 43 -9q52 0 123 36q77 39 101 86q7 17 15 34q12 21 25 21q17 0 22 -9.5t5 -38.5q0 -61 -112 -123q-102 -57 -169 -57q32 -44 79.5 -71.5t102.5 -27.5q57 0 118.5 14.5t112.5 43.5q30 17 36 17t14 -8q5 -5 5 -10q0 -11 -22 -27q-53 -36 -124 -59t-118 -23
q-110 0 -193 59q-60 43 -93 103q-51 -97 -79.5 -130.5t-50.5 -33.5q-5 0 -10.5 4.5t-4.5 10.5q3 18 22 50.5t39 64.5l-88 -58q-27 -17 -39 -17q-7 0 -12 9q-2 6 -2 13q0 17 14 27q71 47 103 74q28 23 77 76q12 13 84 117q23 34 34 34q10 0 17.5 -0.5t7.5 -6.5l-2 -10
q-6 -20 -26 -64q-24 -53 -55 -111zM729 728q17 -6 17 -14q0 -4 -4.5 -14t-35.5 -36q-40 -33 -120 -88q-53 -38 -108 -76t-72 -32q-23 7 -23 19q0 3 5.5 12.5t86.5 61.5q54 35 79 52q31 21 82 57q85 61 93 58z" />
    <glyph glyph-name="c158" horiz-adv-x="780" 
d="M210 343l-52 -10q-20 -4 -56.5 -18.5t-50.5 -14.5q-20 0 -26.5 1.5t-6.5 13.5l2 13q4 18 70 41.5t157 39.5q66 116 110 181q53 79 69 79q22 0 31 -10.5t9 -30.5q-1 -8 -1 -13q-2 -24 -51 -85q-36 -43 -51 -62l-39 -48q66 8 122 8q52 0 82 -5t32 -14q3 -20 -13 -26t-49 -6
q-59 0 -118 -7q-35 -4 -100 -15l-76 -124q90 45 153.5 60t130.5 15q51 0 66 -27q8 -14 8 -50q0 -22 -10.5 -60t-10.5 -55q0 -27 21 -41.5t50 -14.5q54 0 115 32q59 37 74 45q1 1 20 11q11 6 17 6q8 0 12.5 -7.5t4.5 -12.5q0 -15 -28 -31q-101 -61 -122 -68q-44 -15 -103 -15
q-57 0 -93 27q-31 23 -31 50q0 28 12 75t12 59q0 13 -7 21t-22 8q-84 0 -193 -48q-71 -34 -102 -48q-18 -12 -78 -123q-25 -47 -34 -47q-14 -1 -21.5 5t-7.5 16q0 16 15.5 49t37.5 64q-19 -11 -42 -27q-18 -13 -29 -20.5t-21 -13t-16 -5.5q-7 0 -10 6t-3 12q0 8 6.5 17
t20.5 17l134 84z" />
    <glyph glyph-name="Ydieresis" unicode="&#x178;" horiz-adv-x="1027" 
d="M1051 94q-57 -33 -86 -44q-51 -20 -106 -20q-95 0 -150 19q-32 11 -111 79q-62 -37 -123 -74q-89 -43 -189 -43q-106 0 -155 53q-34 37 -34 86q-19 -20 -41 -36q-4 -3 -49 -31q-6 -3 -13 -3q-17 0 -23 12q-2 5 2 15.5t14 17.5l24 15q29 19 55 50q40 57 65 89q47 61 75 65
q14 2 20.5 -8.5t6.5 -27.5q0 -10 -35 -51t-35 -97q0 -52 38 -77q29 -19 77 -19q97 0 175 35q62 28 113 80q33 32 79 95q32 44 46 44q16 0 29.5 -4t13.5 -15q0 -42 -38 -89q-21 -25 -41 -50q21 -35 59 -54q55 -28 143 -28q35 0 77 13t85 41q14 10 27 10t20 -10q4 -7 4 -14
q0 -14 -19 -24zM658 -8q0 -37 -18 -71.5t-80 -89.5t-92 -55h-12q-12 0 -12 9q0 10 14 22q34 27 68 53q43 38 60 61q22 30 22 59q0 48 -34 48q-16 0 -23 -11t-18 -11q-13 0 -18 4t-3 16q2 22 19.5 39.5t44.5 17.5q50 0 69 -32q13 -22 13 -59z" />
    <glyph glyph-name="nonbreakingspace" unicode="&#xa0;" horiz-adv-x="662" 
d="M510 738q-16 3 -16 26q0 14 4 30t12 41q16 54 31.5 73.5t34.5 19.5q15 0 13 -18q0 -13 -9 -35.5t-17 -41.5l-18 -64q-13 -34 -35 -31zM380 820q-14 -40 -33.5 -70t-32.5 -30q-19 2 -19 24q0 19 16 50q9 18 19 36q14 30 28 61q17 32 35 32q20 0 20 -16t-11.5 -40.5
t-21.5 -46.5z" />
    <glyph glyph-name="exclamdown" unicode="&#xa1;" horiz-adv-x="566" 
d="M640 662q-7 -34 -39 -94q-28 -53 -67 -112q-11 -18 -37 -59q-42 -67 -69 -104q-63 -92 -92 -135q-42 -62 -69 -106.5t-33 -63.5t-9 -26q-9 -22 -29 -22q-16 0 -19 11t-3 39q0 13 34 71.5t105 166.5q-16 23 -47 67q-50 70 -92 133q-64 96 -92.5 128t-44.5 30t-25 7
q-12 13 -12 36q0 14 10.5 23.5t24.5 9.5q25 0 78 -57q47 -51 97 -126q37 -57 76 -115t63 -88q16 23 64.5 98t74.5 118q37 61 58 100q28 54 36 87q3 15 11 23.5t20 5.5q13 -3 21 -18t6 -28zM610 853q12 0 12 -21q0 -16 -32.5 -40t-87.5 -49q-72 -34 -106 -48
q-67 -27 -101 -27q-39 0 -69 26t-30 61q0 24 9.5 36t22.5 12q17 0 22 -16q1 -5 4 -32q3 -16 16 -23.5t34 -7.5q33 0 90.5 25.5t71.5 31.5q42 18 95 47q46 25 49 25z" />
    <glyph glyph-name="cent" unicode="&#xa2;" horiz-adv-x="667" 
d="M602 295q-5 -28 -50 -100q-15 -24 -89 -133q52 11 96 25q58 19 90 38q20 12 31 12q10 0 17 -10q4 -6 4 -11t-3 -11t-19 -16q-34 -21 -121 -55t-128 -44q-52 -94 -149 -249q-62 -96 -109 -143q-57 -56 -107 -56q-48 0 -66 20q-21 23 -21 73q0 66 48 126q32 40 116 109
q63 52 129 95q76 47 120 75l36 66q-45 -17 -71 -25q-81 -26 -118 -26q-65 0 -92.5 13.5t-29.5 33.5q0 12 1.5 32t1.5 22q-32 -22 -47.5 -32.5t-55.5 -34.5q-12 -7 -26 -7q-11 0 -16.5 6t-5.5 14q0 12 13 20q18 12 80 45q43 23 66 41q7 43 32 68t49 25q17 0 23.5 -5.5
t6.5 -30.5q0 -18 -30 -49t-30 -53q-1 -17 -1 -25q0 -17 8 -25.5t33 -8.5q87 0 142 28q31 16 114 85q18 15 52 73q26 44 52 44q12 0 19 -12.5t5 -26.5zM362 -24q-18 -17 -71 -54q-61 -42 -116 -88q-91 -76 -98 -84q-43 -48 -43 -117q0 -24 17 -32q8 -4 26 -4q24 0 71.5 49.5
t89.5 113.5q34 52 86 149q22 41 38 67zM704 537q12 0 12 -21q0 -16 -32.5 -40t-87.5 -49q-72 -34 -106 -48q-67 -27 -101 -27q-39 0 -69 26t-30 61q0 24 9.5 36t22.5 12q17 0 22 -16q1 -5 4 -32q3 -16 16 -23.5t34 -7.5q33 0 90.5 25.5t71.5 31.5q42 18 95 47q46 25 49 25z
" />
    <glyph glyph-name="sterling" unicode="&#xa3;" horiz-adv-x="600" 
d="M612 595q-28 -36 -38 -72.5t-10 -109.5q0 -54 -25.5 -141t-53.5 -126q-40 -55 -88 -79t-116 -24q-85 0 -165 47.5t-80 101.5q0 24 22 24q34 -43 88 -76q61 -37 154 -37q55 0 91 24.5t63 83.5q24 54 42 133.5t18 135.5q0 48 9 72.5t29 42.5q-37 0 -128 -13
q-55 -8 -111 -15.5t-121.5 -21t-133.5 -27.5q-34 3 -34 22q0 29 156 58q60 11 150.5 23.5t185.5 19.5t142 7q6 0 30 2t38 2q35 0 35 -11q1 -9 1 -12q0 -13 -24 -18.5t-126 -15.5z" />
    <glyph glyph-name="yen" unicode="&#xa5;" horiz-adv-x="460" 
d="M558 632h-62q-75 0 -123 -7t-155 -37q-12 -25 -40 -106q-9 -25 -51 -148q-33 -89 -46 -127q-20 -58 -53 -183q-8 -22 -12 -28q-7 -10 -22 -13q-10 -1 -16.5 6.5t-6.5 12.5q0 22 11 65t29 97l135 402q-9 -3 -22.5 -6t-20.5 -3q-24 0 -24 18q0 5 1 8q7 29 143 63
q146 37 283 37q11 -2 22 -2q19 0 31 5t17 22q26 85 38 116q24 60 40 60q5 0 12 -5t6 -15q0 -30 -17 -87t-35 -113q3 -20 -13 -26t-49 -6z" />
    <glyph glyph-name="brokenbar" unicode="&#xa6;" horiz-adv-x="535" 
d="M329 208q0 -13 -36.5 -87t-72.5 -146q-42 -87 -47.5 -115t-14.5 -34q-14 -3 -21 -4q-5 1 -7 2q-17 9 -15 25q4 26 44 118.5t84.5 179t54.5 86.5q31 0 31 -25zM379 389q46 83 74 135q53 97 85 162q14 35 19 47q13 32 36 30q10 0 10 -12q-3 -20 -3 -33q0 -30 -96 -207
q-59 -106 -77 -139q-5 -9 -16 -16t-17 -6q-9 2 -13 11.5t-4 17.5q0 7 2 10z" />
    <glyph glyph-name="section" unicode="&#xa7;" horiz-adv-x="549" 
d="M547 286q0 -86 -91 -146q-72 -48 -121 -48q-26 0 -69 9q-14 3 -38 9l89 -110q26 -33 37 -69t11 -81q0 -63 -56 -94q-47 -26 -119 -26q-40 0 -82 32t-42 56q0 8 9 19t19 11q9 0 14.5 -7.5t11.5 -16.5q20 -20 32 -28q24 -16 51 -16q41 0 71 17q40 23 40 67q0 24 -6 40
q-9 24 -45 81q-14 21 -76 96q-89 107 -89 187q0 95 56 154q68 72 156 72q41 0 41 -26q0 -21 -23.5 -24t-39.5 -4q-49 -8 -84 -40q-48 -44 -48 -120q0 -59 31 -95q38 -44 121 -44q65 0 121 41q61 44 61 104q0 61 -42 140q-34 64 -94 137q-42 53 -54 75q-22 41 -22 94
q0 37 42 69q50 38 127 38q36 0 89.5 -26.5t53.5 -52.5q0 -10 -7 -18.5t-11 -8.5q-23 0 -43 18q-47 42 -108 42q-26 0 -56.5 -22t-30.5 -48q0 -31 41 -89q100 -143 105 -150q43 -64 57 -114q10 -35 10 -84z" />
    <glyph glyph-name="dieresis" unicode="&#xa8;" horiz-adv-x="754" 
d="M804 679q3 -19 -71 -31q-153 -25 -171 -29.5t-139 -31.5q-147 -33 -197 -49q-19 -55 -37 -109q-22 -66 -38 -127q91 26 245 57q133 26 173 30q26 0 34.5 -4t8.5 -23q0 -8 -22 -12t-45 -7q-127 -27 -219 -52q-118 -32 -192 -61q-14 -28 -27 -72t-13 -64q0 -16 9.5 -23
t23.5 -9q52 0 94.5 3.5t82.5 10t195 35.5q102 19 123 19q26 -2 26 -22q1 -5 -9.5 -9.5t-36.5 -12.5q-43 -12 -132 -29.5t-149.5 -26.5t-123 -16t-91.5 -7q-32 0 -48.5 14.5t-16.5 38.5q0 43 20 113q2 6 37 115q7 22 48 157q15 51 24 73q-19 0 -31 5.5t-12 16.5q0 4 3 10
q11 18 67.5 33t115.5 31q61 21 178 42q53 10 134 23q58 12 77 15q50 9 73 9q17 0 22 -5t7 -19zM510 738q-16 3 -16 26q0 14 4 30t12 41q16 54 31.5 73.5t34.5 19.5q15 0 13 -18q0 -13 -9 -35.5t-17 -41.5l-18 -64q-13 -34 -35 -31zM380 820q-14 -40 -33.5 -70t-32.5 -30
q-19 2 -19 24q0 19 16 50q9 18 19 36q14 30 28 61q17 32 35 32q20 0 20 -16t-11.5 -40.5t-21.5 -46.5z" />
    <glyph glyph-name="copyright" unicode="&#xa9;" horiz-adv-x="859" 
d="M774 426q0 -140 -102 -239t-243 -99q-139 0 -237.5 101.5t-98.5 243.5q0 140 100.5 238.5t243.5 98.5q140 0 238.5 -101.5t98.5 -242.5zM721 422q0 119 -83.5 201.5t-202.5 82.5q-120 0 -205 -78t-85 -196q0 -120 84 -206t204 -86q121 0 204.5 81.5t83.5 200.5zM616 385
q0 -23 -67 -76q-76 -60 -135 -60q-65 0 -100.5 47t-35.5 113q0 79 52.5 140.5t115.5 61.5q28 0 45 -10t15 -24q0 -17 -11 -20.5t-53 -3.5q-37 0 -73 -46t-36 -93q0 -59 26 -89q23 -26 62 -26q37 0 82.5 36.5t92.5 75.5q17 2 19 -4q0 -12 1 -22z" />
    <glyph glyph-name="ordfeminine" unicode="&#xaa;" horiz-adv-x="683" 
d="M116 340q48 95 176 182q115 78 174 78q41 0 53 -15q8 -10 8 -37q0 -10 6 -17t15 -5q19 0 33.5 20t14.5 40q0 41 -27 55t-91 14q-76 0 -181.5 -60t-178.5 -147q-82 -99 -82 -191q0 -143 116 -208q91 -51 248 -51q77 0 179 35q83 28 128 58q15 10 15 23q0 7 -3 10
q-5 9 -7 9q-6 0 -32 -11q-73 -31 -100 -41q-92 -33 -150 -33q-176 0 -255 70q-67 59 -67 166q27 0 195 -3t230 -3q79 0 79 14q0 19 -6.5 31.5t-22.5 12.5q-47 0 -81 -1q-169 -5 -173 -5h-28q-15 2 -20 2q-75 0 -103.5 1.5t-61.5 6.5z" />
    <glyph glyph-name="guillemotleft" unicode="&#xab;" horiz-adv-x="672" 
d="M460 338q-1 -7 -57.5 -43.5t-114.5 -74.5q-41 -27 -87 -61q-18 -13 -69 -53l88 -24q64 -17 90 -25q40 -13 40 -21q0 -25 -25 -25q-9 0 -49 8.5t-88.5 21t-62.5 16.5q-57 17 -57 31q0 28 20.5 44.5t76.5 58t91 66.5q73 52 111 75q54 33 73 33q21 0 21 -15q-1 -7 -1 -12z
M652 290q-1 -7 -12 -13q-37 -22 -78.5 -49t-84.5 -59q-24 -18 -69 -54l88 -24q76 -20 90 -24q40 -13 40 -21q0 -15 -5 -19.5t-20 -6.5q-12 0 -62.5 12t-72.5 17q-76 20 -99 30t-23 18q0 29 23 47q32 25 74.5 56.5t90.5 65.5t62.5 42.5t26.5 8.5h11q21 0 21 -15q-1 -7 -1 -12
z" />
    <glyph glyph-name="logicalnot" unicode="&#xac;" horiz-adv-x="876" 
d="M721 269q0 -6 2.5 -38.5t2.5 -42.5q0 -23 -4.5 -37t-15.5 -14q-19 0 -28.5 16t-9.5 65v23l-207 -3q-67 0 -154.5 -2.5t-95.5 -2.5q-18 0 -28 5t-10 12q0 31 24 31q25 0 111.5 3.5t152.5 3.5q100 0 129 1.5t70 4.5q27 0 44 -4.5t17 -20.5z" />
    <glyph glyph-name="minus" unicode="&#xad;" horiz-adv-x="876" 
d="M721 269q0 -19 -11 -24t-42 -5q-32 0 -94.5 -1t-112.5 -1q-67 0 -154.5 -2.5t-95.5 -2.5q-18 0 -28 5t-10 12q0 31 24 31q25 0 111.5 3.5t152.5 3.5q100 0 129 1.5t70 4.5q27 0 44 -4.5t17 -20.5z" />
    <glyph glyph-name="registered" unicode="&#xae;" horiz-adv-x="802" 
d="M586 341q0 -18 -13 -25.5t-38 -7.5q-37 0 -78 25q-51 31 -104 99q0 -30 3.5 -56t3.5 -27q2 -10 2 -18.5v-15.5q0 -22 -6.5 -28.5t-24.5 -6.5q-20 0 -26.5 23.5t-6.5 58.5v14q0 25 -1 59t-1 57q0 55 34 91t80 36q8 1 11 1q35 0 62.5 -19t27.5 -51q0 -35 -17.5 -55.5
t-80.5 -40.5q53 -92 129 -92q14 2 21 2q10 0 16 -4.5t7 -18.5zM451 547q0 16 -10.5 19t-30.5 3q-19 0 -35 -14t-20.5 -27.5t-4.5 -32.5v-8v-2q57 8 70 13q31 13 31 49zM758 430q0 -143 -102 -242t-246 -99q-142 0 -241 102t-99 246q0 141 102 241t246 100
q141 0 240.5 -102.5t99.5 -245.5zM704 426q0 120 -84 204t-205 84t-207 -79.5t-86 -198.5q0 -121 85.5 -207.5t205.5 -86.5q122 0 206.5 81.5t84.5 202.5z" />
    <glyph glyph-name="macron" unicode="&#xaf;" horiz-adv-x="407" 
d="M326 564q-50 -187 -82 -308q-35 -132 -35 -182q0 -37 -6.5 -50.5t-27.5 -13.5q-16 0 -20 19t-4 31v18.5t1 15.5q0 74 45 216l62 196q9 42 19 84q10 34 27 34q13 0 18 -9t5 -24v-13q-2 -10 -2 -14zM406 640q-16 3 -16 26q0 14 4 30t12 41q16 54 31.5 73.5t34.5 19.5
q15 0 13 -18q0 -13 -9 -35.5t-17 -41.5l-18 -64q-13 -34 -35 -31zM276 722q-14 -40 -33.5 -70t-32.5 -30q-19 2 -19 24q0 19 16 50q9 18 19 36q14 30 28 61q17 32 35 32q20 0 20 -16t-11.5 -40.5t-21.5 -46.5z" />
    <glyph glyph-name="degree" unicode="&#xb0;" horiz-adv-x="398" 
d="M434 799q0 -69 -81 -106q-61 -28 -123 -28q-47 0 -79 21.5t-32 59.5q0 61 72 118q67 53 120 53q77 0 105 -36q18 -23 18 -66v-16zM386 806q0 25 -24.5 42.5t-51.5 17.5q-40 0 -86 -32q-54 -38 -54 -85q0 -13 18.5 -24.5t37.5 -11.5q52 0 99 21q61 27 61 72z" />
    <glyph glyph-name="plusminus" unicode="&#xb1;" horiz-adv-x="1200" 
d="M811 383q-67 -10 -112.5 -13t-110.5 -12q-8 -30 -9 -60.5t-1 -53.5v-26q0 -79 10 -119q11 -27 22 -53q0 -18 -6 -32t-19 -14q-17 0 -25.5 10t-12.5 31q-19 107 -21 120q-6 45 -6 88q0 41 6 92l-185 -31q-51 -10 -91 -16t-63 -6q-26 0 -34.5 2.5t-8.5 16.5q0 23 12 28
t86 15q9 1 133 23q49 9 148 23q21 109 43 218q33 149 53 149q12 0 15.5 -6t3.5 -18v-12q0 -2 -10 -53q-26 -132 -31.5 -171.5t-9.5 -78.5q0 -6 -1 -18l127 16q90 11 131 14.5t80 3.5h26q34 0 48.5 -5.5t14.5 -18.5q0 -22 -68.5 -26t-133.5 -7zM908 -104q0 -12 -17.5 -19
t-42.5 -10q-73 -9 -200 -15.5t-306 -6.5h-23q-27 0 -27 19q-1 14 10.5 18.5t30.5 4.5h23q129 0 223.5 4t187.5 12q35 3 81 18q19 6 32 6q28 0 28 -31z" />
    <glyph glyph-name="twosuperior" unicode="&#xb2;" horiz-adv-x="407" 
d="M326 564q-50 -187 -82 -308q-35 -132 -35 -182q0 -37 -6.5 -50.5t-27.5 -13.5q-16 0 -20 19t-4 31v18.5t1 15.5q0 74 45 216l62 196q9 42 19 84q10 34 27 34q13 0 18 -9t5 -24v-13q-2 -10 -2 -14z" />
    <glyph glyph-name="threesuperior" unicode="&#xb3;" horiz-adv-x="500" 
d="M575 518q-16 -6 -32 9.5t-16 29.5q0 13 1 17.5t8.5 11t17.5 6.5q12 0 21 -6q18 -11 18 -37q0 -23 -18 -31zM526 101q-71 -45 -122 -66t-85 -21q-78 0 -107 32q-25 27 -25 92q0 16 4 36.5t8 39.5q-45 -32 -71 -49q-77 -53 -115 -75q-17 -10 -32 -10q-8 0 -11.5 5t-3.5 11
q0 13 17 26q82 61 222 149q22 13 72 62q43 41 64 44q15 1 19.5 -3.5t4.5 -16.5v-16q-46 -56 -81 -99q-39 -49 -39 -94t19.5 -66.5t64.5 -21.5q28 0 99 38l60 35q26 17 46 17q9 0 13 -5.5t4 -10.5q0 -8 -7.5 -17.5t-17.5 -15.5z" />
    <glyph glyph-name="acute" unicode="&#xb4;" horiz-adv-x="581" 
d="M128 -8q-11 0 -16.5 7.5t-7.5 19.5q-3 21 22 61q7 10 64 95q-26 -14 -94 -44q-53 -23 -79 -41q-21 -13 -34 -13q-11 0 -17 9q-5 7 1 19t13 16q20 13 144 73q60 29 102 56q27 25 52 59q29 40 56 40q5 0 49 -17t64 -17q47 0 81 9.5t48.5 27.5t48.5 63q48 65 59 65
q16 0 27 -3t9 -15q0 -21 -36 -70q-26 -35 -78 -92q-18 -20 -65.5 -32.5t-90.5 -12.5q-25 0 -58.5 7t-55.5 17q-22 -28 -44 -55q-18 -23 -34 -50q-44 -76 -87 -151q-22 -31 -43 -31z" />
    <glyph glyph-name="paragraph" unicode="&#xb6;" horiz-adv-x="504" 
d="M518 734q0 -6 -22 -73q-26 -80 -52 -159q-40 -125 -61 -195.5t-59.5 -211t-57.5 -203.5q-27 -87 -36 -88q-19 0 -23.5 3.5t-4.5 20.5q0 19 21 100q17 65 54 194q27 95 70 234q60 199 78 254q53 158 72 158q10 0 16.5 -10t4.5 -24zM386 763q-44 -27 -87 -54
q-87 -56 -87 -84q0 -19 48 -97q23 -37 23 -68q0 -41 -44 -202q-39 -141 -86.5 -285.5t-56.5 -144.5q-16 0 -22.5 2t-6.5 20q0 24 42 166l78 262q43 148 43 176q0 33 -34 85t-34 79q0 37 27 70t74.5 60t56.5 32q34 18 45 17q13 0 18 -9.5t3 -24.5z" />
    <glyph glyph-name="periodcentered" unicode="&#xb7;" horiz-adv-x="456" 
d="M296 170q-12 -11 -30 -11q-26 0 -41.5 18t-15.5 39t15 36q14 11 32 11q17 0 33 -11q21 -17 21 -47q0 -22 -14 -35z" />
    <glyph glyph-name="periodcentered" unicode="&#x2219;" horiz-adv-x="456" 
d="M296 170q-12 -11 -30 -11q-26 0 -41.5 18t-15.5 39t15 36q14 11 32 11q17 0 33 -11q21 -17 21 -47q0 -22 -14 -35z" />
    <glyph glyph-name="cedilla" unicode="&#xb8;" horiz-adv-x="400" 
d="M428 102q-65 -43 -136 -70q-86 -33 -158 -33q-43 0 -70.5 23.5t-38.5 69.5q-3 -3 -12.5 -6t-19 -7t-21.5 -4q-14 0 -19 9q-4 5 0 16t15 18t26.5 13t22.5 11q0 22 0.5 41.5t6.5 54t31 61.5q35 37 97 37q35 0 62 -21q33 -25 33 -69q0 -40 -72 -83q-29 -17 -100 -48
q10 -32 26 -46.5t50 -14.5q75 0 148 30q41 17 101 54q8 6 14 8.5t14 2.5q9 0 17 -9q5 -6 0 -18.5t-17 -19.5zM190 245q-4 23 -13 31q-12 11 -33 11q-59 0 -73 -71q-2 -11 -3 -30.5t-1 -29.5q67 30 75 35q51 29 48 54zM230 428q-16 3 -16 26q0 14 4 30t12 41q16 54 31.5 73.5
t34.5 19.5q15 0 13 -18q0 -13 -9 -35.5t-17 -41.5l-18 -64q-13 -34 -35 -31zM130 510q-14 -40 -33.5 -70t-32.5 -30q-19 2 -19 24q0 19 16 50q9 18 19 36q14 30 28 61q17 32 35 32q20 0 20 -16t-11.5 -40.5t-21.5 -46.5z" />
    <glyph glyph-name="onesuperior" unicode="&#xb9;" horiz-adv-x="1500" 
d="M1351 499q0 -99 -65 -134q-47 -25 -160 -25q-86 0 -124 18q-56 27 -56 102q0 68 82 122.5t172 54.5q64 0 103 -29q48 -36 48 -109zM1478 270q0 -15 -8 -22t-44 -7q-44 0 -144.5 -1t-105.5 -1q-75 0 -191 -8.5t-143 -8.5q-16 0 -27 5.5t-11 11.5q0 31 24 31
q109 8 197 13.5t151 5.5q52 0 95 3q129 9 157 9q22 0 36 -7t14 -24zM888 688q-2 -21 -49 -92q-73 -110 -99 -157q-92 -163 -115 -208q-67 -131 -67 -178q0 -22 -6 -33q-9 -16 -31 -16q-29 0 -31 22t-4 32q-6 32 -38 121.5t-68 175.5l-66 147q-15 -29 -36 -83.5t-46 -128.5
q-34 -96 -57 -172q-30 -101 -30 -142q0 -20 -9.5 -28.5t-25.5 -8.5q-18 0 -21 8l-4 36q-3 24 39 159q35 110 74 218q1 2 47 122q28 72 37 118q4 26 9 52q6 16 31 16q11 1 17.5 -15t5 -33.5t13 -63.5t63.5 -165l105 -259q25 56 62 133q48 101 83 161q74 126 121 201
q59 93 70 94q22 3 24 -5.5t2 -27.5zM1296 484q0 42 -15 66q-25 39 -88 39q-48 0 -113 -38q-74 -43 -74 -89q0 -39 43 -57q31 -13 77 -13q90 0 133 27q37 23 37 65z" />
    <glyph glyph-name="ordmasculine" unicode="&#xba;" horiz-adv-x="622" 
d="M167 153q4 -38 50 -66.5t117 -28.5q84 0 149 17t123 52q19 11 33 11q8 0 12.5 -6.5t4.5 -14.5q0 -12 -19 -23q-101 -59 -155.5 -71.5t-149.5 -12.5q-107 0 -164 46q-29 23 -62 86l-89 -50q-12 -7 -24 -7q-7 0 -10 4q-6 8 -6 16q0 10 9 15q23 16 52 36q34 24 68 49
q3 38 80 96q84 63 158 63q51 0 88 -22q32 -19 30 -35q-3 -22 -11.5 -33t-28.5 -11q-18 0 -38 25t-42 25q-39 0 -96.5 -34.5t-77.5 -78.5q27 -9 64 -9q24 0 36 3.5t50.5 17.5t58.5 14q22 0 40 -12t16 -25q-1 -13 -23 -13q-22 2 -30 2q-10 0 -59 -18q-27 -10 -41 -10
q-10 0 -33 -1t-35 -1q-29 0 -45 5z" />
    <glyph glyph-name="guillemotright" unicode="&#xbb;" horiz-adv-x="708" 
d="M626 88q0 -10 -38 -24q-29 -11 -80.5 -23.5t-67.5 -16.5q-55 -13 -70 -13q-26 0 -26 25q0 8 55 24.5t76 21.5l88 24q-45 35 -88.5 66.5t-67.5 47.5q-86 54 -118 75q-54 35 -54 43q-1 9 -1 13q0 14 20 14q19 0 73 -33q45 -28 112 -75q45 -33 92 -67.5t73 -55.5
q13 -10 17.5 -20t4.5 -26zM350 97q0 -9 -38 -23q-31 -11 -83 -25q-43 -10 -84 -19.5t-51 -9.5q-16 2 -21 6t-5 20q0 9 60 26q32 9 71 19l88 24q-45 36 -89 68q-38 28 -67 46q-34 23 -65 41q-23 13 -23 20q-1 9 -1 13q0 14 20 14h11q14 0 26 -7t64 -44l165 -122
q13 -10 17.5 -20t4.5 -27z" />
    <glyph glyph-name="onequarter" unicode="&#xbc;" horiz-adv-x="438" 
d="M689 587q-11 -8 -23 -8q-17 0 -25 15q-3 8 -3 14q0 7 3.5 17.5t15 15t19.5 4.5q5 0 13 -3q14 -8 14 -26q0 -20 -14 -29zM-200 -378q0 56 18.5 98.5t105.5 140.5q44 49 106 91q54 37 140 80q18 54 38 103q16 41 40 93q-118 -71 -235 -142q-17 -11 -29 -11q-10 0 -16 8
t-6 14q0 10 14 19q38 25 99 63q36 22 117 72q56 34 66 41q31 21 54 43q43 48 60 66q29 30 53 30q16 0 21 -9.5t5 -26.5q-3 -28 -68 -85q-42 -37 -61 -62q-31 -38 -57 -96q-20 -45 -37 -100l96 32q70 26 104 49q23 16 41 16q11 0 14.5 -6.5t3.5 -11.5q0 -14 -31.5 -37
t-117.5 -52q-64 -22 -128 -43q-8 -20 -41 -122q-50 -155 -103 -230q-43 -62 -70 -82q-34 -26 -87 -26q-50 0 -79.5 22.5t-29.5 60.5zM149 -25q-74 -44 -121 -80q-40 -31 -76 -70q-55 -61 -78.5 -105t-23.5 -84q0 -18 8 -25q14 -11 57 -11q31 0 62 28q38 35 82 116
q26 49 53 126q18 53 37 105z" />
    <glyph glyph-name="onehalf" unicode="&#xbd;" horiz-adv-x="720" 
d="M686 530q2 -18 2 -24q0 -24 -26 -24q-19 0 -20.5 8.5t-3.5 18.5q-8 35 -78 54.5t-150 19.5q-104 0 -163.5 -27t-59.5 -71q0 -49 108 -91q12 -5 127 -44q106 -34 172 -84q80 -61 80 -129q0 -71 -113 -109q-95 -32 -230 -32q-95 0 -187 35q-106 40 -106 96q0 31 24 31
q17 0 34 -31q12 -23 76 -48q81 -32 178 -32q11 -1 17 -1q73 0 155 26q95 30 95 70q0 47 -70 88q-49 29 -163 70q-163 59 -183 69q-85 45 -85 117q0 48 57 90q82 60 248 60q94 0 174 -28q91 -32 91 -78z" />
    <glyph glyph-name="threequarters" unicode="&#xbe;" horiz-adv-x="708" 
d="M722 95q-58 -38 -97 -56q-70 -33 -122 -33q-195 0 -281 53q-23 14 -96 103q-14 -10 -45 -30q-58 -37 -67 -43q-20 -14 -34 -14q-10 0 -13 5t-3 11q0 16 16 28q35 24 61 41.5t51 36.5q36 28 103 85q31 26 60.5 51.5t92.5 81.5q104 93 119 93q24 0 24 -22q0 -14 -24 -39
q-9 -10 -84 -74q65 -44 100 -81q51 -54 51 -106q0 -33 -14 -60q-20 -39 -63 -60q19 -5 32.5 -6t25.5 -1q37 0 90 23q27 12 84 44q19 11 27 15q15 7 25 7q8 0 11 -5t3 -10q0 -9 -9 -19t-24 -19zM476 179q0 40 -44.5 79.5t-89.5 78.5q-34 -26 -81 -65q-70 -58 -92 -76
q25 -39 88.5 -76t103.5 -37q45 0 80 27t35 69z" />
    <glyph glyph-name="questiondown" unicode="&#xbf;" horiz-adv-x="500" 
d="M551 515q-16 -6 -32 9.5t-16 29.5q0 13 1 17.5t8.5 11t17.5 6.5q12 0 21 -6q18 -11 18 -37q0 -23 -18 -31zM526 101q-71 -45 -122 -66t-85 -21q-78 0 -107 32q-25 27 -25 92q0 16 4 36.5t8 39.5q-45 -32 -71 -49q-77 -53 -115 -75q-17 -10 -32 -10q-8 0 -11.5 5t-3.5 11
q0 13 17 26q82 61 222 149q22 13 72 62q43 41 64 44q15 1 19.5 -3.5t4.5 -16.5v-16q-46 -56 -81 -99q-39 -49 -39 -94t19.5 -66.5t64.5 -21.5q28 0 99 38l60 35q26 17 46 17q9 0 13 -5.5t4 -10.5q0 -8 -7.5 -17.5t-17.5 -15.5zM362 524q-16 -6 -32 9.5t-16 29.5q0 13 1 17.5
t8.5 11t17.5 6.5q12 0 21 -6q18 -11 18 -37q0 -23 -18 -31z" />
    <glyph glyph-name="Agrave" unicode="&#xc0;" horiz-adv-x="650" 
d="M607 103q0 -36 -7 -53t-29 -14q-21 3 -28 26.5t-7 69.5q0 16 1 53t1 57q-34 -5 -67 -10q-68 -10 -157 -22q-117 -16 -180 -23q-4 -6 -53 -99q-32 -61 -45 -62q-34 0 -34 22q0 14 39 90q12 23 41 78q42 82 111 188q95 146 175 232q105 113 174 113q39 0 56 -33
q14 -28 14 -78q0 -16 -11 -108q-6 -50 -6 -79q0 -71 -1 -109q-4 -150 -4 -176q0 -13 8.5 -33.5t8.5 -29.5zM535 298q2 33 3.5 81t1.5 67q0 37 6 86q13 107 13 111q0 23 -6 35.5t-20 12.5q-43 0 -132 -103q-70 -81 -152 -203q-62 -93 -91 -145z" />
    <glyph glyph-name="Agrave" unicode="&#x410;" horiz-adv-x="650" 
d="M607 103q0 -36 -7 -53t-29 -14q-21 3 -28 26.5t-7 69.5q0 16 1 53t1 57q-34 -5 -67 -10q-68 -10 -157 -22q-117 -16 -180 -23q-4 -6 -53 -99q-32 -61 -45 -62q-34 0 -34 22q0 14 39 90q12 23 41 78q42 82 111 188q95 146 175 232q105 113 174 113q39 0 56 -33
q14 -28 14 -78q0 -16 -11 -108q-6 -50 -6 -79q0 -71 -1 -109q-4 -150 -4 -176q0 -13 8.5 -33.5t8.5 -29.5zM535 298q2 33 3.5 81t1.5 67q0 37 6 86q13 107 13 111q0 23 -6 35.5t-20 12.5q-43 0 -132 -103q-70 -81 -152 -203q-62 -93 -91 -145z" />
    <glyph glyph-name="Aacute" unicode="&#xc1;" horiz-adv-x="595" 
d="M166 418q29 12 69 19t71 7t61 -6.5t66 -19.5q56 -19 96.5 -58.5t54.5 -95.5q3 -9 4 -23t1 -16q0 -67 -56.5 -123.5t-155.5 -84.5q-59 -18 -135 -18q-71 0 -124 17t-65 52q-6 -21 -8 -23q-7 -10 -26 -14q-10 -1 -16.5 6.5t-6.5 12.5q0 16 12.5 54t25.5 77q25 81 45 139
q26 77 52.5 154.5t40.5 120.5q-10 -3 -23.5 -6t-20.5 -3q-23 0 -23 17q0 6 2.5 17t124.5 49t207 46q46 4 92 7t94 3q55 0 85 -3.5t32 -11.5q2 -19 -14 -25t-49 -6q-76 0 -212 -12q-65 0 -117 -15q-53 -18 -106 -35q-12 -26 -37 -90t-41 -109zM72 122q11 1 19 -9q4 -5 11 -24
q5 -18 52.5 -28.5t103.5 -10.5q64 0 97 10q63 18 114 59q62 50 62 105q0 8 -4 26q-13 37 -41 69q-33 37 -77 53q-57 19 -134 19q-28 0 -68 -10q-3 -1 -59 -17q-17 -55 -49 -158q-19 -61 -27 -84z" />
    <glyph glyph-name="Aacute" unicode="&#x411;" horiz-adv-x="595" 
d="M166 418q29 12 69 19t71 7t61 -6.5t66 -19.5q56 -19 96.5 -58.5t54.5 -95.5q3 -9 4 -23t1 -16q0 -67 -56.5 -123.5t-155.5 -84.5q-59 -18 -135 -18q-71 0 -124 17t-65 52q-6 -21 -8 -23q-7 -10 -26 -14q-10 -1 -16.5 6.5t-6.5 12.5q0 16 12.5 54t25.5 77q25 81 45 139
q26 77 52.5 154.5t40.5 120.5q-10 -3 -23.5 -6t-20.5 -3q-23 0 -23 17q0 6 2.5 17t124.5 49t207 46q46 4 92 7t94 3q55 0 85 -3.5t32 -11.5q2 -19 -14 -25t-49 -6q-76 0 -212 -12q-65 0 -117 -15q-53 -18 -106 -35q-12 -26 -37 -90t-41 -109zM72 122q11 1 19 -9q4 -5 11 -24
q5 -18 52.5 -28.5t103.5 -10.5q64 0 97 10q63 18 114 59q62 50 62 105q0 8 -4 26q-13 37 -41 69q-33 37 -77 53q-57 19 -134 19q-28 0 -68 -10q-3 -1 -59 -17q-17 -55 -49 -158q-19 -61 -27 -84z" />
    <glyph glyph-name="Acircumflex" unicode="&#xc2;" horiz-adv-x="776" 
d="M724 182q2 -16 2 -23q0 -72 -64 -128t-171 -74q-36 -7 -88 -7q-83 0 -145 21q-70 24 -79 67q-3 17 -3 28q0 10 3 19.5t19 9.5q11 0 17.5 -11.5t8.5 -27.5q5 -25 71 -41t135 -16q25 0 43 3q67 13 123 50q68 45 68 101q0 5 -2 19q-7 36 -37.5 69.5t-76.5 53.5
q-33 16 -77.5 25t-85.5 9q-16 0 -32 -1t-31 -4q-16 -3 -23.5 3t-10.5 20q-4 23 44 43q31 13 42 22q55 41 68 52q40 33 69 69q63 72 63 143q-1 10 -10 14.5t-23 4.5q-9 0 -14 -1q-36 -7 -74.5 -22.5t-70.5 -41.5q-52 -42 -104 -115q-44 -61 -72 -119q-47 -99 -79 -190
q-13 -40 -25.5 -90.5t-21.5 -99.5q-3 -28 -7 -38q-7 -19 -23 -21q-12 -3 -19 3t-8.5 14t-1.5 16q0 11 1 19.5t3 18.5q11 81 44 179q22 65 63 162q46 109 55.5 134.5t18.5 71.5q6 31 12.5 75t14 62t25.5 18q23 0 23 -15q0 -16 -7.5 -63t-15.5 -83q15 19 49 54.5t45 43.5
q45 36 85 56q48 23 99 28q6 1 20 1q26 0 44 -12.5t25 -48.5q2 -14 2 -21q0 -34 -18 -74t-52 -85q-27 -34 -60 -65q-37 -35 -77 -61q40 0 80.5 -8.5t82.5 -28.5q56 -26 92 -66q40 -45 49 -100z" />
    <glyph glyph-name="Acircumflex" unicode="&#x412;" horiz-adv-x="776" 
d="M724 182q2 -16 2 -23q0 -72 -64 -128t-171 -74q-36 -7 -88 -7q-83 0 -145 21q-70 24 -79 67q-3 17 -3 28q0 10 3 19.5t19 9.5q11 0 17.5 -11.5t8.5 -27.5q5 -25 71 -41t135 -16q25 0 43 3q67 13 123 50q68 45 68 101q0 5 -2 19q-7 36 -37.5 69.5t-76.5 53.5
q-33 16 -77.5 25t-85.5 9q-16 0 -32 -1t-31 -4q-16 -3 -23.5 3t-10.5 20q-4 23 44 43q31 13 42 22q55 41 68 52q40 33 69 69q63 72 63 143q-1 10 -10 14.5t-23 4.5q-9 0 -14 -1q-36 -7 -74.5 -22.5t-70.5 -41.5q-52 -42 -104 -115q-44 -61 -72 -119q-47 -99 -79 -190
q-13 -40 -25.5 -90.5t-21.5 -99.5q-3 -28 -7 -38q-7 -19 -23 -21q-12 -3 -19 3t-8.5 14t-1.5 16q0 11 1 19.5t3 18.5q11 81 44 179q22 65 63 162q46 109 55.5 134.5t18.5 71.5q6 31 12.5 75t14 62t25.5 18q23 0 23 -15q0 -16 -7.5 -63t-15.5 -83q15 19 49 54.5t45 43.5
q45 36 85 56q48 23 99 28q6 1 20 1q26 0 44 -12.5t25 -48.5q2 -14 2 -21q0 -34 -18 -74t-52 -85q-27 -34 -60 -65q-37 -35 -77 -61q40 0 80.5 -8.5t82.5 -28.5q56 -26 92 -66q40 -45 49 -100z" />
    <glyph glyph-name="Atilde" unicode="&#xc3;" horiz-adv-x="460" 
d="M558 632h-62q-75 0 -123 -7t-155 -37q-12 -25 -40 -106q-9 -25 -51 -148q-33 -89 -46 -127q-20 -58 -53 -183q-8 -22 -12 -28q-7 -10 -22 -13q-10 -1 -16.5 6.5t-6.5 12.5q0 22 11 65t29 97l135 402q-9 -3 -22.5 -6t-20.5 -3q-24 0 -24 18q0 5 1 8q7 29 143 63
q146 37 283 37q52 0 82 -5t32 -14q3 -20 -13 -26t-49 -6z" />
    <glyph glyph-name="Atilde" unicode="&#x413;" horiz-adv-x="460" 
d="M558 632h-62q-75 0 -123 -7t-155 -37q-12 -25 -40 -106q-9 -25 -51 -148q-33 -89 -46 -127q-20 -58 -53 -183q-8 -22 -12 -28q-7 -10 -22 -13q-10 -1 -16.5 6.5t-6.5 12.5q0 22 11 65t29 97l135 402q-9 -3 -22.5 -6t-20.5 -3q-24 0 -24 18q0 5 1 8q7 29 143 63
q146 37 283 37q52 0 82 -5t32 -14q3 -20 -13 -26t-49 -6z" />
    <glyph glyph-name="Adieresis" unicode="&#xc4;" horiz-adv-x="940" 
d="M961 329q0 -136 -173.5 -230t-433.5 -94q-105 0 -180 21q-101 28 -101 87q0 20 8.5 35t25.5 15q33 0 33 -38q0 -31 50 -51.5t154 -20.5q94 0 210 26q145 32 235 90q112 72 112 169q0 123 -134 201q-74 43 -205 77l-66 -216q-17 -59 -24 -85q-18 -64 -36 -119
q-11 -53 -16 -80q-10 -49 -28 -49t-25.5 9.5t-7.5 38.5q0 11 32 126q29 105 59 211q24 83 48 167q-39 0 -62 2t-57 2q-42 0 -92 -14q-66 -19 -97 -39q-10 -8 -21.5 -16t-25.5 -8q-10 0 -16 8t-6 20q0 26 92 65t149 39q21 0 52.5 1.5t32.5 1.5q31 0 70 -4.5t94 -15.5
q151 -32 245 -112q105 -90 105 -220z" />
    <glyph glyph-name="Adieresis" unicode="&#x414;" horiz-adv-x="940" 
d="M961 329q0 -136 -173.5 -230t-433.5 -94q-105 0 -180 21q-101 28 -101 87q0 20 8.5 35t25.5 15q33 0 33 -38q0 -31 50 -51.5t154 -20.5q94 0 210 26q145 32 235 90q112 72 112 169q0 123 -134 201q-74 43 -205 77l-66 -216q-17 -59 -24 -85q-18 -64 -36 -119
q-11 -53 -16 -80q-10 -49 -28 -49t-25.5 9.5t-7.5 38.5q0 11 32 126q29 105 59 211q24 83 48 167q-39 0 -62 2t-57 2q-42 0 -92 -14q-66 -19 -97 -39q-10 -8 -21.5 -16t-25.5 -8q-10 0 -16 8t-6 20q0 26 92 65t149 39q21 0 52.5 1.5t32.5 1.5q31 0 70 -4.5t94 -15.5
q151 -32 245 -112q105 -90 105 -220z" />
    <glyph glyph-name="Aring" unicode="&#xc5;" horiz-adv-x="754" 
d="M804 679q3 -19 -71 -31q-153 -25 -171 -29.5t-139 -31.5q-147 -33 -197 -49q-19 -55 -37 -109q-22 -66 -38 -127q91 26 245 57q133 26 173 30q26 0 34.5 -4t8.5 -23q0 -8 -22 -12t-45 -7q-127 -27 -219 -52q-118 -32 -192 -61q-14 -28 -27 -72t-13 -64q0 -16 9.5 -23
t23.5 -9q52 0 94.5 3.5t82.5 10t195 35.5q102 19 123 19q26 -2 26 -22q1 -5 -9.5 -9.5t-36.5 -12.5q-43 -12 -132 -29.5t-149.5 -26.5t-123 -16t-91.5 -7q-32 0 -48.5 14.5t-16.5 38.5q0 43 20 113q2 6 37 115q7 22 48 157q15 51 24 73q-19 0 -31 5.5t-12 16.5q0 4 3 10
q11 18 67.5 33t115.5 31q61 21 178 42q53 10 134 23q58 12 77 15q50 9 73 9q17 0 22 -5t7 -19z" />
    <glyph glyph-name="Aring" unicode="&#x415;" horiz-adv-x="754" 
d="M804 679q3 -19 -71 -31q-153 -25 -171 -29.5t-139 -31.5q-147 -33 -197 -49q-19 -55 -37 -109q-22 -66 -38 -127q91 26 245 57q133 26 173 30q26 0 34.5 -4t8.5 -23q0 -8 -22 -12t-45 -7q-127 -27 -219 -52q-118 -32 -192 -61q-14 -28 -27 -72t-13 -64q0 -16 9.5 -23
t23.5 -9q52 0 94.5 3.5t82.5 10t195 35.5q102 19 123 19q26 -2 26 -22q1 -5 -9.5 -9.5t-36.5 -12.5q-43 -12 -132 -29.5t-149.5 -26.5t-123 -16t-91.5 -7q-32 0 -48.5 14.5t-16.5 38.5q0 43 20 113q2 6 37 115q7 22 48 157q15 51 24 73q-19 0 -31 5.5t-12 16.5q0 4 3 10
q11 18 67.5 33t115.5 31q61 21 178 42q53 10 134 23q58 12 77 15q50 9 73 9q17 0 22 -5t7 -19z" />
    <glyph glyph-name="AE" unicode="&#xc6;" horiz-adv-x="830" 
d="M476 418q87 76 186 150q118 88 143 88q16 0 26 -8t10 -29q0 -13 -23 -25q-41 -18 -75 -34q-17 -8 -87.5 -60.5t-188.5 -146.5v-23q27 -30 85 -76q52 -42 119 -88q25 -18 196 -113q56 -31 56 -41q0 -11 -6.5 -13.5t-12.5 -2.5h-10q-8 2 -12 2q-20 0 -97.5 39t-148.5 85
q-56 37 -107 79q-41 34 -77 70q-3 -9 -4 -25t-2 -35q0 -29 -2 -93.5t-2 -83.5q0 -17 -4 -23q-9 -13 -40 -13q-15 0 -20.5 17t-5.5 44q0 14 1 30.5t4 32.5q8 66 11.5 99t9.5 67q-31 -23 -111 -79q-91 -64 -150 -109q-78 -59 -90 -75q-6 -7 -15 -25q-16 -30 -32 -30
q-13 0 -19.5 7.5t-6.5 21.5q0 17 11.5 37t87.5 80q65 51 159 118q42 30 150 104q-74 57 -167 141q-111 100 -111 116q0 10 6 20t15 14q11 3 68 -47q10 -9 115 -108q73 -69 105 -94q15 71 34 143q16 61 29 96q4 11 17.5 23.5t24.5 13.5q8 0 15.5 -6.5t7.5 -14.5
q0 -20 -19 -83.5t-46 -133.5z" />
    <glyph glyph-name="AE" unicode="&#x416;" horiz-adv-x="830" 
d="M476 418q87 76 186 150q118 88 143 88q16 0 26 -8t10 -29q0 -13 -23 -25q-41 -18 -75 -34q-17 -8 -87.5 -60.5t-188.5 -146.5v-23q27 -30 85 -76q52 -42 119 -88q25 -18 196 -113q56 -31 56 -41q0 -11 -6.5 -13.5t-12.5 -2.5h-10q-8 2 -12 2q-20 0 -97.5 39t-148.5 85
q-56 37 -107 79q-41 34 -77 70q-3 -9 -4 -25t-2 -35q0 -29 -2 -93.5t-2 -83.5q0 -17 -4 -23q-9 -13 -40 -13q-15 0 -20.5 17t-5.5 44q0 14 1 30.5t4 32.5q8 66 11.5 99t9.5 67q-31 -23 -111 -79q-91 -64 -150 -109q-78 -59 -90 -75q-6 -7 -15 -25q-16 -30 -32 -30
q-13 0 -19.5 7.5t-6.5 21.5q0 17 11.5 37t87.5 80q65 51 159 118q42 30 150 104q-74 57 -167 141q-111 100 -111 116q0 10 6 20t15 14q11 3 68 -47q10 -9 115 -108q73 -69 105 -94q15 71 34 143q16 61 29 96q4 11 17.5 23.5t24.5 13.5q8 0 15.5 -6.5t7.5 -14.5
q0 -20 -19 -83.5t-46 -133.5z" />
    <glyph glyph-name="Ccedilla" unicode="&#xc7;" horiz-adv-x="685" 
d="M638 120q0 -80 -75 -131t-193 -51q-97 0 -189 36q-104 41 -104 98q0 26 2.5 39.5t23.5 13.5q13 0 17.5 -12.5t4.5 -30.5q0 -30 89.5 -63t145.5 -33q76 0 138 31q78 39 78 103q0 38 -24 74.5t-67.5 67.5t-102.5 49t-116 18q-15 0 -21.5 7.5t-6.5 21.5q0 24 43 33.5
t53 14.5q47 23 75 40q48 28 82.5 56.5t58 64t26.5 64.5q0 13 -13 20t-30 7q-36 0 -76 -9t-80 -31.5t-82 -60.5q-77 -70 -79 -70q-16 0 -22.5 7.5t-6.5 21.5q0 16 53 63q57 51 115 83q48 26 95.5 38.5t101.5 12.5q34 -3 51 -15q26 -18 26 -60q0 -37 -26 -80t-73 -85
q-32 -30 -69.5 -54.5t-86.5 -46.5q36 -5 76.5 -21.5t77.5 -43.5q49 -35 79.5 -83.5t30.5 -103.5z" />
    <glyph glyph-name="Ccedilla" unicode="&#x417;" horiz-adv-x="685" 
d="M638 120q0 -80 -75 -131t-193 -51q-97 0 -189 36q-104 41 -104 98q0 26 2.5 39.5t23.5 13.5q13 0 17.5 -12.5t4.5 -30.5q0 -30 89.5 -63t145.5 -33q76 0 138 31q78 39 78 103q0 38 -24 74.5t-67.5 67.5t-102.5 49t-116 18q-15 0 -21.5 7.5t-6.5 21.5q0 24 43 33.5
t53 14.5q47 23 75 40q48 28 82.5 56.5t58 64t26.5 64.5q0 13 -13 20t-30 7q-36 0 -76 -9t-80 -31.5t-82 -60.5q-77 -70 -79 -70q-16 0 -22.5 7.5t-6.5 21.5q0 16 53 63q57 51 115 83q48 26 95.5 38.5t101.5 12.5q34 -3 51 -15q26 -18 26 -60q0 -37 -26 -80t-73 -85
q-32 -30 -69.5 -54.5t-86.5 -46.5q36 -5 76.5 -21.5t77.5 -43.5q49 -35 79.5 -83.5t30.5 -103.5z" />
    <glyph glyph-name="Egrave" unicode="&#xc8;" horiz-adv-x="661" 
d="M587 550q21 64 25 72q16 31 44 31q14 0 18 -6t4 -25q-17 -39 -40 -109q-28 -82 -49 -179q-13 -61 -24 -153.5t-11 -142.5q0 -22 -3.5 -29t-22.5 -7q-15 0 -23.5 16.5t-8.5 37.5q1 7 1 11q3 34 21 142q10 61 21 122q7 47 13.5 76.5t19.5 67.5l-126 -102q-83 -67 -173 -137
q-100 -78 -159 -118q-6 -19 -8 -47.5t-2 -29.5q1 -15 1 -20q0 -11 -5 -15t-22 -4q-15 0 -20.5 12t-5.5 34v26q0 6 22 104t45.5 205.5t29.5 149.5l8 72q7 48 36 48q12 0 16.5 -9t4.5 -29q0 -11 -2 -36t-2 -37q-3 -38 -35 -166q-24 -92 -47 -184q27 23 133 105q93 72 187 145
q116 89 139 108z" />
    <glyph glyph-name="Egrave" unicode="&#x418;" horiz-adv-x="661" 
d="M587 550q21 64 25 72q16 31 44 31q14 0 18 -6t4 -25q-17 -39 -40 -109q-28 -82 -49 -179q-13 -61 -24 -153.5t-11 -142.5q0 -22 -3.5 -29t-22.5 -7q-15 0 -23.5 16.5t-8.5 37.5q1 7 1 11q3 34 21 142q10 61 21 122q7 47 13.5 76.5t19.5 67.5l-126 -102q-83 -67 -173 -137
q-100 -78 -159 -118q-6 -19 -8 -47.5t-2 -29.5q1 -15 1 -20q0 -11 -5 -15t-22 -4q-15 0 -20.5 12t-5.5 34v26q0 6 22 104t45.5 205.5t29.5 149.5l8 72q7 48 36 48q12 0 16.5 -9t4.5 -29q0 -11 -2 -36t-2 -37q-3 -38 -35 -166q-24 -92 -47 -184q27 23 133 105q93 72 187 145
q116 89 139 108z" />
    <glyph glyph-name="Eacute" unicode="&#xc9;" horiz-adv-x="678" 
d="M710 919q12 0 12 -21q0 -16 -32.5 -40t-87.5 -49q-72 -34 -106 -48q-67 -27 -101 -27q-39 0 -69 26t-30 61q0 24 9.5 36t22.5 12q17 0 22 -16q1 -5 4 -32q3 -16 16 -23.5t34 -7.5q33 0 90.5 25.5t71.5 31.5q42 18 95 47q46 25 49 25zM587 550q21 64 25 72q16 31 44 31
q14 0 18 -6t4 -25q-17 -39 -40 -109q-28 -82 -49 -179q-13 -61 -24 -153.5t-11 -142.5q0 -22 -3.5 -29t-22.5 -7q-15 0 -23.5 16.5t-8.5 37.5q1 7 1 11q3 34 21 142q10 61 21 122q7 47 13.5 76.5t19.5 67.5l-126 -102q-83 -67 -173 -137q-100 -78 -159 -118q-6 -19 -8 -47.5
t-2 -29.5q1 -15 1 -20q0 -11 -5 -15t-22 -4q-15 0 -20.5 12t-5.5 34v26q0 6 22 104t45.5 205.5t29.5 149.5l8 72q7 48 36 48q12 0 16.5 -9t4.5 -29q0 -11 -2 -36t-2 -37q-3 -38 -35 -166q-24 -92 -47 -184q27 23 133 105q93 72 187 145q116 89 139 108z" />
    <glyph glyph-name="Eacute" unicode="&#x419;" horiz-adv-x="678" 
d="M710 919q12 0 12 -21q0 -16 -32.5 -40t-87.5 -49q-72 -34 -106 -48q-67 -27 -101 -27q-39 0 -69 26t-30 61q0 24 9.5 36t22.5 12q17 0 22 -16q1 -5 4 -32q3 -16 16 -23.5t34 -7.5q33 0 90.5 25.5t71.5 31.5q42 18 95 47q46 25 49 25zM587 550q21 64 25 72q16 31 44 31
q14 0 18 -6t4 -25q-17 -39 -40 -109q-28 -82 -49 -179q-13 -61 -24 -153.5t-11 -142.5q0 -22 -3.5 -29t-22.5 -7q-15 0 -23.5 16.5t-8.5 37.5q1 7 1 11q3 34 21 142q10 61 21 122q7 47 13.5 76.5t19.5 67.5l-126 -102q-83 -67 -173 -137q-100 -78 -159 -118q-6 -19 -8 -47.5
t-2 -29.5q1 -15 1 -20q0 -11 -5 -15t-22 -4q-15 0 -20.5 12t-5.5 34v26q0 6 22 104t45.5 205.5t29.5 149.5l8 72q7 48 36 48q12 0 16.5 -9t4.5 -29q0 -11 -2 -36t-2 -37q-3 -38 -35 -166q-24 -92 -47 -184q27 23 133 105q93 72 187 145q116 89 139 108z" />
    <glyph glyph-name="Ecircumflex" unicode="&#xca;" horiz-adv-x="605" 
d="M604 35q-3 -15 -10 -19.5t-20 -4.5q-11 1 -18 1q-78 0 -163 41q-18 8 -99 53q-44 23 -96 61l-60 44q-17 -71 -29 -116q-24 -85 -41 -85q-15 0 -22.5 3t-7.5 19q2 16 23.5 96.5t32.5 111.5q-11 16 -14.5 27.5t-3.5 24.5v22q0 17 14 38t31 27q32 102 50 163q35 114 59 112
q12 0 17.5 -12.5t5.5 -27.5q2 -19 -29 -103q-21 -55 -28 -74q72 49 198 112q140 70 181 70q27 0 46.5 -6t19.5 -23q-2 -14 -10.5 -17.5t-29.5 -3.5h-26q-51 0 -195 -76q-158 -83 -213 -155q-7 -19 -10 -35.5t-5 -31.5q28 -27 76.5 -61.5t101.5 -63.5q65 -34 130.5 -59
t97.5 -25h16q31 0 31 -18q0 -6 -1 -9z" />
    <glyph glyph-name="Ecircumflex" unicode="&#x41a;" horiz-adv-x="605" 
d="M604 35q-3 -15 -10 -19.5t-20 -4.5q-11 1 -18 1q-78 0 -163 41q-18 8 -99 53q-44 23 -96 61l-60 44q-17 -71 -29 -116q-24 -85 -41 -85q-15 0 -22.5 3t-7.5 19q2 16 23.5 96.5t32.5 111.5q-11 16 -14.5 27.5t-3.5 24.5v22q0 17 14 38t31 27q32 102 50 163q35 114 59 112
q12 0 17.5 -12.5t5.5 -27.5q2 -19 -29 -103q-21 -55 -28 -74q72 49 198 112q140 70 181 70q27 0 46.5 -6t19.5 -23q-2 -14 -10.5 -17.5t-29.5 -3.5h-26q-51 0 -195 -76q-158 -83 -213 -155q-7 -19 -10 -35.5t-5 -31.5q28 -27 76.5 -61.5t101.5 -63.5q65 -34 130.5 -59
t97.5 -25h16q31 0 31 -18q0 -6 -1 -9z" />
    <glyph glyph-name="Edieresis" unicode="&#xcb;" horiz-adv-x="536" 
d="M34 -22q-34 0 -34 22q0 12 39 90q8 17 40 78q46 92 92 185q74 145 132 227q78 111 129 111q39 0 56 -33q14 -27 14 -77q0 -17 -11 -108q-6 -50 -6 -79q0 -71 -1 -109q-4 -151 -4 -177q0 -11 5 -24q12 -31 12 -38q0 -34 -8 -51t-31 -17q-22 0 -30 56q-3 23 -6 57
q0 31 4 132t4 166q0 41 13 138q6 45 6 59q0 38 -27 38q-25 0 -73 -69q-43 -62 -97 -164q-25 -47 -96 -189q-35 -72 -69 -144q-40 -79 -53 -80z" />
    <glyph glyph-name="Edieresis" unicode="&#x41b;" horiz-adv-x="536" 
d="M34 -22q-34 0 -34 22q0 12 39 90q8 17 40 78q46 92 92 185q74 145 132 227q78 111 129 111q39 0 56 -33q14 -27 14 -77q0 -17 -11 -108q-6 -50 -6 -79q0 -71 -1 -109q-4 -151 -4 -177q0 -11 5 -24q12 -31 12 -38q0 -34 -8 -51t-31 -17q-22 0 -30 56q-3 23 -6 57
q0 31 4 132t4 166q0 41 13 138q6 45 6 59q0 38 -27 38q-25 0 -73 -69q-43 -62 -97 -164q-25 -47 -96 -189q-35 -72 -69 -144q-40 -79 -53 -80z" />
    <glyph glyph-name="Igrave" unicode="&#xcc;" horiz-adv-x="955" 
d="M888 312q-62 -257 -62 -269q0 -9 2.5 -25t2.5 -18q0 -17 -17 -17q-29 0 -37.5 17t-8.5 43q0 43 62 286q30 109 61 218q13 49 13 63q2 10 2 15q0 9 -6 9q-12 0 -49 -48q-31 -40 -64 -92q-55 -87 -138 -212q-87 -131 -111 -164q-20 -43 -35 -66t-30 -23q-29 0 -31.5 26
t-2.5 27q-7 37 -35 116t-70 181q-20 48 -36 82q-23 48 -32 67q-14 -26 -36.5 -83.5t-47.5 -130.5q-30 -87 -48 -154q-21 -80 -21 -124q0 -43 -27 -43q-18 0 -22 9t-9 41q-4 26 30 141q28 95 66 200q8 23 36 92q38 95 48 148q4 25 9 51q6 16 30 16q12 0 17.5 -15t4 -32.5
t13 -63.5t63.5 -165q34 -84 62 -149q43 -98 56 -129q35 53 71 106q56 84 113 168q45 67 89.5 136t87.5 118q57 65 87 65q17 0 22 -23t5 -35q0 -66 -25.5 -164t-51.5 -196z" />
    <glyph glyph-name="Igrave" unicode="&#x41c;" horiz-adv-x="955" 
d="M888 312q-62 -257 -62 -269q0 -9 2.5 -25t2.5 -18q0 -17 -17 -17q-29 0 -37.5 17t-8.5 43q0 43 62 286q30 109 61 218q13 49 13 63q2 10 2 15q0 9 -6 9q-12 0 -49 -48q-31 -40 -64 -92q-55 -87 -138 -212q-87 -131 -111 -164q-20 -43 -35 -66t-30 -23q-29 0 -31.5 26
t-2.5 27q-7 37 -35 116t-70 181q-20 48 -36 82q-23 48 -32 67q-14 -26 -36.5 -83.5t-47.5 -130.5q-30 -87 -48 -154q-21 -80 -21 -124q0 -43 -27 -43q-18 0 -22 9t-9 41q-4 26 30 141q28 95 66 200q8 23 36 92q38 95 48 148q4 25 9 51q6 16 30 16q12 0 17.5 -15t4 -32.5
t13 -63.5t63.5 -165q34 -84 62 -149q43 -98 56 -129q35 53 71 106q56 84 113 168q45 67 89.5 136t87.5 118q57 65 87 65q17 0 22 -23t5 -35q0 -66 -25.5 -164t-51.5 -196z" />
    <glyph glyph-name="Iacute" unicode="&#xcd;" horiz-adv-x="625" 
d="M618 670q-15 -52 -37 -133q-25 -91 -47 -191q-12 -58 -27 -159.5t-15 -145.5q0 -23 -3.5 -29.5t-22.5 -6.5q-18 0 -25 18.5t-7 46.5q4 44 14 106.5t22 118.5q-69 0 -154 -10.5t-170 -20.5q-19 -62 -30 -107q-16 -66 -16 -102q-1 -6 -1 -20q0 -26 -6 -33t-20 -7
q-15 0 -20.5 12t-5.5 34v26q0 9 25 116q51 217 51 218q30 133 35.5 178.5t7.5 63.5q7 48 37 48q12 0 16.5 -10t4.5 -29q0 -11 -2 -39.5t-2 -31.5q-3 -36 -22.5 -115t-36.5 -149q42 4 75 8q64 9 68 9q43 0 75 4q97 12 103 12q27 124 32 143q23 92 41 143q23 65 41 65
q14 0 18 -6t4 -25z" />
    <glyph glyph-name="Iacute" unicode="&#x41d;" horiz-adv-x="625" 
d="M618 670q-15 -52 -37 -133q-25 -91 -47 -191q-12 -58 -27 -159.5t-15 -145.5q0 -23 -3.5 -29.5t-22.5 -6.5q-18 0 -25 18.5t-7 46.5q4 44 14 106.5t22 118.5q-69 0 -154 -10.5t-170 -20.5q-19 -62 -30 -107q-16 -66 -16 -102q-1 -6 -1 -20q0 -26 -6 -33t-20 -7
q-15 0 -20.5 12t-5.5 34v26q0 9 25 116q51 217 51 218q30 133 35.5 178.5t7.5 63.5q7 48 37 48q12 0 16.5 -10t4.5 -29q0 -11 -2 -39.5t-2 -31.5q-3 -36 -22.5 -115t-36.5 -149q42 4 75 8q64 9 68 9q43 0 75 4q97 12 103 12q27 124 32 143q23 92 41 143q23 65 41 65
q14 0 18 -6t4 -25z" />
    <glyph glyph-name="Icircumflex" unicode="&#xce;" horiz-adv-x="736" 
d="M797 520q0 -165 -86 -292q-75 -111 -203 -174q-117 -58 -238 -58q-110 0 -176 39q-86 51 -86 168q0 75 78 190q82 122 200 206q136 97 264 97q111 0 179 -50t68 -126zM742 500q0 61 -49 102q-55 46 -153 46q-95 0 -214 -86q-106 -77 -185.5 -182.5t-79.5 -163.5
q0 -96 67 -138q50 -31 135 -31q158 0 275 81q98 68 155 183q49 99 49 189z" />
    <glyph glyph-name="Icircumflex" unicode="&#x41e;" horiz-adv-x="736" 
d="M797 520q0 -165 -86 -292q-75 -111 -203 -174q-117 -58 -238 -58q-110 0 -176 39q-86 51 -86 168q0 75 78 190q82 122 200 206q136 97 264 97q111 0 179 -50t68 -126zM742 500q0 61 -49 102q-55 46 -153 46q-95 0 -214 -86q-106 -77 -185.5 -182.5t-79.5 -163.5
q0 -96 67 -138q50 -31 135 -31q158 0 275 81q98 68 155 183q49 99 49 189z" />
    <glyph glyph-name="Idieresis" unicode="&#xcf;" horiz-adv-x="612" 
d="M556 617l-312 -5q-18 -43 -42 -155.5t-47 -226.5q-9 -43 -14 -87t-5 -100q1 -14 1 -20q0 -14 -9.5 -18.5t-27.5 -4.5q-15 0 -21 12.5t-6 33.5q0 18 2 31t3 19q15 122 49 288q31 153 52 221q-19 0 -26.5 9.5t-7.5 28.5q0 9 15.5 14t54.5 5q41 0 109 3q158 7 176 7
q75 0 111 -3.5t36 -22.5q0 -10 -6.5 -18.5t-24.5 -8.5q-5 -29 -17 -76q-28 -109 -34 -135q-27 -113 -47 -211t-20 -115q1 -19 1 -27q0 -17 -4.5 -26.5t-18.5 -9.5q-17 0 -26.5 8t-9.5 34v21q0 34 21 131q17 78 51 212q11 42 22 102t22 90z" />
    <glyph glyph-name="Idieresis" unicode="&#x41f;" horiz-adv-x="612" 
d="M556 617l-312 -5q-18 -43 -42 -155.5t-47 -226.5q-9 -43 -14 -87t-5 -100q1 -14 1 -20q0 -14 -9.5 -18.5t-27.5 -4.5q-15 0 -21 12.5t-6 33.5q0 18 2 31t3 19q15 122 49 288q31 153 52 221q-19 0 -26.5 9.5t-7.5 28.5q0 9 15.5 14t54.5 5q41 0 109 3q158 7 176 7
q75 0 111 -3.5t36 -22.5q0 -10 -6.5 -18.5t-24.5 -8.5q-5 -29 -17 -76q-28 -109 -34 -135q-27 -113 -47 -211t-20 -115q1 -19 1 -27q0 -17 -4.5 -26.5t-18.5 -9.5q-17 0 -26.5 8t-9.5 34v21q0 34 21 131q17 78 51 212q11 42 22 102t22 90z" />
    <glyph glyph-name="Eth" unicode="&#xd0;" horiz-adv-x="673" 
d="M667 518q0 61 -31 86q-25 20 -74 20q-45 0 -107.5 -24.5t-111.5 -66.5t-87 -103q-30 -47 -52 -102q53 -15 101 -15q152 0 247 45q115 54 115 160zM264 533q64 60 139 100q93 49 178 49q63 0 105 -42q46 -46 46 -124q0 -135 -162 -206q-123 -54 -276 -54q-31 0 -54.5 2.5
t-57.5 7.5q-24 -78 -31 -105q-15 -62 -15 -118q0 -29 -6 -42t-25 -13q-6 1 -9 1q-12 1 -18.5 11.5t-6.5 39.5v10q0 42 27 126q16 51 38 105q-12 3 -18.5 13.5t-6.5 23.5q0 8 4 16q15 23 25 30q14 6 28 13q13 42 21.5 73t14 53.5t11.5 60.5q13 74 15 86q8 31 16 47
q12 23 25 23q23 0 23 -14t-11.5 -78t-18.5 -95z" />
    <glyph glyph-name="Eth" unicode="&#x420;" horiz-adv-x="673" 
d="M667 518q0 61 -31 86q-25 20 -74 20q-45 0 -107.5 -24.5t-111.5 -66.5t-87 -103q-30 -47 -52 -102q53 -15 101 -15q152 0 247 45q115 54 115 160zM264 533q64 60 139 100q93 49 178 49q63 0 105 -42q46 -46 46 -124q0 -135 -162 -206q-123 -54 -276 -54q-31 0 -54.5 2.5
t-57.5 7.5q-24 -78 -31 -105q-15 -62 -15 -118q0 -29 -6 -42t-25 -13q-6 1 -9 1q-12 1 -18.5 11.5t-6.5 39.5v10q0 42 27 126q16 51 38 105q-12 3 -18.5 13.5t-6.5 23.5q0 8 4 16q15 23 25 30q14 6 28 13q13 42 21.5 73t14 53.5t11.5 60.5q13 74 15 86q8 31 16 47
q12 23 25 23q23 0 23 -14t-11.5 -78t-18.5 -95z" />
    <glyph glyph-name="Ntilde" unicode="&#xd1;" horiz-adv-x="683" 
d="M650 84q26 11 32 11q2 0 7 -9q3 -3 3 -10q0 -13 -15 -23q-41 -27 -94 -43q-66 -20 -146 -20q-158 0 -265 55q-136 70 -136 212q0 138 165 273q153 125 277 125q62 0 90 -14t28 -55q0 -20 -14.5 -40t-33.5 -20q-9 -1 -15 5t-6 17q0 33 -14.5 42.5t-46.5 9.5
q-46 0 -131 -48q-93 -53 -157 -125q-77 -87 -77 -168q0 -95 84 -149q93 -60 273 -60q65 0 121 12q39 8 71 22z" />
    <glyph glyph-name="Ntilde" unicode="&#x421;" horiz-adv-x="683" 
d="M650 84q26 11 32 11q2 0 7 -9q3 -3 3 -10q0 -13 -15 -23q-41 -27 -94 -43q-66 -20 -146 -20q-158 0 -265 55q-136 70 -136 212q0 138 165 273q153 125 277 125q62 0 90 -14t28 -55q0 -20 -14.5 -40t-33.5 -20q-9 -1 -15 5t-6 17q0 33 -14.5 42.5t-46.5 9.5
q-46 0 -131 -48q-93 -53 -157 -125q-77 -87 -77 -168q0 -95 84 -149q93 -60 273 -60q65 0 121 12q39 8 71 22z" />
    <glyph glyph-name="Ograve" unicode="&#xd2;" horiz-adv-x="559" 
d="M634 682q0 -11 -27 -23q-21 -9 -53 -16l-206 -48q-18 -44 -51 -204q-19 -93 -38 -177q-7 -32 -9.5 -82t-2.5 -113q0 -18 -3 -23q-8 -13 -40 -13q-15 0 -21 12.5t-6 33.5q0 12 2.5 30t2.5 20q16 121 23 165q16 101 34 175t49 159q-24 -8 -41 -13q-43 -11 -69 -18
q-77 -21 -102 -27q-61 -16 -88 -16q-41 0 -41 19q0 23 40 37q2 1 70 18.5t152.5 38t134.5 31.5l162 34q17 4 44 13q57 20 60 20q15 0 19.5 -8t4.5 -25z" />
    <glyph glyph-name="Ograve" unicode="&#x422;" horiz-adv-x="559" 
d="M634 682q0 -11 -27 -23q-21 -9 -53 -16l-206 -48q-18 -44 -51 -204q-19 -93 -38 -177q-7 -32 -9.5 -82t-2.5 -113q0 -18 -3 -23q-8 -13 -40 -13q-15 0 -21 12.5t-6 33.5q0 12 2.5 30t2.5 20q16 121 23 165q16 101 34 175t49 159q-24 -8 -41 -13q-43 -11 -69 -18
q-77 -21 -102 -27q-61 -16 -88 -16q-41 0 -41 19q0 23 40 37q2 1 70 18.5t152.5 38t134.5 31.5l162 34q17 4 44 13q57 20 60 20q15 0 19.5 -8t4.5 -25z" />
    <glyph glyph-name="Oacute" unicode="&#xd3;" horiz-adv-x="566" 
d="M640 662q-7 -34 -39 -94q-28 -53 -67 -112q-11 -18 -37 -59q-42 -67 -69 -104q-63 -92 -92 -135q-42 -62 -69 -106.5t-33 -63.5t-9 -26q-9 -22 -29 -22q-16 0 -19 11t-3 39q0 13 34 71.5t105 166.5q-16 23 -47 67q-50 70 -92 133q-64 96 -92.5 128t-44.5 30t-25 7
q-12 13 -12 36q0 14 10.5 23.5t24.5 9.5q25 0 78 -57q47 -51 97 -126q37 -57 76 -115t63 -88q16 23 64.5 98t74.5 118q37 61 58 100q28 54 36 87q3 15 11 23.5t20 5.5q13 -3 21 -18t6 -28z" />
    <glyph glyph-name="Oacute" unicode="&#x423;" horiz-adv-x="566" 
d="M640 662q-7 -34 -39 -94q-28 -53 -67 -112q-11 -18 -37 -59q-42 -67 -69 -104q-63 -92 -92 -135q-42 -62 -69 -106.5t-33 -63.5t-9 -26q-9 -22 -29 -22q-16 0 -19 11t-3 39q0 13 34 71.5t105 166.5q-16 23 -47 67q-50 70 -92 133q-64 96 -92.5 128t-44.5 30t-25 7
q-12 13 -12 36q0 14 10.5 23.5t24.5 9.5q25 0 78 -57q47 -51 97 -126q37 -57 76 -115t63 -88q16 23 64.5 98t74.5 118q37 61 58 100q28 54 36 87q3 15 11 23.5t20 5.5q13 -3 21 -18t6 -28z" />
    <glyph glyph-name="Ocircumflex" unicode="&#xd4;" horiz-adv-x="676" 
d="M409 574q-23 -96 -30 -128q-13 -59 -19 -98q-2 -12 -8.5 -59t-10.5 -80q127 33 214.5 96t87.5 125q0 65 -40 107q-44 46 -116 46q-40 0 -78 -9zM280 193q9 67 22 136q17 93 47 230q-123 -36 -216 -119q-85 -76 -85 -128q0 -74 60 -101q43 -19 137 -19zM421 623
q6 1 33 4.5t43 3.5q85 0 141 -56t56 -148q0 -91 -112 -172q-105 -76 -247 -103q-2 -16 -10 -65t-8 -61q0 -14 -7 -26t-23 -12q-20 0 -25.5 16.5t-5.5 31.5l18 108l-46 -2q-120 0 -171 33q-62 40 -62 147q0 72 99 157q109 94 266 132q7 29 13.5 57t10.5 40q3 19 7 39
q6 11 24 11q18 1 23.5 -5.5t5.5 -18.5v-12q0 -10 -10 -48t-13 -51z" />
    <glyph glyph-name="Ocircumflex" unicode="&#x424;" horiz-adv-x="676" 
d="M409 574q-23 -96 -30 -128q-13 -59 -19 -98q-2 -12 -8.5 -59t-10.5 -80q127 33 214.5 96t87.5 125q0 65 -40 107q-44 46 -116 46q-40 0 -78 -9zM280 193q9 67 22 136q17 93 47 230q-123 -36 -216 -119q-85 -76 -85 -128q0 -74 60 -101q43 -19 137 -19zM421 623
q6 1 33 4.5t43 3.5q85 0 141 -56t56 -148q0 -91 -112 -172q-105 -76 -247 -103q-2 -16 -10 -65t-8 -61q0 -14 -7 -26t-23 -12q-20 0 -25.5 16.5t-5.5 31.5l18 108l-46 -2q-120 0 -171 33q-62 40 -62 147q0 72 99 157q109 94 266 132q7 29 13.5 57t10.5 40q3 19 7 39
q6 11 24 11q18 1 23.5 -5.5t5.5 -18.5v-12q0 -10 -10 -48t-13 -51z" />
    <glyph glyph-name="Otilde" unicode="&#xd5;" horiz-adv-x="647" 
d="M472 497q-91 -85 -182 -169q20 -34 61 -76q31 -32 74 -67q35 -30 102 -67q115 -64 115 -71q0 -17 -19 -17q-6 0 -22 2q-20 0 -93 38.5t-124 75.5q-32 24 -72 65.5t-60 71.5q-46 -63 -94 -134q-67 -99 -73 -117t-10 -35q-6 -17 -22 -17q-18 0 -23.5 9.5t-5.5 30.5v11
q0 26 34 80q27 42 79 110q42 53 85 107q-40 60 -78.5 133t-40.5 98q0 17 6 26.5t23 9.5q22 0 74 -120q31 -72 51 -103q29 35 93 97q70 68 137 122q75 61 97 61q17 0 27.5 -8.5t8.5 -29.5q0 -22 -76 -66q-49 -28 -72 -51z" />
    <glyph glyph-name="Otilde" unicode="&#x425;" horiz-adv-x="647" 
d="M472 497q-91 -85 -182 -169q20 -34 61 -76q31 -32 74 -67q35 -30 102 -67q115 -64 115 -71q0 -17 -19 -17q-6 0 -22 2q-20 0 -93 38.5t-124 75.5q-32 24 -72 65.5t-60 71.5q-46 -63 -94 -134q-67 -99 -73 -117t-10 -35q-6 -17 -22 -17q-18 0 -23.5 9.5t-5.5 30.5v11
q0 26 34 80q27 42 79 110q42 53 85 107q-40 60 -78.5 133t-40.5 98q0 17 6 26.5t23 9.5q22 0 74 -120q31 -72 51 -103q29 35 93 97q70 68 137 122q75 61 97 61q17 0 27.5 -8.5t8.5 -29.5q0 -22 -76 -66q-49 -28 -72 -51z" />
    <glyph glyph-name="Odieresis" unicode="&#xd6;" horiz-adv-x="602" 
d="M50 94l39 208q6 30 26 129q13 62 18.5 107.5t7.5 63.5q7 48 37 48q13 0 17.5 -8t4.5 -25q0 -12 -1.5 -34.5t-1.5 -23.5q-3 -33 -33 -165q-17 -76 -27 -128q-13 -67 -26 -137.5t-13 -79.5v-8q1 -1 9 -1q90 15 175.5 27t135.5 12q10 86 34 215.5t32 168.5q20 91 41.5 152.5
t40.5 61.5q14 0 18 -6t4 -25l-46 -184q-29 -114 -38 -169q-22 -128 -29 -210q26 0 51.5 -4t25.5 -13q0 -13 -11 -49q-29 -97 -31 -107t-4.5 -32t-2.5 -40q0 -14 -7 -22t-16 -8q-12 0 -16.5 12t-4.5 35v18t1 19q0 27 13 71.5t24 66.5q-11 5 -52 5q-36 0 -105 -9t-220 -36
q-24 -3 -47 -7q-35 0 -35 24q3 28 4.5 41t7.5 46z" />
    <glyph glyph-name="Odieresis" unicode="&#x426;" horiz-adv-x="602" 
d="M50 94l39 208q6 30 26 129q13 62 18.5 107.5t7.5 63.5q7 48 37 48q13 0 17.5 -8t4.5 -25q0 -12 -1.5 -34.5t-1.5 -23.5q-3 -33 -33 -165q-17 -76 -27 -128q-13 -67 -26 -137.5t-13 -79.5v-8q1 -1 9 -1q90 15 175.5 27t135.5 12q10 86 34 215.5t32 168.5q20 91 41.5 152.5
t40.5 61.5q14 0 18 -6t4 -25l-46 -184q-29 -114 -38 -169q-22 -128 -29 -210q26 0 51.5 -4t25.5 -13q0 -13 -11 -49q-29 -97 -31 -107t-4.5 -32t-2.5 -40q0 -14 -7 -22t-16 -8q-12 0 -16.5 12t-4.5 35v18t1 19q0 27 13 71.5t24 66.5q-11 5 -52 5q-36 0 -105 -9t-220 -36
q-24 -3 -47 -7q-35 0 -35 24q3 28 4.5 41t7.5 46z" />
    <glyph glyph-name="multiply" unicode="&#xd7;" horiz-adv-x="510" 
d="M498 631q-18 -43 -42 -118q-28 -86 -49 -184q-13 -62 -25 -159t-12 -146q0 -23 -4 -29.5t-23 -6.5q-17 0 -24 19t-7 46q8 79 11 105q8 64 20 120q-42 -21 -95 -36.5t-87 -15.5q-47 0 -95 37q-53 41 -53 90q0 48 7 96q11 58 16 89q11 61 19 82q16 42 42 42q18 0 18 -27
q0 -17 -6 -43q-1 -3 -12 -45q-17 -65 -22 -93q-9 -46 -9 -82q0 -33 29.5 -60.5t65.5 -23.5q56 0 99.5 10.5t94.5 35.5q35 165 48 208q36 120 73 120q14 0 18 -6t4 -25z" />
    <glyph glyph-name="multiply" unicode="&#x427;" horiz-adv-x="510" 
d="M498 631q-18 -43 -42 -118q-28 -86 -49 -184q-13 -62 -25 -159t-12 -146q0 -23 -4 -29.5t-23 -6.5q-17 0 -24 19t-7 46q8 79 11 105q8 64 20 120q-42 -21 -95 -36.5t-87 -15.5q-47 0 -95 37q-53 41 -53 90q0 48 7 96q11 58 16 89q11 61 19 82q16 42 42 42q18 0 18 -27
q0 -17 -6 -43q-1 -3 -12 -45q-17 -65 -22 -93q-9 -46 -9 -82q0 -33 29.5 -60.5t65.5 -23.5q56 0 99.5 10.5t94.5 35.5q35 165 48 208q36 120 73 120q14 0 18 -6t4 -25z" />
    <glyph glyph-name="Oslash" unicode="&#xd8;" horiz-adv-x="930" 
d="M850 50q0 -24 -20 -35q-15 -8 -38 -8q-36 0 -132.5 3t-166.5 6q-98 0 -181.5 -3t-191.5 -23q-24 -3 -47 -7q-35 0 -35 24q3 28 4.5 41t7.5 46l39 208q6 30 26 129q13 62 18.5 107.5t7.5 63.5q7 48 37 48q13 0 17.5 -8t4.5 -25q0 -12 -1.5 -34.5t-1.5 -23.5
q-3 -33 -33 -165q-17 -76 -27 -128q-13 -67 -26 -137.5t-13 -79.5q0 -3 10 -3q16 1 22 1q83 9 167 17t128 8q13 113 14.5 120.5t16.5 87.5q24 126 32 165q20 91 41.5 152.5t40.5 61.5q17 0 19.5 -8t2.5 -23q-24 -91 -47 -184q-26 -104 -37 -167.5t-17.5 -110t-11.5 -101.5
q82 0 158 -1t133 -2q15 0 21 19q0 1 8 39l85 413q12 52 18 71q17 51 48 51q16 0 16 -18q0 -12 -5 -30l-18 -60q-11 -57 -21 -104q-20 -95 -26 -126l-36 -186q-10 -56 -10 -81z" />
    <glyph glyph-name="Oslash" unicode="&#x428;" horiz-adv-x="930" 
d="M850 50q0 -24 -20 -35q-15 -8 -38 -8q-36 0 -132.5 3t-166.5 6q-98 0 -181.5 -3t-191.5 -23q-24 -3 -47 -7q-35 0 -35 24q3 28 4.5 41t7.5 46l39 208q6 30 26 129q13 62 18.5 107.5t7.5 63.5q7 48 37 48q13 0 17.5 -8t4.5 -25q0 -12 -1.5 -34.5t-1.5 -23.5
q-3 -33 -33 -165q-17 -76 -27 -128q-13 -67 -26 -137.5t-13 -79.5q0 -3 10 -3q16 1 22 1q83 9 167 17t128 8q13 113 14.5 120.5t16.5 87.5q24 126 32 165q20 91 41.5 152.5t40.5 61.5q17 0 19.5 -8t2.5 -23q-24 -91 -47 -184q-26 -104 -37 -167.5t-17.5 -110t-11.5 -101.5
q82 0 158 -1t133 -2q15 0 21 19q0 1 8 39l85 413q12 52 18 71q17 51 48 51q16 0 16 -18q0 -12 -5 -30l-18 -60q-11 -57 -21 -104q-20 -95 -26 -126l-36 -186q-10 -56 -10 -81z" />
    <glyph glyph-name="Ugrave" unicode="&#xd9;" horiz-adv-x="964" 
d="M788 25q-67 0 -152.5 3t-145.5 6q-101 0 -195 -13q-19 -3 -175 -31q-24 -3 -47 -7q-35 0 -35 24q3 28 4.5 41t7.5 46l39 208q6 30 26 129q13 62 18.5 107.5t7.5 63.5q7 48 37 48q13 0 17.5 -8t4.5 -25q0 -12 -1.5 -34.5t-1.5 -23.5q-3 -33 -33 -165q-17 -76 -27 -128
q-13 -67 -26 -137.5t-13 -79.5v-8q1 -1 9 -1q90 15 175.5 27t135.5 12q10 86 34 215.5t32 168.5q20 91 41.5 152.5t40.5 61.5q14 0 18 -6t4 -25l-46 -184q-29 -114 -38 -169q-22 -128 -29 -210q64 -1 161.5 -2.5t155.5 -1.5q-1 7 -1 13.5v9.5v26q0 9 37 181q19 90 53 242
q16 71 24 89q15 33 42 33q15 0 15 -18q0 -11 -5 -29q-9 -31 -17 -61l-47 -230q-5 -24 -31 -120q-18 -67 -18 -99q-1 -5 -1 -14q0 -19 -1 -23q37 0 53.5 -6t16.5 -15q0 -25 -18 -78q-22 -66 -24.5 -78t-5 -34t-2.5 -40q0 -13 -7.5 -21.5t-15.5 -8.5q-13 0 -17.5 12t-4.5 35
v18t1 19q0 25 14.5 72.5t23.5 65.5q-7 3 -35 4t-33 1z" />
    <glyph glyph-name="Ugrave" unicode="&#x429;" horiz-adv-x="964" 
d="M788 25q-67 0 -152.5 3t-145.5 6q-101 0 -195 -13q-19 -3 -175 -31q-24 -3 -47 -7q-35 0 -35 24q3 28 4.5 41t7.5 46l39 208q6 30 26 129q13 62 18.5 107.5t7.5 63.5q7 48 37 48q13 0 17.5 -8t4.5 -25q0 -12 -1.5 -34.5t-1.5 -23.5q-3 -33 -33 -165q-17 -76 -27 -128
q-13 -67 -26 -137.5t-13 -79.5v-8q1 -1 9 -1q90 15 175.5 27t135.5 12q10 86 34 215.5t32 168.5q20 91 41.5 152.5t40.5 61.5q14 0 18 -6t4 -25l-46 -184q-29 -114 -38 -169q-22 -128 -29 -210q64 -1 161.5 -2.5t155.5 -1.5q-1 7 -1 13.5v9.5v26q0 9 37 181q19 90 53 242
q16 71 24 89q15 33 42 33q15 0 15 -18q0 -11 -5 -29q-9 -31 -17 -61l-47 -230q-5 -24 -31 -120q-18 -67 -18 -99q-1 -5 -1 -14q0 -19 -1 -23q37 0 53.5 -6t16.5 -15q0 -25 -18 -78q-22 -66 -24.5 -78t-5 -34t-2.5 -40q0 -13 -7.5 -21.5t-15.5 -8.5q-13 0 -17.5 12t-4.5 35
v18t1 19q0 25 14.5 72.5t23.5 65.5q-7 3 -35 4t-33 1z" />
    <glyph glyph-name="Uacute" unicode="&#xda;" horiz-adv-x="672" 
d="M306 406q30 12 69.5 19t70.5 7q93 0 156 -45q72 -51 72 -140q0 -105 -71 -172q-84 -79 -248 -79q-73 0 -107 11q-43 14 -55 49q-6 -21 -8 -23q-7 -11 -25 -14q-10 -1 -16.5 6.5t-6.5 12.5q0 18 12 55t24 74.5t52 157.5q24 72 57 176q28 88 28 94q0 8 -8 9t-14 1
q-12 0 -111 -17t-107 -17q-5 0 -15 -2t-13 -2q-10 0 -10 14q0 15 25.5 30.5t58.5 21.5t131 17.5t108 11.5q13 0 18.5 -6.5t5.5 -16.5q0 -4 -1 -13t-1 -12q0 -13 -28 -91q-22 -59 -43 -117zM212 110q11 1 19 -9q4 -5 11 -24q5 -18 37.5 -23.5t91.5 -5.5q105 0 173 47
q73 51 73 138q0 62 -56 104t-146 42q-28 0 -68 -10q-3 -1 -59 -17q-17 -55 -49 -158q-19 -61 -27 -84z" />
    <glyph glyph-name="Uacute" unicode="&#x42a;" horiz-adv-x="672" 
d="M306 406q30 12 69.5 19t70.5 7q93 0 156 -45q72 -51 72 -140q0 -105 -71 -172q-84 -79 -248 -79q-73 0 -107 11q-43 14 -55 49q-6 -21 -8 -23q-7 -11 -25 -14q-10 -1 -16.5 6.5t-6.5 12.5q0 18 12 55t24 74.5t52 157.5q24 72 57 176q28 88 28 94q0 8 -8 9t-14 1
q-12 0 -111 -17t-107 -17q-5 0 -15 -2t-13 -2q-10 0 -10 14q0 15 25.5 30.5t58.5 21.5t131 17.5t108 11.5q13 0 18.5 -6.5t5.5 -16.5q0 -4 -1 -13t-1 -12q0 -13 -28 -91q-22 -59 -43 -117zM212 110q11 1 19 -9q4 -5 11 -24q5 -18 37.5 -23.5t91.5 -5.5q105 0 173 47
q73 51 73 138q0 62 -56 104t-146 42q-28 0 -68 -10q-3 -1 -59 -17q-17 -55 -49 -158q-19 -61 -27 -84z" />
    <glyph glyph-name="Ucircumflex" unicode="&#xdb;" horiz-adv-x="823" 
d="M193 377q28 11 62 15t75 4q94 0 162 -46q78 -53 78 -141q0 -105 -63 -173q-79 -85 -241 -85q-71 0 -124 17t-65 52q-6 -21 -8 -23q-7 -10 -26 -14q-10 -1 -16.5 6.5t-6.5 12.5q0 16 12.5 54t24.5 75.5t39 127.5l42 140q36 121 41 139q21 70 32 97q25 59 51 59
q10 0 12.5 -3.5t2.5 -17.5q0 -13 -34.5 -134t-49.5 -162zM96 74q11 1 19 -9q4 -5 11 -24q5 -18 52.5 -28.5t103.5 -10.5q116 0 178 63q52 53 52 129q0 62 -61.5 105.5t-151.5 43.5q-28 0 -68 -10q-3 -1 -59 -17q-17 -55 -49 -158q-19 -61 -27 -84zM696 35q0 -6 1 -20.5
t1 -15.5q0 -18 -5 -27.5t-20 -9.5q-20 0 -25 23.5t-5 61.5q0 9 43.5 211t61.5 274q9 47 19 95q7 16 27 16q22 0 22 -24q0 -6 -2 -24t-2 -31q0 -21 -36 -153q-24 -87 -31 -122q-21 -99 -30 -143q-16 -77 -19 -111z" />
    <glyph glyph-name="Ucircumflex" unicode="&#x42b;" horiz-adv-x="823" 
d="M193 377q28 11 62 15t75 4q94 0 162 -46q78 -53 78 -141q0 -105 -63 -173q-79 -85 -241 -85q-71 0 -124 17t-65 52q-6 -21 -8 -23q-7 -10 -26 -14q-10 -1 -16.5 6.5t-6.5 12.5q0 16 12.5 54t24.5 75.5t39 127.5l42 140q36 121 41 139q21 70 32 97q25 59 51 59
q10 0 12.5 -3.5t2.5 -17.5q0 -13 -34.5 -134t-49.5 -162zM96 74q11 1 19 -9q4 -5 11 -24q5 -18 52.5 -28.5t103.5 -10.5q116 0 178 63q52 53 52 129q0 62 -61.5 105.5t-151.5 43.5q-28 0 -68 -10q-3 -1 -59 -17q-17 -55 -49 -158q-19 -61 -27 -84zM696 35q0 -6 1 -20.5
t1 -15.5q0 -18 -5 -27.5t-20 -9.5q-20 0 -25 23.5t-5 61.5q0 9 43.5 211t61.5 274q9 47 19 95q7 16 27 16q22 0 22 -24q0 -6 -2 -24t-2 -31q0 -21 -36 -153q-24 -87 -31 -122q-21 -99 -30 -143q-16 -77 -19 -111z" />
    <glyph glyph-name="Udieresis" unicode="&#xdc;" horiz-adv-x="619" 
d="M217 377q28 11 62 15t75 4q94 0 162 -46q78 -53 78 -141q0 -105 -63 -173q-79 -85 -241 -85q-71 0 -124 17t-65 52q-6 -21 -8 -23q-7 -10 -26 -14q-10 -1 -16.5 6.5t-6.5 12.5q0 16 12.5 54t24.5 75.5t39 127.5l42 140q36 121 41 139q21 70 32 97q25 59 51 59
q10 0 12.5 -3.5t2.5 -17.5q0 -13 -34.5 -134t-49.5 -162zM120 74q11 1 19 -9q4 -5 11 -24q5 -18 52.5 -28.5t103.5 -10.5q116 0 178 63q52 53 52 129q0 62 -61.5 105.5t-151.5 43.5q-28 0 -68 -10q-3 -1 -59 -17q-17 -55 -49 -158q-19 -61 -27 -84z" />
    <glyph glyph-name="Udieresis" unicode="&#x42c;" horiz-adv-x="619" 
d="M217 377q28 11 62 15t75 4q94 0 162 -46q78 -53 78 -141q0 -105 -63 -173q-79 -85 -241 -85q-71 0 -124 17t-65 52q-6 -21 -8 -23q-7 -10 -26 -14q-10 -1 -16.5 6.5t-6.5 12.5q0 16 12.5 54t24.5 75.5t39 127.5l42 140q36 121 41 139q21 70 32 97q25 59 51 59
q10 0 12.5 -3.5t2.5 -17.5q0 -13 -34.5 -134t-49.5 -162zM120 74q11 1 19 -9q4 -5 11 -24q5 -18 52.5 -28.5t103.5 -10.5q116 0 178 63q52 53 52 129q0 62 -61.5 105.5t-151.5 43.5q-28 0 -68 -10q-3 -1 -59 -17q-17 -55 -49 -158q-19 -61 -27 -84z" />
    <glyph glyph-name="Yacute" unicode="&#xdd;" horiz-adv-x="854" 
d="M770 348q-13 112 -95 179q-89 72 -239 72q-54 0 -122 -23q-49 -16 -69 -30q-10 -8 -21 -16t-25 -8q-9 0 -14 7.5t-5 17.5q0 26 91 64t148 38q93 0 172 -24q103 -31 163 -97q73 -80 73 -203q0 -140 -126 -225q-137 -93 -389 -93q-91 0 -177 40q-98 45 -98 105q0 18 8.5 33
t23.5 15q31 0 31 -36q0 -34 60 -69q71 -41 172 -41q88 0 167 18q105 24 171 72q81 59 98 150q-27 0 -195 -3t-230 -3q-79 0 -79 14q0 19 6.5 31.5t22.5 12.5q47 0 81 -1q169 -5 173 -5h28q15 2 20 2q110 0 175 6z" />
    <glyph glyph-name="Yacute" unicode="&#x42d;" horiz-adv-x="854" 
d="M770 348q-13 112 -95 179q-89 72 -239 72q-54 0 -122 -23q-49 -16 -69 -30q-10 -8 -21 -16t-25 -8q-9 0 -14 7.5t-5 17.5q0 26 91 64t148 38q93 0 172 -24q103 -31 163 -97q73 -80 73 -203q0 -140 -126 -225q-137 -93 -389 -93q-91 0 -177 40q-98 45 -98 105q0 18 8.5 33
t23.5 15q31 0 31 -36q0 -34 60 -69q71 -41 172 -41q88 0 167 18q105 24 171 72q81 59 98 150q-27 0 -195 -3t-230 -3q-79 0 -79 14q0 19 6.5 31.5t22.5 12.5q47 0 81 -1q169 -5 173 -5h28q15 2 20 2q110 0 175 6z" />
    <glyph glyph-name="Thorn" unicode="&#xde;" horiz-adv-x="938" 
d="M451 388q16 0 19.5 -6.5t3.5 -21.5t-12 -19.5t-40 -4.5q-21 -44 -33 -81.5t-12 -63.5q0 -98 54 -140q43 -33 122 -33q157 0 252 80q78 66 112 181q25 84 25 189q0 68 -34 109q-44 53 -139 53q-86 0 -178 -76q-79 -65 -140 -166zM362 332q-54 -6 -108 -16.5t-123 -29.5
q-23 -71 -41.5 -143.5t-22 -113.5t-31.5 -46q-30 -4 -26 28q5 49 18 116q20 102 50 193q46 136 93 237q51 110 68 108q19 0 26 -6t7 -16q0 -14 -34 -89q-88 -195 -95 -216q47 14 97.5 26t87.5 15q25 4 38.5 4.5t21.5 0.5q63 123 156 201q111 93 235 93q106 0 165 -58
q53 -52 53 -133q0 -249 -133 -391q-120 -128 -304 -128q-105 0 -162 40q-74 52 -74 170q0 63 38 154z" />
    <glyph glyph-name="Thorn" unicode="&#x42e;" horiz-adv-x="938" 
d="M451 388q16 0 19.5 -6.5t3.5 -21.5t-12 -19.5t-40 -4.5q-21 -44 -33 -81.5t-12 -63.5q0 -98 54 -140q43 -33 122 -33q157 0 252 80q78 66 112 181q25 84 25 189q0 68 -34 109q-44 53 -139 53q-86 0 -178 -76q-79 -65 -140 -166zM362 332q-54 -6 -108 -16.5t-123 -29.5
q-23 -71 -41.5 -143.5t-22 -113.5t-31.5 -46q-30 -4 -26 28q5 49 18 116q20 102 50 193q46 136 93 237q51 110 68 108q19 0 26 -6t7 -16q0 -14 -34 -89q-88 -195 -95 -216q47 14 97.5 26t87.5 15q25 4 38.5 4.5t21.5 0.5q63 123 156 201q111 93 235 93q106 0 165 -58
q53 -52 53 -133q0 -249 -133 -391q-120 -128 -304 -128q-105 0 -162 40q-74 52 -74 170q0 63 38 154z" />
    <glyph glyph-name="germandbls" unicode="&#xdf;" horiz-adv-x="750" 
d="M701 590q-12 0 -17.5 7.5t-12.5 26.5q-5 18 -50 28t-106 10q-42 0 -60 -1.5t-37 -7.5q-62 -17 -114 -60q-62 -51 -62 -104q0 -8 4 -26q13 -39 41 -70q32 -35 83 -53t128 -18q28 0 68 10q3 1 59 17q56 184 76 241zM498 223q-87 -54 -136 -82q-69 -40 -156 -83
q-54 -28 -110.5 -50.5t-72.5 -21.5q-12 0 -17 8.5t-5 19.5q0 20 61.5 46t122.5 52q89 43 166.5 86t122.5 73q-67 0 -134 24q-56 19 -95 57q-42 41 -57 97q-3 14 -4 19.5t-1 18.5q0 66 57.5 123.5t155.5 85.5q57 18 134 18q73 0 125.5 -17t64.5 -53q6 20 8 23q8 12 26 15
q10 1 16 -7t6 -13q0 -18 -12 -55t-25 -75q-29 -92 -58 -183q-33 -106 -57 -193q-18 -70 -30 -99q-23 -59 -49 -59q-16 0 -16 20q0 15 28.5 121t44.5 153q-26 -17 -48 -32q-34 -24 -56 -37z" />
    <glyph glyph-name="germandbls" unicode="&#x42f;" horiz-adv-x="750" 
d="M701 590q-12 0 -17.5 7.5t-12.5 26.5q-5 18 -50 28t-106 10q-42 0 -60 -1.5t-37 -7.5q-62 -17 -114 -60q-62 -51 -62 -104q0 -8 4 -26q13 -39 41 -70q32 -35 83 -53t128 -18q28 0 68 10q3 1 59 17q56 184 76 241zM498 223q-87 -54 -136 -82q-69 -40 -156 -83
q-54 -28 -110.5 -50.5t-72.5 -21.5q-12 0 -17 8.5t-5 19.5q0 20 61.5 46t122.5 52q89 43 166.5 86t122.5 73q-67 0 -134 24q-56 19 -95 57q-42 41 -57 97q-3 14 -4 19.5t-1 18.5q0 66 57.5 123.5t155.5 85.5q57 18 134 18q73 0 125.5 -17t64.5 -53q6 20 8 23q8 12 26 15
q10 1 16 -7t6 -13q0 -18 -12 -55t-25 -75q-29 -92 -58 -183q-33 -106 -57 -193q-18 -70 -30 -99q-23 -59 -49 -59q-16 0 -16 20q0 15 28.5 121t44.5 153q-26 -17 -48 -32q-34 -24 -56 -37z" />
    <glyph glyph-name="agrave" unicode="&#xe0;" horiz-adv-x="943" 
d="M751 12q-84 0 -139 52q-28 26 -53 75q-46 -61 -70 -78q-63 -47 -164 -47q-95 0 -138.5 38.5t-43.5 127.5q-41 -41 -70 -59t-51 -32q-28 -18 -45 -18q-10 0 -15 5.5t-5 11.5q0 8 5 15t21 17q46 32 71 51q40 30 113 91q55 45 117.5 70.5t100.5 25.5q60 0 125 -24
q77 -28 77 -65q2 2 18 24q10 14 26 14q21 0 25.5 -4.5t4.5 -21.5q0 -12 -18 -44t-18 -43q0 -47 36 -87q41 -46 105 -46q32 0 106 40q26 14 52 29q9 4 20 9t17 5q9 0 12.5 -6.5t3.5 -11.5q0 -8 -6 -15.5t-23 -16.5q-42 -26 -84 -51q-60 -31 -113 -31zM556 233q-49 43 -80 54
t-90 11q-85 0 -139 -49q-49 -45 -49 -103q0 -33 37 -56t85 -23q103 0 161 68q45 61 75 98z" />
    <glyph glyph-name="agrave" unicode="&#x430;" horiz-adv-x="943" 
d="M751 12q-84 0 -139 52q-28 26 -53 75q-46 -61 -70 -78q-63 -47 -164 -47q-95 0 -138.5 38.5t-43.5 127.5q-41 -41 -70 -59t-51 -32q-28 -18 -45 -18q-10 0 -15 5.5t-5 11.5q0 8 5 15t21 17q46 32 71 51q40 30 113 91q55 45 117.5 70.5t100.5 25.5q60 0 125 -24
q77 -28 77 -65q2 2 18 24q10 14 26 14q21 0 25.5 -4.5t4.5 -21.5q0 -12 -18 -44t-18 -43q0 -47 36 -87q41 -46 105 -46q32 0 106 40q26 14 52 29q9 4 20 9t17 5q9 0 12.5 -6.5t3.5 -11.5q0 -8 -6 -15.5t-23 -16.5q-42 -26 -84 -51q-60 -31 -113 -31zM556 233q-49 43 -80 54
t-90 11q-85 0 -139 -49q-49 -45 -49 -103q0 -33 37 -56t85 -23q103 0 161 68q45 61 75 98z" />
    <glyph glyph-name="aacute" unicode="&#xe1;" horiz-adv-x="616" 
d="M480 94q-53 -40 -98 -58.5t-88 -18.5q-98 0 -132 53q-20 31 -20 96q-28 -14 -69 -39q-31 -19 -61 -37q-15 -9 -24 -9t-13.5 8t-4.5 13q0 12 11 18q16 11 78 49l104 64q54 52 112 83.5t107 31.5q60 0 84 -6t52 -30q-14 74 -20 109q-11 63 -11 131t38 99t111 31q34 0 75 -6
q96 -14 110 -14q22 0 53 31q15 15 24 15q11 0 18 -7t6 -15q-3 -19 -30 -46q-33 -33 -66 -33q-27 0 -117 16q-45 8 -71 8q-53 0 -74.5 -16t-21.5 -63q0 -75 17 -161t17 -158q0 -68 -96 -139zM487 166q34 31 34 81q0 17 -36 32.5t-85 15.5q-103 0 -157 -59q-40 -44 -40 -94
q0 -30 21.5 -53.5t57.5 -23.5q61 0 110 26q39 21 95 75z" />
    <glyph glyph-name="aacute" unicode="&#x431;" horiz-adv-x="616" 
d="M480 94q-53 -40 -98 -58.5t-88 -18.5q-98 0 -132 53q-20 31 -20 96q-28 -14 -69 -39q-31 -19 -61 -37q-15 -9 -24 -9t-13.5 8t-4.5 13q0 12 11 18q16 11 78 49l104 64q54 52 112 83.5t107 31.5q60 0 84 -6t52 -30q-14 74 -20 109q-11 63 -11 131t38 99t111 31q34 0 75 -6
q96 -14 110 -14q22 0 53 31q15 15 24 15q11 0 18 -7t6 -15q-3 -19 -30 -46q-33 -33 -66 -33q-27 0 -117 16q-45 8 -71 8q-53 0 -74.5 -16t-21.5 -63q0 -75 17 -161t17 -158q0 -68 -96 -139zM487 166q34 31 34 81q0 17 -36 32.5t-85 15.5q-103 0 -157 -59q-40 -44 -40 -94
q0 -30 21.5 -53.5t57.5 -23.5q61 0 110 26q39 21 95 75z" />
    <glyph glyph-name="acircumflex" unicode="&#xe2;" horiz-adv-x="786" 
d="M814 104q-49 -31 -72 -40q-34 -14 -72 -14q-43 0 -93.5 20t-72.5 40q-26 -49 -58 -74q-52 -41 -136 -41q-99 0 -136 84q-12 28 -18 84q-30 -14 -48 -23q-53 -26 -89 -49q-19 -11 -30 -11q-9 0 -14.5 6.5t-5.5 13.5q0 13 14 21q3 2 87 48q47 26 93 54q26 60 55 120
q39 78 75.5 136t70.5 90q41 38 79 38t56 -25q15 -20 15 -52q0 -61 -29 -114q-24 -45 -77 -94q-43 -40 -109 -85q-51 -34 -85 -52q-2 -16 -2 -23q0 -49 25 -81q30 -38 85 -38q62 0 99 43q17 20 42 75q-4 22 -4 42q1 8 1 11q0 31 9.5 45.5t26.5 14.5q21 0 29 -11t8 -30
q0 -21 -1 -27.5t-10 -38.5q10 -20 56 -45.5t89 -25.5q29 0 51.5 8.5t61.5 29.5q7 4 14.5 7t16.5 3q11 0 15.5 -6t4.5 -10q0 -5 -5.5 -12.5t-11.5 -11.5zM458 511q1 9 1 13q0 12 -22 12t-54 -32t-61 -79q-23 -36 -51 -94q-20 -42 -39 -83q70 52 140 105q40 36 63 76t23 82z
" />
    <glyph glyph-name="acircumflex" unicode="&#x432;" horiz-adv-x="786" 
d="M814 104q-49 -31 -72 -40q-34 -14 -72 -14q-43 0 -93.5 20t-72.5 40q-26 -49 -58 -74q-52 -41 -136 -41q-99 0 -136 84q-12 28 -18 84q-30 -14 -48 -23q-53 -26 -89 -49q-19 -11 -30 -11q-9 0 -14.5 6.5t-5.5 13.5q0 13 14 21q3 2 87 48q47 26 93 54q26 60 55 120
q39 78 75.5 136t70.5 90q41 38 79 38t56 -25q15 -20 15 -52q0 -61 -29 -114q-24 -45 -77 -94q-43 -40 -109 -85q-51 -34 -85 -52q-2 -16 -2 -23q0 -49 25 -81q30 -38 85 -38q62 0 99 43q17 20 42 75q-4 22 -4 42q1 8 1 11q0 31 9.5 45.5t26.5 14.5q21 0 29 -11t8 -30
q0 -21 -1 -27.5t-10 -38.5q10 -20 56 -45.5t89 -25.5q29 0 51.5 8.5t61.5 29.5q7 4 14.5 7t16.5 3q11 0 15.5 -6t4.5 -10q0 -5 -5.5 -12.5t-11.5 -11.5zM458 511q1 9 1 13q0 12 -22 12t-54 -32t-61 -79q-23 -36 -51 -94q-20 -42 -39 -83q70 52 140 105q40 36 63 76t23 82z
" />
    <glyph glyph-name="atilde" unicode="&#xe3;" horiz-adv-x="624" 
d="M660 137q7 -12 7 -17q0 -10 -20 -24q-67 -45 -123 -65q-49 -17 -99 -17q-162 0 -162 95q0 51 103 103t103 72q0 25 -15.5 36.5t-50.5 11.5q-37 0 -110 -51q-68 -48 -135 -95q-72 -46 -109 -71q-22 -16 -43 -31q-13 -7 -20 -7t-16 9q-4 4 -4 11q0 11 16 22t62 42
q62 42 83 55q36 23 105.5 74t96.5 65q50 27 93 27q48 0 78 -33q26 -28 26 -59q0 -57 -104 -106t-104 -71q0 -32 31 -44q23 -9 73 -9q81 0 195 72q19 11 30 11q8 0 13 -6z" />
    <glyph glyph-name="atilde" unicode="&#x433;" horiz-adv-x="624" 
d="M660 137q7 -12 7 -17q0 -10 -20 -24q-67 -45 -123 -65q-49 -17 -99 -17q-162 0 -162 95q0 51 103 103t103 72q0 25 -15.5 36.5t-50.5 11.5q-37 0 -110 -51q-68 -48 -135 -95q-72 -46 -109 -71q-22 -16 -43 -31q-13 -7 -20 -7t-16 9q-4 4 -4 11q0 11 16 22t62 42
q62 42 83 55q36 23 105.5 74t96.5 65q50 27 93 27q48 0 78 -33q26 -28 26 -59q0 -57 -104 -106t-104 -71q0 -32 31 -44q23 -9 73 -9q81 0 195 72q19 11 30 11q8 0 13 -6z" />
    <glyph glyph-name="adieresis" unicode="&#xe4;" horiz-adv-x="788" 
d="M200 -456q-58 0 -93 25t-35 59q-1 6 -1 13.5v11.5q0 41 15 74q21 47 77.5 98t157.5 99q74 33 149 66q2 17 23 68q7 17 22 50q-75 -55 -129 -74q-42 -15 -92 -15q-99 0 -130 50q-14 22 -20 92q-32 -13 -70 -35q-21 -12 -60 -36q-12 -8 -24 -8q-10 0 -14.5 7.5t-4.5 13.5
q0 12 11 18q25 17 77 50q45 28 104 64q52 51 128.5 89t126.5 38q69 0 120 -16q74 -23 74 -70q0 -61 -28 -140q-22 -54 -43 -107q44 13 130 52t117 59q16 10 29 10t19.5 -9.5t6.5 -11.5q0 -6 -11 -13q-45 -29 -163 -84q-96 -45 -153 -68q-43 -107 -80 -181
q-41 -81 -81.5 -136t-65.5 -74q-38 -29 -89 -29zM528 180q10 16 14 26q14 31 12 53q0 18 -27 29q-33 14 -96 14q-104 0 -172 -61q-56 -50 -56 -97q0 -30 21.5 -53.5t57.5 -23.5q58 0 126 34q52 26 120 79zM436 -78q-23 -13 -97 -49q-111 -53 -145 -93l-46 -46
q-20 -24 -20 -65q0 -32 17.5 -51.5t48.5 -19.5q29 0 59.5 20t54.5 60q33 56 70 126q28 55 58 118z" />
    <glyph glyph-name="adieresis" unicode="&#x434;" horiz-adv-x="788" 
d="M200 -456q-58 0 -93 25t-35 59q-1 6 -1 13.5v11.5q0 41 15 74q21 47 77.5 98t157.5 99q74 33 149 66q2 17 23 68q7 17 22 50q-75 -55 -129 -74q-42 -15 -92 -15q-99 0 -130 50q-14 22 -20 92q-32 -13 -70 -35q-21 -12 -60 -36q-12 -8 -24 -8q-10 0 -14.5 7.5t-4.5 13.5
q0 12 11 18q25 17 77 50q45 28 104 64q52 51 128.5 89t126.5 38q69 0 120 -16q74 -23 74 -70q0 -61 -28 -140q-22 -54 -43 -107q44 13 130 52t117 59q16 10 29 10t19.5 -9.5t6.5 -11.5q0 -6 -11 -13q-45 -29 -163 -84q-96 -45 -153 -68q-43 -107 -80 -181
q-41 -81 -81.5 -136t-65.5 -74q-38 -29 -89 -29zM528 180q10 16 14 26q14 31 12 53q0 18 -27 29q-33 14 -96 14q-104 0 -172 -61q-56 -50 -56 -97q0 -30 21.5 -53.5t57.5 -23.5q58 0 126 34q52 26 120 79zM436 -78q-23 -13 -97 -49q-111 -53 -145 -93l-46 -46
q-20 -24 -20 -65q0 -32 17.5 -51.5t48.5 -19.5q29 0 59.5 20t54.5 60q33 56 70 126q28 55 58 118z" />
    <glyph glyph-name="aring" unicode="&#xe5;" horiz-adv-x="400" 
d="M428 102q-65 -43 -136 -70q-86 -33 -158 -33q-43 0 -70.5 23.5t-38.5 69.5q-3 -3 -12.5 -6t-19 -7t-21.5 -4q-14 0 -19 9q-4 5 0 16t15 18t26.5 13t22.5 11q0 22 0.5 41.5t6.5 54t31 61.5q35 37 97 37q35 0 62 -21q33 -25 33 -69q0 -40 -72 -83q-29 -17 -100 -48
q10 -32 26 -46.5t50 -14.5q75 0 148 30q41 17 101 54q8 6 14 8.5t14 2.5q9 0 17 -9q5 -6 0 -18.5t-17 -19.5zM190 245q-4 23 -13 31q-12 11 -33 11q-59 0 -73 -71q-2 -11 -3 -30.5t-1 -29.5q67 30 75 35q51 29 48 54z" />
    <glyph glyph-name="aring" unicode="&#x435;" horiz-adv-x="400" 
d="M428 102q-65 -43 -136 -70q-86 -33 -158 -33q-43 0 -70.5 23.5t-38.5 69.5q-3 -3 -12.5 -6t-19 -7t-21.5 -4q-14 0 -19 9q-4 5 0 16t15 18t26.5 13t22.5 11q0 22 0.5 41.5t6.5 54t31 61.5q35 37 97 37q35 0 62 -21q33 -25 33 -69q0 -40 -72 -83q-29 -17 -100 -48
q10 -32 26 -46.5t50 -14.5q75 0 148 30q41 17 101 54q8 6 14 8.5t14 2.5q9 0 17 -9q5 -6 0 -18.5t-17 -19.5zM190 245q-4 23 -13 31q-12 11 -33 11q-59 0 -73 -71q-2 -11 -3 -30.5t-1 -29.5q67 30 75 35q51 29 48 54z" />
    <glyph glyph-name="ae" unicode="&#xe6;" horiz-adv-x="1394" 
d="M198 68q7 -12 23 -19t44 -7q43 0 81 25t72 71q18 26 25 37q19 33 19 69q0 62 -94 62q-43 0 -127 -51q-60 -36 -142 -100q-45 -35 -89 -69q-15 -9 -27 -9q-13 0 -19 11q-8 15 22 37l182 142q125 89 208 89q48 0 91 -26q50 -30 50 -73q0 -45 -10 -72q-5 -15 -28 -52
q1 1 161 120q69 51 115 92q15 17 22 25q14 15 29 15q24 -2 24 -24q0 -10 -7 -23.5t-59 -144.5t-55 -140q31 26 91 68q33 23 122 82q98 64 137 90q46 30 99 46.5t92 16.5q30 0 53.5 -13.5t23.5 -31.5q0 -22 -5 -30t-15 -9q-10 0 -26.5 16.5t-33.5 18.5q-85 -11 -150 -58
q-73 -53 -73 -121q0 -32 33 -47.5t87 -15.5q85 0 135 16q38 12 99 51q20 13 34 13q10 0 18 -8q4 -4 4 -10q0 -15 -26 -31q-71 -43 -116 -60q-65 -25 -139 -25q-110 0 -155 35q-34 26 -34 74q-1 7 -1 11q0 13 3 24.5t12 29.5q-81 -50 -162 -99q-96 -62 -123 -96
q-17 -22 -38 -22q-16 0 -16 17q0 15 14 39q5 9 61 153q32 81 47 118q-54 -44 -105 -84q-77 -60 -140 -104q-79 -55 -131 -82q-29 -15 -67 -22t-79 -7q-38 0 -70.5 20t-32.5 52q0 12 9.5 20.5t22.5 8.5q10 0 18 -9q4 -4 12 -20z" />
    <glyph glyph-name="ae" unicode="&#x436;" horiz-adv-x="1394" 
d="M198 68q7 -12 23 -19t44 -7q43 0 81 25t72 71q18 26 25 37q19 33 19 69q0 62 -94 62q-43 0 -127 -51q-60 -36 -142 -100q-45 -35 -89 -69q-15 -9 -27 -9q-13 0 -19 11q-8 15 22 37l182 142q125 89 208 89q48 0 91 -26q50 -30 50 -73q0 -45 -10 -72q-5 -15 -28 -52
q1 1 161 120q69 51 115 92q15 17 22 25q14 15 29 15q24 -2 24 -24q0 -10 -7 -23.5t-59 -144.5t-55 -140q31 26 91 68q33 23 122 82q98 64 137 90q46 30 99 46.5t92 16.5q30 0 53.5 -13.5t23.5 -31.5q0 -22 -5 -30t-15 -9q-10 0 -26.5 16.5t-33.5 18.5q-85 -11 -150 -58
q-73 -53 -73 -121q0 -32 33 -47.5t87 -15.5q85 0 135 16q38 12 99 51q20 13 34 13q10 0 18 -8q4 -4 4 -10q0 -15 -26 -31q-71 -43 -116 -60q-65 -25 -139 -25q-110 0 -155 35q-34 26 -34 74q-1 7 -1 11q0 13 3 24.5t12 29.5q-81 -50 -162 -99q-96 -62 -123 -96
q-17 -22 -38 -22q-16 0 -16 17q0 15 14 39q5 9 61 153q32 81 47 118q-54 -44 -105 -84q-77 -60 -140 -104q-79 -55 -131 -82q-29 -15 -67 -22t-79 -7q-38 0 -70.5 20t-32.5 52q0 12 9.5 20.5t22.5 8.5q10 0 18 -9q4 -4 12 -20z" />
    <glyph glyph-name="ccedilla" unicode="&#xe7;" horiz-adv-x="652" 
d="M655 115q-32 -20 -72 -39q-13 -6 -137 -56q0 -68 -41 -159.5t-105 -170.5q-51 -63 -107.5 -99.5t-108.5 -36.5q-45 0 -72.5 24t-27.5 70q0 91 204 264q34 30 82 61.5t102 62.5q-15 30 -27.5 42.5t-27.5 12.5q-4 0 -16 -2t-17 -2q-19 0 -31.5 8.5t-14.5 26.5q-2 16 21 26
t83 10q35 35 53 54q33 35 29 60q-4 18 -10 29q-9 16 -25 16q-37 0 -94.5 -29.5t-144.5 -95.5q-24 -18 -77 -63q-35 -30 -57 -43q-12 -6 -24 -6t-15.5 4.5t-3.5 11.5q0 16 10 23q19 13 75 63q38 34 70 58q94 71 144 97q71 37 134 37q43 0 61 -25q12 -16 17 -49q2 -7 2 -13.5
v-12.5q0 -49 -34 -85q-10 -11 -68 -53q22 -22 30.5 -36t15.5 -40q95 44 191 89q13 8 27 8t19 -8q4 -5 0 -17t-12 -17zM393 -12q-29 -15 -72 -44q-36 -24 -79 -57q-101 -78 -123 -99q-65 -62 -77 -124q-1 -4 -1 -14q0 -19 11 -31.5t38 -12.5q34 0 82.5 35t93.5 90
q52 64 89.5 139.5t37.5 117.5z" />
    <glyph glyph-name="ccedilla" unicode="&#x437;" horiz-adv-x="652" 
d="M655 115q-32 -20 -72 -39q-13 -6 -137 -56q0 -68 -41 -159.5t-105 -170.5q-51 -63 -107.5 -99.5t-108.5 -36.5q-45 0 -72.5 24t-27.5 70q0 91 204 264q34 30 82 61.5t102 62.5q-15 30 -27.5 42.5t-27.5 12.5q-4 0 -16 -2t-17 -2q-19 0 -31.5 8.5t-14.5 26.5q-2 16 21 26
t83 10q35 35 53 54q33 35 29 60q-4 18 -10 29q-9 16 -25 16q-37 0 -94.5 -29.5t-144.5 -95.5q-24 -18 -77 -63q-35 -30 -57 -43q-12 -6 -24 -6t-15.5 4.5t-3.5 11.5q0 16 10 23q19 13 75 63q38 34 70 58q94 71 144 97q71 37 134 37q43 0 61 -25q12 -16 17 -49q2 -7 2 -13.5
v-12.5q0 -49 -34 -85q-10 -11 -68 -53q22 -22 30.5 -36t15.5 -40q95 44 191 89q13 8 27 8t19 -8q4 -5 0 -17t-12 -17zM393 -12q-29 -15 -72 -44q-36 -24 -79 -57q-101 -78 -123 -99q-65 -62 -77 -124q-1 -4 -1 -14q0 -19 11 -31.5t38 -12.5q34 0 82.5 35t93.5 90
q52 64 89.5 139.5t37.5 117.5z" />
    <glyph glyph-name="egrave" unicode="&#xe8;" horiz-adv-x="1027" 
d="M1051 94q-57 -33 -86 -44q-51 -20 -106 -20q-95 0 -150 19q-32 11 -111 79q-62 -37 -123 -74q-89 -43 -189 -43q-106 0 -155 53q-34 37 -34 86q-19 -20 -41 -36q-4 -3 -49 -31q-6 -3 -13 -3q-17 0 -23 12q-2 5 2 15.5t14 17.5l24 15q29 19 55 50q40 57 65 89q47 61 75 65
q14 2 20.5 -8.5t6.5 -27.5q0 -10 -35 -51t-35 -97q0 -52 38 -77q29 -19 77 -19q97 0 175 35q62 28 113 80q33 32 79 95q32 44 46 44q16 0 29.5 -4t13.5 -15q0 -42 -38 -89q-21 -25 -41 -50q21 -35 59 -54q55 -28 143 -28q35 0 77 13t85 41q14 10 27 10t20 -10q4 -7 4 -14
q0 -14 -19 -24z" />
    <glyph glyph-name="egrave" unicode="&#x438;" horiz-adv-x="1027" 
d="M1051 94q-57 -33 -86 -44q-51 -20 -106 -20q-95 0 -150 19q-32 11 -111 79q-62 -37 -123 -74q-89 -43 -189 -43q-106 0 -155 53q-34 37 -34 86q-19 -20 -41 -36q-4 -3 -49 -31q-6 -3 -13 -3q-17 0 -23 12q-2 5 2 15.5t14 17.5l24 15q29 19 55 50q40 57 65 89q47 61 75 65
q14 2 20.5 -8.5t6.5 -27.5q0 -10 -35 -51t-35 -97q0 -52 38 -77q29 -19 77 -19q97 0 175 35q62 28 113 80q33 32 79 95q32 44 46 44q16 0 29.5 -4t13.5 -15q0 -42 -38 -89q-21 -25 -41 -50q21 -35 59 -54q55 -28 143 -28q35 0 77 13t85 41q14 10 27 10t20 -10q4 -7 4 -14
q0 -14 -19 -24z" />
    <glyph glyph-name="eacute" unicode="&#xe9;" horiz-adv-x="1026" 
d="M1056 98q-53 -33 -86 -46q-52 -21 -107 -21q-96 0 -150 19q-32 11 -112 80q-122 -74 -123 -75q-88 -43 -189 -43q-107 0 -155 48q-34 34 -34 82l-89 -58q-5 -3 -11 -3q-17 0 -25 13q-6 8 1.5 19.5t15.5 16.5q20 13 39 28.5t40 35.5q41 56 65 88q45 60 74 64q8 0 13 -3
q13 -7 13 -33q0 -11 -34.5 -52.5t-34.5 -96.5q0 -53 37 -77q29 -19 78 -19q96 0 174 35q62 28 114 80q32 31 79 96q31 43 46 43t29 -4t14 -15q0 -42 -38 -89q-21 -25 -41 -50q20 -34 58 -54q54 -28 143 -28q34 0 75 12.5t90 42.5q14 9 25 9q13 0 20 -9q4 -4 4 -10
q0 -14 -18 -26zM783 592q8 0 14 -7t6 -16q0 -17 -42 -54t-96 -62q-41 -20 -94 -29.5t-97 -9.5q-39 0 -77 23t-47 57q-3 12 -3 21q0 22 26 26q19 3 31 -10q5 -5 19 -30q9 -15 27 -25t39 -10q6 -1 11.5 -1h11.5q37 0 77 11q10 3 46.5 15.5t76.5 42.5q35 29 71 58z" />
    <glyph glyph-name="eacute" unicode="&#x439;" horiz-adv-x="1026" 
d="M1056 98q-53 -33 -86 -46q-52 -21 -107 -21q-96 0 -150 19q-32 11 -112 80q-122 -74 -123 -75q-88 -43 -189 -43q-107 0 -155 48q-34 34 -34 82l-89 -58q-5 -3 -11 -3q-17 0 -25 13q-6 8 1.5 19.5t15.5 16.5q20 13 39 28.5t40 35.5q41 56 65 88q45 60 74 64q8 0 13 -3
q13 -7 13 -33q0 -11 -34.5 -52.5t-34.5 -96.5q0 -53 37 -77q29 -19 78 -19q96 0 174 35q62 28 114 80q32 31 79 96q31 43 46 43t29 -4t14 -15q0 -42 -38 -89q-21 -25 -41 -50q20 -34 58 -54q54 -28 143 -28q34 0 75 12.5t90 42.5q14 9 25 9q13 0 20 -9q4 -4 4 -10
q0 -14 -18 -26zM783 592q8 0 14 -7t6 -16q0 -17 -42 -54t-96 -62q-41 -20 -94 -29.5t-97 -9.5q-39 0 -77 23t-47 57q-3 12 -3 21q0 22 26 26q19 3 31 -10q5 -5 19 -30q9 -15 27 -25t39 -10q6 -1 11.5 -1h11.5q37 0 77 11q10 3 46.5 15.5t76.5 42.5q35 29 71 58z" />
    <glyph glyph-name="ecircumflex" unicode="&#xea;" horiz-adv-x="696" 
d="M217 229q21 -5 43 -9q52 0 123 36q77 39 101 86q7 17 15 34q12 21 25 21q17 0 22 -9.5t5 -38.5q0 -61 -112 -123q-102 -57 -169 -57q32 -44 79.5 -71.5t102.5 -27.5q57 0 118.5 14.5t112.5 43.5q30 17 36 17t14 -8q5 -5 5 -10q0 -11 -22 -27q-53 -36 -124 -59t-118 -23
q-110 0 -193 59q-60 43 -93 103q-51 -97 -79.5 -130.5t-50.5 -33.5q-5 0 -10.5 4.5t-4.5 10.5q3 18 22 50.5t39 64.5l-88 -58q-27 -17 -39 -17q-7 0 -12 9q-2 6 -2 13q0 17 14 27q71 47 103 74q28 23 77 76q12 13 84 117q23 34 34 34q10 0 17.5 -0.5t7.5 -6.5l-2 -10
q-6 -20 -26 -64q-24 -53 -55 -111z" />
    <glyph glyph-name="ecircumflex" unicode="&#x43a;" horiz-adv-x="696" 
d="M217 229q21 -5 43 -9q52 0 123 36q77 39 101 86q7 17 15 34q12 21 25 21q17 0 22 -9.5t5 -38.5q0 -61 -112 -123q-102 -57 -169 -57q32 -44 79.5 -71.5t102.5 -27.5q57 0 118.5 14.5t112.5 43.5q30 17 36 17t14 -8q5 -5 5 -10q0 -11 -22 -27q-53 -36 -124 -59t-118 -23
q-110 0 -193 59q-60 43 -93 103q-51 -97 -79.5 -130.5t-50.5 -33.5q-5 0 -10.5 4.5t-4.5 10.5q3 18 22 50.5t39 64.5l-88 -58q-27 -17 -39 -17q-7 0 -12 9q-2 6 -2 13q0 17 14 27q71 47 103 74q28 23 77 76q12 13 84 117q23 34 34 34q10 0 17.5 -0.5t7.5 -6.5l-2 -10
q-6 -20 -26 -64q-24 -53 -55 -111z" />
    <glyph glyph-name="edieresis" unicode="&#xeb;" horiz-adv-x="828" 
d="M850 97q-79 -51 -112 -67q-74 -35 -150 -35q-60 0 -92.5 23t-32.5 54q0 33 56 112t56 90q0 28 -29 28q-35 0 -106 -61q-20 -17 -121 -114q-60 -59 -92 -83q-52 -39 -90 -39q-64 0 -104 37q-33 31 -33 61q0 18 4.5 27t21.5 9q13 0 38.5 -40.5t72.5 -40.5q18 0 59.5 31.5
t91.5 78.5q91 86 130 116q86 66 142 66q40 0 59 -24q15 -19 15 -48q0 -24 -55 -100t-55 -92q0 -24 18.5 -33.5t63.5 -9.5q54 0 122 34q24 12 95 57q13 8 23 8q13 0 19 -11q1 -2 2.5 -4t1.5 -6q0 -11 -19 -24z" />
    <glyph glyph-name="edieresis" unicode="&#x43b;" horiz-adv-x="828" 
d="M850 97q-79 -51 -112 -67q-74 -35 -150 -35q-60 0 -92.5 23t-32.5 54q0 33 56 112t56 90q0 28 -29 28q-35 0 -106 -61q-20 -17 -121 -114q-60 -59 -92 -83q-52 -39 -90 -39q-64 0 -104 37q-33 31 -33 61q0 18 4.5 27t21.5 9q13 0 38.5 -40.5t72.5 -40.5q18 0 59.5 31.5
t91.5 78.5q91 86 130 116q86 66 142 66q40 0 59 -24q15 -19 15 -48q0 -24 -55 -100t-55 -92q0 -24 18.5 -33.5t63.5 -9.5q54 0 122 34q24 12 95 57q13 8 23 8q13 0 19 -11q1 -2 2.5 -4t1.5 -6q0 -11 -19 -24z" />
    <glyph glyph-name="igrave" unicode="&#xec;" horiz-adv-x="1399" 
d="M143 5q-63 0 -107 38q-36 31 -36 60q0 22 9.5 32.5t24.5 10.5q12 0 37 -44t72 -44q65 0 162 59q79 48 123 95q48 79 74 118.5t49 42.5q10 0 19.5 -9.5t9.5 -25.5q0 -7 -2 -15.5t-27.5 -49.5t-31.5 -76q-1 -8 -1.5 -17t-0.5 -14q0 -46 20.5 -78t36.5 -34t28 -2
q65 0 162 50q82 42 150 99q28 24 56.5 60.5t56.5 74.5q12 12 28 12q26 0 26 -27q0 -18 -35 -86q-17 -33 -17 -57q0 -59 37.5 -96.5t105.5 -37.5q30 0 98 26.5t114 55.5q22 14 33 14q3 0 16 -10q4 -4 4 -10q0 -12 -25 -29q-46 -31 -126 -63q-91 -36 -146 -36q-108 0 -150 60
q-24 34 -33 114q-44 -49 -162 -109q-134 -68 -224 -68q-54 0 -87 59q-28 50 -28 112q-55 -54 -137 -99q-102 -56 -176 -56z" />
    <glyph glyph-name="igrave" unicode="&#x43c;" horiz-adv-x="1399" 
d="M143 5q-63 0 -107 38q-36 31 -36 60q0 22 9.5 32.5t24.5 10.5q12 0 37 -44t72 -44q65 0 162 59q79 48 123 95q48 79 74 118.5t49 42.5q10 0 19.5 -9.5t9.5 -25.5q0 -7 -2 -15.5t-27.5 -49.5t-31.5 -76q-1 -8 -1.5 -17t-0.5 -14q0 -46 20.5 -78t36.5 -34t28 -2
q65 0 162 50q82 42 150 99q28 24 56.5 60.5t56.5 74.5q12 12 28 12q26 0 26 -27q0 -18 -35 -86q-17 -33 -17 -57q0 -59 37.5 -96.5t105.5 -37.5q30 0 98 26.5t114 55.5q22 14 33 14q3 0 16 -10q4 -4 4 -10q0 -12 -25 -29q-46 -31 -126 -63q-91 -36 -146 -36q-108 0 -150 60
q-24 34 -33 114q-44 -49 -162 -109q-134 -68 -224 -68q-54 0 -87 59q-28 50 -28 112q-55 -54 -137 -99q-102 -56 -176 -56z" />
    <glyph glyph-name="iacute" unicode="&#xed;" horiz-adv-x="912" 
d="M670 54q47 0 112.5 23.5t121.5 56.5q24 15 37 15q8 0 14 -6t6 -13q0 -14 -21 -28q-60 -37 -139.5 -67t-123.5 -30q-82 0 -127 15q-58 19 -58 66q0 34 6 52.5t31 61.5q-42 -21 -105.5 -35t-130.5 -14h-54q-19 0 -37 1t-36 4q-27 -50 -53 -99q-27 -43 -53 -43q-17 0 -14 16
q2 16 32 68q22 37 31 56l-96 -66q-12 -8 -26 -8q-11 0 -16 7t-5 13q0 11 12 20q82 53 122 90q18 17 60 59q18 18 59 77q32 45 44 45q10 0 17.5 -0.5t7.5 -6.5l-2 -10q-3 -10 -46 -85q-31 -54 -47 -84q6 -2 28 -3t49 -1h11q14 0 32.5 0.5t36.5 3.5l108 16q109 28 156 94
l24 32q18 22 30 23q17 0 17 -15q0 -5 -2 -24t-30 -57q-4 -5 -39 -51q-23 -31 -41.5 -68.5t-18.5 -53.5q0 -21 25.5 -34t90.5 -13z" />
    <glyph glyph-name="iacute" unicode="&#x43d;" horiz-adv-x="912" 
d="M670 54q47 0 112.5 23.5t121.5 56.5q24 15 37 15q8 0 14 -6t6 -13q0 -14 -21 -28q-60 -37 -139.5 -67t-123.5 -30q-82 0 -127 15q-58 19 -58 66q0 34 6 52.5t31 61.5q-42 -21 -105.5 -35t-130.5 -14h-54q-19 0 -37 1t-36 4q-27 -50 -53 -99q-27 -43 -53 -43q-17 0 -14 16
q2 16 32 68q22 37 31 56l-96 -66q-12 -8 -26 -8q-11 0 -16 7t-5 13q0 11 12 20q82 53 122 90q18 17 60 59q18 18 59 77q32 45 44 45q10 0 17.5 -0.5t7.5 -6.5l-2 -10q-3 -10 -46 -85q-31 -54 -47 -84q6 -2 28 -3t49 -1h11q14 0 32.5 0.5t36.5 3.5l108 16q109 28 156 94
l24 32q18 22 30 23q17 0 17 -15q0 -5 -2 -24t-30 -57q-4 -5 -39 -51q-23 -31 -41.5 -68.5t-18.5 -53.5q0 -21 25.5 -34t90.5 -13z" />
    <glyph glyph-name="icircumflex" unicode="&#xee;" horiz-adv-x="721" 
d="M743 103q-89 -55 -216 -77q-46 -8 -83 -10t-102 -2q-139 0 -184 46q-27 28 -27 96q-17 -12 -49 -30q-42 -23 -60 -34t-33 -11q-12 0 -18 7q-4 5 0 17t12.5 17t116.5 77.5t177 110.5q101 55 147 55q52 0 113.5 -62.5t61.5 -120.5q0 -28 -32 -67t-67 -50q46 0 115 26
q56 21 94 45q5 3 12.5 6.5t16.5 3.5t17 -8q7 -11 7 -14q0 -9 -19 -21zM544 185q0 39 -44 83t-81 44q-41 0 -103 -43q-29 -21 -60.5 -43t-36.5 -26q-33 -27 -33 -61q0 -37 34 -50q27 -10 93 -10q83 0 152 28q79 32 79 78z" />
    <glyph glyph-name="icircumflex" unicode="&#x43e;" horiz-adv-x="721" 
d="M743 103q-89 -55 -216 -77q-46 -8 -83 -10t-102 -2q-139 0 -184 46q-27 28 -27 96q-17 -12 -49 -30q-42 -23 -60 -34t-33 -11q-12 0 -18 7q-4 5 0 17t12.5 17t116.5 77.5t177 110.5q101 55 147 55q52 0 113.5 -62.5t61.5 -120.5q0 -28 -32 -67t-67 -50q46 0 115 26
q56 21 94 45q5 3 12.5 6.5t16.5 3.5t17 -8q7 -11 7 -14q0 -9 -19 -21zM544 185q0 39 -44 83t-81 44q-41 0 -103 -43q-29 -21 -60.5 -43t-36.5 -26q-33 -27 -33 -61q0 -37 34 -50q27 -10 93 -10q83 0 152 28q79 32 79 78z" />
    <glyph glyph-name="idieresis" unicode="&#xef;" horiz-adv-x="1096" 
d="M1112 96q-64 -39 -96 -50q-51 -18 -128 -18q-60 0 -92.5 18t-32.5 44q0 28 12 75t12 59q0 13 -7 21t-22 8q-84 0 -193 -48q-71 -34 -102 -48q-10 -9 -58 -67q-35 -43 -55 -43q-14 0 -26 13t-12 28q0 4 33 43q17 20 29 38q3 20 -16 39t-48 19q-22 0 -43 -7q-4 -2 -80 -36
q-44 -21 -86.5 -45t-83.5 -47q-23 -12 -38 -12q-8 0 -13 5q-6 10 -1 18.5t18 17.5q89 58 144 88q121 66 180 66q57 0 97 -16t40 -49q97 47 189 71q77 20 140 20q51 0 66 -27q8 -14 8 -50q0 -22 -10.5 -60t-10.5 -55q0 -25 23 -32q13 -4 49 -4q56 0 115 22q29 11 73 35
q1 1 20 11q11 6 17 6q8 0 12.5 -7.5t4.5 -12.5q0 -15 -28 -31z" />
    <glyph glyph-name="idieresis" unicode="&#x43f;" horiz-adv-x="1096" 
d="M1112 96q-64 -39 -96 -50q-51 -18 -128 -18q-60 0 -92.5 18t-32.5 44q0 28 12 75t12 59q0 13 -7 21t-22 8q-84 0 -193 -48q-71 -34 -102 -48q-10 -9 -58 -67q-35 -43 -55 -43q-14 0 -26 13t-12 28q0 4 33 43q17 20 29 38q3 20 -16 39t-48 19q-22 0 -43 -7q-4 -2 -80 -36
q-44 -21 -86.5 -45t-83.5 -47q-23 -12 -38 -12q-8 0 -13 5q-6 10 -1 18.5t18 17.5q89 58 144 88q121 66 180 66q57 0 97 -16t40 -49q97 47 189 71q77 20 140 20q51 0 66 -27q8 -14 8 -50q0 -22 -10.5 -60t-10.5 -55q0 -25 23 -32q13 -4 49 -4q56 0 115 22q29 11 73 35
q1 1 20 11q11 6 17 6q8 0 12.5 -7.5t4.5 -12.5q0 -15 -28 -31z" />
    <glyph glyph-name="eth" unicode="&#xf0;" horiz-adv-x="864" 
d="M853 128q19 13 31 13q11 0 18 -9q4 -5 4 -11q0 -9 -6 -15.5t-16 -11.5q-61 -39 -162 -56q-41 -6 -75.5 -7.5t-92.5 -1.5q-99 0 -157 36q-49 31 -49 69q0 20 10 32t28 12q4 0 22 -36t62 -36q80 0 149.5 48.5t69.5 102.5q0 37 -41 53q-30 12 -77 12q-86 0 -163 -40
q-67 -35 -127 -100q-55 -57 -106 -134q-40 -59 -76 -128l-46 -90q-32 -77 -56 -120.5t-40 -43.5q-11 0 -16.5 7.5t-7.5 19.5q-4 23 17 64q5 10 28.5 49.5t114.5 199.5q63 111 99 164q-29 -16 -88 -38q-51 -19 -81 -37q-23 -13 -33 -13q-9 0 -14 8.5t-5 13.5q0 13 10 18
q31 21 83 42q125 51 164 76q22 20 79 97q37 49 63 49q19 0 16 -19q-1 -16 -7 -33q41 13 83 27q51 13 124 13q63 0 107 -29q53 -35 53 -100q0 -51 -60 -105q-52 -47 -108 -66q38 -3 62 -3q21 0 42 2.5t58.5 9t58 14t54.5 31.5z" />
    <glyph glyph-name="eth" unicode="&#x440;" horiz-adv-x="864" 
d="M853 128q19 13 31 13q11 0 18 -9q4 -5 4 -11q0 -9 -6 -15.5t-16 -11.5q-61 -39 -162 -56q-41 -6 -75.5 -7.5t-92.5 -1.5q-99 0 -157 36q-49 31 -49 69q0 20 10 32t28 12q4 0 22 -36t62 -36q80 0 149.5 48.5t69.5 102.5q0 37 -41 53q-30 12 -77 12q-86 0 -163 -40
q-67 -35 -127 -100q-55 -57 -106 -134q-40 -59 -76 -128l-46 -90q-32 -77 -56 -120.5t-40 -43.5q-11 0 -16.5 7.5t-7.5 19.5q-4 23 17 64q5 10 28.5 49.5t114.5 199.5q63 111 99 164q-29 -16 -88 -38q-51 -19 -81 -37q-23 -13 -33 -13q-9 0 -14 8.5t-5 13.5q0 13 10 18
q31 21 83 42q125 51 164 76q22 20 79 97q37 49 63 49q19 0 16 -19q-1 -16 -7 -33q41 13 83 27q51 13 124 13q63 0 107 -29q53 -35 53 -100q0 -51 -60 -105q-52 -47 -108 -66q38 -3 62 -3q21 0 42 2.5t58.5 9t58 14t54.5 31.5z" />
    <glyph glyph-name="ntilde" unicode="&#xf1;" horiz-adv-x="622" 
d="M637 94q-101 -59 -155.5 -71.5t-149.5 -12.5q-107 0 -164 46q-29 23 -62 86l-89 -50q-12 -7 -24 -7q-7 0 -10 4q-6 8 -6 16q0 10 9 15q23 16 52 36q34 24 68 49q3 38 80 96q84 63 158 63q51 0 88 -22q32 -19 30 -35q-3 -22 -11.5 -33t-28.5 -11q-18 0 -38 25t-42 25
q-47 0 -111 -44q-71 -49 -71 -100q0 -49 48 -80t126 -31q84 0 149 17t123 52q19 11 33 11q8 0 12.5 -6.5t4.5 -14.5q0 -12 -19 -23z" />
    <glyph glyph-name="ntilde" unicode="&#x441;" horiz-adv-x="622" 
d="M637 94q-101 -59 -155.5 -71.5t-149.5 -12.5q-107 0 -164 46q-29 23 -62 86l-89 -50q-12 -7 -24 -7q-7 0 -10 4q-6 8 -6 16q0 10 9 15q23 16 52 36q34 24 68 49q3 38 80 96q84 63 158 63q51 0 88 -22q32 -19 30 -35q-3 -22 -11.5 -33t-28.5 -11q-18 0 -38 25t-42 25
q-47 0 -111 -44q-71 -49 -71 -100q0 -49 48 -80t126 -31q84 0 149 17t123 52q19 11 33 11q8 0 12.5 -6.5t4.5 -14.5q0 -12 -19 -23z" />
    <glyph glyph-name="ograve" unicode="&#xf2;" horiz-adv-x="1438" 
d="M1471 128q3 -5 3 -11q0 -16 -21 -31q-58 -37 -114 -56.5t-120 -19.5q-68 0 -100 18.5t-32 65.5q0 15 10 36.5t21 44.5q2 9 0 21t-9 13q-28 0 -110 -46q-72 -43 -147 -87.5t-96 -44.5q-47 0 -47 42q1 7 1 11q1 6 33 77q13 29 13 50q0 13 -2 19q-12 44 -60 44
q-63 0 -106 -15.5t-108 -62.5q-20 -14 -88 -124q-22 -36 -54 -36q-12 0 -18 11t-2 21q30 43 48 76t18 59q0 20 -10 39q-5 10 -14.5 13.5t-23.5 3.5h-13q-9 -2 -13 -2q-34 -4 -71 -20.5t-78 -42.5q-34 -22 -86 -61q-47 -35 -62 -44.5t-26 -9.5q-7 0 -12 5.5t-5 14.5
q0 13 14 23l146 106q53 37 92 55q57 27 109 27q49 0 75 -17q2 -1 43 -41q62 28 125 57q62 25 132 25q53 0 79 -29q23 -25 23 -71q0 -21 -3.5 -37t-22.5 -60q-9 -21 -9 -27t4 -9t8 -3q112 65 198 114q95 54 157 54q26 0 40.5 -17.5t14.5 -42.5q0 -29 -21.5 -62t-21.5 -58
q0 -15 19.5 -19.5t57.5 -4.5q31 0 99 24q32 11 99 39q16 7 32 7q9 0 12 -4z" />
    <glyph glyph-name="ograve" unicode="&#x442;" horiz-adv-x="1438" 
d="M1471 128q3 -5 3 -11q0 -16 -21 -31q-58 -37 -114 -56.5t-120 -19.5q-68 0 -100 18.5t-32 65.5q0 15 10 36.5t21 44.5q2 9 0 21t-9 13q-28 0 -110 -46q-72 -43 -147 -87.5t-96 -44.5q-47 0 -47 42q1 7 1 11q1 6 33 77q13 29 13 50q0 13 -2 19q-12 44 -60 44
q-63 0 -106 -15.5t-108 -62.5q-20 -14 -88 -124q-22 -36 -54 -36q-12 0 -18 11t-2 21q30 43 48 76t18 59q0 20 -10 39q-5 10 -14.5 13.5t-23.5 3.5h-13q-9 -2 -13 -2q-34 -4 -71 -20.5t-78 -42.5q-34 -22 -86 -61q-47 -35 -62 -44.5t-26 -9.5q-7 0 -12 5.5t-5 14.5
q0 13 14 23l146 106q53 37 92 55q57 27 109 27q49 0 75 -17q2 -1 43 -41q62 28 125 57q62 25 132 25q53 0 79 -29q23 -25 23 -71q0 -21 -3.5 -37t-22.5 -60q-9 -21 -9 -27t4 -9t8 -3q112 65 198 114q95 54 157 54q26 0 40.5 -17.5t14.5 -42.5q0 -29 -21.5 -62t-21.5 -58
q0 -15 19.5 -19.5t57.5 -4.5q31 0 99 24q32 11 99 39q16 7 32 7q9 0 12 -4z" />
    <glyph glyph-name="oacute" unicode="&#xf3;" horiz-adv-x="667" 
d="M602 295q-5 -28 -50 -100q-15 -24 -89 -133q52 11 96 25q58 19 90 38q20 12 31 12q10 0 17 -10q4 -6 4 -11t-3 -11t-19 -16q-34 -21 -121 -55t-128 -44q-52 -94 -149 -249q-62 -96 -109 -143q-57 -56 -107 -56q-48 0 -66 20q-21 23 -21 73q0 66 48 126q32 40 116 109
q63 52 129 95q76 47 120 75l36 66q-45 -17 -71 -25q-81 -26 -118 -26q-65 0 -92.5 13.5t-29.5 33.5q0 12 1.5 32t1.5 22q-32 -22 -47.5 -32.5t-55.5 -34.5q-12 -7 -26 -7q-11 0 -16.5 6t-5.5 14q0 12 13 20q18 12 80 45q43 23 66 41q7 43 32 68t49 25q17 0 23.5 -5.5
t6.5 -30.5q0 -18 -30 -49t-30 -53q-1 -17 -1 -25q0 -17 8 -25.5t33 -8.5q87 0 142 28q31 16 114 85q18 15 52 73q26 44 52 44q12 0 19 -12.5t5 -26.5zM362 -24q-18 -17 -71 -54q-61 -42 -116 -88q-91 -76 -98 -84q-43 -48 -43 -117q0 -24 17 -32q8 -4 26 -4q24 0 71.5 49.5
t89.5 113.5q34 52 86 149q22 41 38 67z" />
    <glyph glyph-name="oacute" unicode="&#x443;" horiz-adv-x="667" 
d="M602 295q-5 -28 -50 -100q-15 -24 -89 -133q52 11 96 25q58 19 90 38q20 12 31 12q10 0 17 -10q4 -6 4 -11t-3 -11t-19 -16q-34 -21 -121 -55t-128 -44q-52 -94 -149 -249q-62 -96 -109 -143q-57 -56 -107 -56q-48 0 -66 20q-21 23 -21 73q0 66 48 126q32 40 116 109
q63 52 129 95q76 47 120 75l36 66q-45 -17 -71 -25q-81 -26 -118 -26q-65 0 -92.5 13.5t-29.5 33.5q0 12 1.5 32t1.5 22q-32 -22 -47.5 -32.5t-55.5 -34.5q-12 -7 -26 -7q-11 0 -16.5 6t-5.5 14q0 12 13 20q18 12 80 45q43 23 66 41q7 43 32 68t49 25q17 0 23.5 -5.5
t6.5 -30.5q0 -18 -30 -49t-30 -53q-1 -17 -1 -25q0 -17 8 -25.5t33 -8.5q87 0 142 28q31 16 114 85q18 15 52 73q26 44 52 44q12 0 19 -12.5t5 -26.5zM362 -24q-18 -17 -71 -54q-61 -42 -116 -88q-91 -76 -98 -84q-43 -48 -43 -117q0 -24 17 -32q8 -4 26 -4q24 0 71.5 49.5
t89.5 113.5q34 52 86 149q22 41 38 67z" />
    <glyph glyph-name="ocircumflex" unicode="&#xf4;" horiz-adv-x="1140" 
d="M506 197q22 29 22 65q0 30 -19 48q-23 21 -70 21q-37 0 -99 -34q-32 -17 -93 -59q-31 -22 -48 -44q-21 -27 -21 -57q0 -40 25.5 -52.5t89.5 -12.5q66 0 115 28.5t98 96.5zM593 137q19 -35 30 -45q20 -18 63 -18q85 0 186 54t101 105q0 43 -13.5 61t-49.5 18
q-92 0 -150 -27.5t-131 -104.5q-13 -13 -19 -19.5t-17 -23.5zM550 101q-36 -57 -91 -156q-34 -62 -68 -125q-23 -54 -41 -91q-35 -72 -55 -72q-18 0 -24 26q-3 18 15 53.5t36 69.5q34 77 71.5 144.5t69.5 109.5q-56 -25 -108 -36.5t-96 -11.5q-68 0 -105 46q-32 40 -32 96
q-20 -15 -47 -29.5t-53 -29.5t-46 -15q-10 0 -13 5q-4 5 5 20t20 22q79 58 136.5 98.5t108.5 69.5q63 36 116 60q65 29 95 29q72 0 105 -30q30 -27 30 -76q0 -7 -0.5 -15t-3.5 -23q84 171 136 269q56 105 88 113q10 2 12 2q14 0 20.5 -11t6.5 -28q0 -8 -2 -22
q-6 -26 -43.5 -82t-74.5 -110q-47 -69 -63 -104q73 45 115 63q81 35 154 35q107 0 107 -144q0 -60 -133 -132q-52 -28 -104 -46q30 -3 50 -3q27 0 53 4q36 7 64 12t81.5 28.5t85.5 45.5q14 9 25.5 13.5t18.5 4.5q9 0 17 -10q5 -8 -4 -20t-28 -24q-37 -25 -104 -52t-115 -35
q-27 -5 -60.5 -7t-63.5 -2h-44q-104 0 -152 25q-41 21 -68 78z" />
    <glyph glyph-name="ocircumflex" unicode="&#x444;" horiz-adv-x="1140" 
d="M506 197q22 29 22 65q0 30 -19 48q-23 21 -70 21q-37 0 -99 -34q-32 -17 -93 -59q-31 -22 -48 -44q-21 -27 -21 -57q0 -40 25.5 -52.5t89.5 -12.5q66 0 115 28.5t98 96.5zM593 137q19 -35 30 -45q20 -18 63 -18q85 0 186 54t101 105q0 43 -13.5 61t-49.5 18
q-92 0 -150 -27.5t-131 -104.5q-13 -13 -19 -19.5t-17 -23.5zM550 101q-36 -57 -91 -156q-34 -62 -68 -125q-23 -54 -41 -91q-35 -72 -55 -72q-18 0 -24 26q-3 18 15 53.5t36 69.5q34 77 71.5 144.5t69.5 109.5q-56 -25 -108 -36.5t-96 -11.5q-68 0 -105 46q-32 40 -32 96
q-20 -15 -47 -29.5t-53 -29.5t-46 -15q-10 0 -13 5q-4 5 5 20t20 22q79 58 136.5 98.5t108.5 69.5q63 36 116 60q65 29 95 29q72 0 105 -30q30 -27 30 -76q0 -7 -0.5 -15t-3.5 -23q84 171 136 269q56 105 88 113q10 2 12 2q14 0 20.5 -11t6.5 -28q0 -8 -2 -22
q-6 -26 -43.5 -82t-74.5 -110q-47 -69 -63 -104q73 45 115 63q81 35 154 35q107 0 107 -144q0 -60 -133 -132q-52 -28 -104 -46q30 -3 50 -3q27 0 53 4q36 7 64 12t81.5 28.5t85.5 45.5q14 9 25.5 13.5t18.5 4.5q9 0 17 -10q5 -8 -4 -20t-28 -24q-37 -25 -104 -52t-115 -35
q-27 -5 -60.5 -7t-63.5 -2h-44q-104 0 -152 25q-41 21 -68 78z" />
    <glyph glyph-name="otilde" unicode="&#xf5;" horiz-adv-x="878" 
d="M886 142q10 7 29 7q12 0 17 -5q5 -7 0 -18.5t-12 -16.5q-69 -44 -111 -58q-61 -20 -160 -20q-93 0 -127 14q-25 10 -62 56q-67 -50 -142 -73q-58 -18 -110 -18q-27 0 -52 23t-25 56q0 20 7 36.5t23 13.5q24 -5 24 -33q0 -48 59 -48q37 0 87.5 26.5t100.5 54.5q0 34 17 69
q10 21 29 46q-10 27 -38.5 40t-56.5 13q-45 0 -131 -51q-56 -33 -147 -101q-46 -35 -92 -69q-14 -9 -25 -9t-14.5 8.5t-3.5 15.5q0 12 14 21l194 146q136 94 219 94q40 0 79 -26l48 -34q56 40 67 46q45 22 116 22q30 0 52.5 -13t24.5 -33q0 -15 -4.5 -26.5t-16.5 -11.5
q-9 0 -27 18t-42 18q-53 0 -115 -45q-73 -53 -83 -123q-4 -30 27 -51q39 -26 117 -26q102 0 142.5 11.5t103.5 53.5z" />
    <glyph glyph-name="otilde" unicode="&#x445;" horiz-adv-x="878" 
d="M886 142q10 7 29 7q12 0 17 -5q5 -7 0 -18.5t-12 -16.5q-69 -44 -111 -58q-61 -20 -160 -20q-93 0 -127 14q-25 10 -62 56q-67 -50 -142 -73q-58 -18 -110 -18q-27 0 -52 23t-25 56q0 20 7 36.5t23 13.5q24 -5 24 -33q0 -48 59 -48q37 0 87.5 26.5t100.5 54.5q0 34 17 69
q10 21 29 46q-10 27 -38.5 40t-56.5 13q-45 0 -131 -51q-56 -33 -147 -101q-46 -35 -92 -69q-14 -9 -25 -9t-14.5 8.5t-3.5 15.5q0 12 14 21l194 146q136 94 219 94q40 0 79 -26l48 -34q56 40 67 46q45 22 116 22q30 0 52.5 -13t24.5 -33q0 -15 -4.5 -26.5t-16.5 -11.5
q-9 0 -27 18t-42 18q-53 0 -115 -45q-73 -53 -83 -123q-4 -30 27 -51q39 -26 117 -26q102 0 142.5 11.5t103.5 53.5z" />
    <glyph glyph-name="odieresis" unicode="&#xf6;" horiz-adv-x="938" 
d="M610 133q-71 -55 -130 -82q-97 -45 -202 -45t-154 48q-35 35 -35 82q-2 -1 -40 -25q-14 -9 -43 -28q-8 -5 -19 -5q-13 0 -17 7.5t-4 12.5q0 12 15 23q21 14 42 29q6 5 37 38q41 56 65 88q45 60 74 64q12 0 19.5 -7t7.5 -29q0 -11 -35 -52t-35 -97q0 -53 37 -77
q29 -19 78 -19q96 0 174 35q62 28 114 80q30 30 79 96q32 43 46 43q15 0 29 -4t14 -15q0 -27 -21 -56q-46 -65 -46 -77q0 -16 21 -40q59 -67 62 -73q78 31 95 38q52 22 93 47q21 13 35 13q10 0 15.5 -6t5.5 -13q0 -6 -5 -12t-16 -13q-43 -28 -97 -53t-114 -45q0 -50 -8 -92
q-12 -63 -42 -113t-72 -83.5t-86 -33.5q-40 0 -69 27t-29 67q0 46 53 103q24 26 62 60q28 24 65 45q22 12 60 34q-4 9 -54 70q-21 25 -25 45zM703 -23q-33 -17 -50.5 -28.5t-40.5 -31.5q-44 -38 -72 -71q-34 -40 -34 -61q0 -20 15 -35t36 -15q20 0 56 33t59 72
q14 23 22.5 61.5t8.5 65.5v10z" />
    <glyph glyph-name="odieresis" unicode="&#x446;" horiz-adv-x="938" 
d="M610 133q-71 -55 -130 -82q-97 -45 -202 -45t-154 48q-35 35 -35 82q-2 -1 -40 -25q-14 -9 -43 -28q-8 -5 -19 -5q-13 0 -17 7.5t-4 12.5q0 12 15 23q21 14 42 29q6 5 37 38q41 56 65 88q45 60 74 64q12 0 19.5 -7t7.5 -29q0 -11 -35 -52t-35 -97q0 -53 37 -77
q29 -19 78 -19q96 0 174 35q62 28 114 80q30 30 79 96q32 43 46 43q15 0 29 -4t14 -15q0 -27 -21 -56q-46 -65 -46 -77q0 -16 21 -40q59 -67 62 -73q78 31 95 38q52 22 93 47q21 13 35 13q10 0 15.5 -6t5.5 -13q0 -6 -5 -12t-16 -13q-43 -28 -97 -53t-114 -45q0 -50 -8 -92
q-12 -63 -42 -113t-72 -83.5t-86 -33.5q-40 0 -69 27t-29 67q0 46 53 103q24 26 62 60q28 24 65 45q22 12 60 34q-4 9 -54 70q-21 25 -25 45zM703 -23q-33 -17 -50.5 -28.5t-40.5 -31.5q-44 -38 -72 -71q-34 -40 -34 -61q0 -20 15 -35t36 -15q20 0 56 33t59 72
q14 23 22.5 61.5t8.5 65.5v10z" />
    <glyph glyph-name="divide" unicode="&#xf7;" horiz-adv-x="708" 
d="M422 173q0 -54 24 -82q28 -33 92 -33q51 0 84 18q39 25 72 44q19 11 30 11q8 0 13 -6q6 -14 6 -15q0 -7 -21 -21q-72 -50 -109 -66t-83 -16q-90 0 -130 53q-33 44 -33 125q0 27 23.5 82t23.5 65q-18 -2 -38.5 3.5t-39.5 11.5q-40 9 -48 12q-31 11 -49 29
q0 -48 -32 -105.5t-82 -104.5q-35 -32 -64 -56q-23 -19 -40.5 -30.5t-31.5 -11.5q-9 0 -14.5 5.5t-5.5 13.5q0 14 15 25q53 36 105 89.5t84 128.5q24 57 24 82q0 16 14 27t29 9q4 -1 53 -37q25 -19 46 -24.5t51 -8t61 -2.5q16 -2 23.5 -14t7.5 -27q0 -14 -40 -102
q-20 -44 -20 -72z" />
    <glyph glyph-name="divide" unicode="&#x447;" horiz-adv-x="708" 
d="M422 173q0 -54 24 -82q28 -33 92 -33q51 0 84 18q39 25 72 44q19 11 30 11q8 0 13 -6q6 -14 6 -15q0 -7 -21 -21q-72 -50 -109 -66t-83 -16q-90 0 -130 53q-33 44 -33 125q0 27 23.5 82t23.5 65q-18 -2 -38.5 3.5t-39.5 11.5q-40 9 -48 12q-31 11 -49 29
q0 -48 -32 -105.5t-82 -104.5q-35 -32 -64 -56q-23 -19 -40.5 -30.5t-31.5 -11.5q-9 0 -14.5 5.5t-5.5 13.5q0 14 15 25q53 36 105 89.5t84 128.5q24 57 24 82q0 16 14 27t29 9q4 -1 53 -37q25 -19 46 -24.5t51 -8t61 -2.5q16 -2 23.5 -14t7.5 -27q0 -14 -40 -102
q-20 -44 -20 -72z" />
    <glyph glyph-name="oslash" unicode="&#xf8;" horiz-adv-x="1493" 
d="M574 178q41 55 65 87q45 60 74 64q8 0 13 -3q13 -7 13 -33q0 -11 -34.5 -52.5t-34.5 -96.5q0 -53 37 -77q29 -19 78 -19q96 0 174 35q62 28 114 80q32 31 79 96q31 43 46 43t29 -4t14 -15q0 -42 -38 -89q-21 -25 -41 -50q31 -40 47 -51q38 -27 104 -27q33 0 84 19t104 54
q15 11 27 11q9 0 14.5 -7.5t5.5 -13.5q0 -12 -22 -26q-91 -54 -122 -66q-48 -19 -89 -19q-90 0 -139 31q-47 43 -72 64q-62 -38 -123 -75q-87 -43 -189 -43q-106 0 -155 49q-35 35 -35 81l-130 -72q-90 -42 -190 -42q-106 0 -155 48q-35 34 -35 81l-80 -54q-10 -7 -19 -7
q-11 0 -16.5 9.5t-5.5 13.5q0 7 4.5 13.5t16.5 15.5q24 17 49 35q15 11 37 30.5t65 89.5q34 55 60 58q10 2 18 -6t8 -30q0 -10 -34.5 -51.5t-34.5 -96.5q0 -53 37 -77q29 -19 78 -19q95 0 175 35q60 26 124 79z" />
    <glyph glyph-name="oslash" unicode="&#x448;" horiz-adv-x="1493" 
d="M574 178q41 55 65 87q45 60 74 64q8 0 13 -3q13 -7 13 -33q0 -11 -34.5 -52.5t-34.5 -96.5q0 -53 37 -77q29 -19 78 -19q96 0 174 35q62 28 114 80q32 31 79 96q31 43 46 43t29 -4t14 -15q0 -42 -38 -89q-21 -25 -41 -50q31 -40 47 -51q38 -27 104 -27q33 0 84 19t104 54
q15 11 27 11q9 0 14.5 -7.5t5.5 -13.5q0 -12 -22 -26q-91 -54 -122 -66q-48 -19 -89 -19q-90 0 -139 31q-47 43 -72 64q-62 -38 -123 -75q-87 -43 -189 -43q-106 0 -155 49q-35 35 -35 81l-130 -72q-90 -42 -190 -42q-106 0 -155 48q-35 34 -35 81l-80 -54q-10 -7 -19 -7
q-11 0 -16.5 9.5t-5.5 13.5q0 7 4.5 13.5t16.5 15.5q24 17 49 35q15 11 37 30.5t65 89.5q34 55 60 58q10 2 18 -6t8 -30q0 -10 -34.5 -51.5t-34.5 -96.5q0 -53 37 -77q29 -19 78 -19q95 0 175 35q60 26 124 79z" />
    <glyph glyph-name="ugrave" unicode="&#xf9;" horiz-adv-x="1470" 
d="M1214 -40q-29 -15 -49 -28t-42 -32q-42 -37 -71 -71q-34 -41 -34 -61t14 -35t36 -15q21 0 56.5 33.5t58.5 72.5q14 23 22.5 61t8.5 65v10zM790 -11q-106 0 -155 49q-35 35 -35 81l-130 -72q-90 -42 -190 -42q-106 0 -155 48q-35 34 -35 81q-9 -7 -39 -23q-22 -12 -37 -22
t-26 -10q-10 0 -14 7.5t-4 12.5q0 12 19 26q24 17 49 35q15 11 36.5 30.5t51.5 66.5q49 78 74 81q14 2 20.5 -8.5t6.5 -27.5q0 -10 -35 -51t-35 -97q0 -52 38 -77q29 -19 77 -19q96 0 176 35q60 26 123 79q1 1 66 87q46 60 73 64q12 0 19.5 -7t7.5 -29q0 -11 -35 -52
t-35 -97q0 -52 38 -77q29 -19 77 -19q97 0 175 35q62 28 113 80q30 30 79 96q32 43 46 43q16 0 29.5 -4t13.5 -15q0 -29 -45 -87q-22 -28 -22 -46q0 -16 21 -40q59 -67 62 -73q55 23 107 48q60 30 104 58q21 13 36 13q11 0 16 -5.5t5 -11.5q0 -8 -7 -16t-15 -13
q-52 -35 -113 -66t-121 -51q0 -50 -8 -92q-12 -63 -41.5 -113t-71.5 -83.5t-87 -33.5q-39 0 -68.5 27.5t-29.5 66.5q0 47 53 104q15 16 62 59q28 24 65 45q22 12 60 34q-40 57 -79 115q-67 -40 -134 -79q-97 -48 -197 -48z" />
    <glyph glyph-name="ugrave" unicode="&#x449;" horiz-adv-x="1470" 
d="M1214 -40q-29 -15 -49 -28t-42 -32q-42 -37 -71 -71q-34 -41 -34 -61t14 -35t36 -15q21 0 56.5 33.5t58.5 72.5q14 23 22.5 61t8.5 65v10zM790 -11q-106 0 -155 49q-35 35 -35 81l-130 -72q-90 -42 -190 -42q-106 0 -155 48q-35 34 -35 81q-9 -7 -39 -23q-22 -12 -37 -22
t-26 -10q-10 0 -14 7.5t-4 12.5q0 12 19 26q24 17 49 35q15 11 36.5 30.5t51.5 66.5q49 78 74 81q14 2 20.5 -8.5t6.5 -27.5q0 -10 -35 -51t-35 -97q0 -52 38 -77q29 -19 77 -19q96 0 176 35q60 26 123 79q1 1 66 87q46 60 73 64q12 0 19.5 -7t7.5 -29q0 -11 -35 -52
t-35 -97q0 -52 38 -77q29 -19 77 -19q97 0 175 35q62 28 113 80q30 30 79 96q32 43 46 43q16 0 29.5 -4t13.5 -15q0 -29 -45 -87q-22 -28 -22 -46q0 -16 21 -40q59 -67 62 -73q55 23 107 48q60 30 104 58q21 13 36 13q11 0 16 -5.5t5 -11.5q0 -8 -7 -16t-15 -13
q-52 -35 -113 -66t-121 -51q0 -50 -8 -92q-12 -63 -41.5 -113t-71.5 -83.5t-87 -33.5q-39 0 -68.5 27.5t-29.5 66.5q0 47 53 104q15 16 62 59q28 24 65 45q22 12 60 34q-40 57 -79 115q-67 -40 -134 -79q-97 -48 -197 -48z" />
    <glyph glyph-name="uacute" unicode="&#xfa;" horiz-adv-x="732" 
d="M386 166q-11 -17 -15.5 -28t-4.5 -28q0 -39 12 -53q16 -19 67 -19q38 0 72.5 32.5t34.5 71.5q0 26 -21 37t-58 11q-53 0 -87 -24zM310 157q9 27 52 91q47 70 52 84q-8 -1 -15.5 -1h-11.5q-25 0 -49 5.5t-34.5 10t-28.5 17.5q-23 -44 -60.5 -90.5t-89.5 -95.5
q-35 -32 -64 -56q-23 -19 -40.5 -30.5t-31.5 -11.5q-9 0 -14.5 5.5t-5.5 13.5q0 14 15 25q53 36 105 90q56 57 102 117q42 55 42 69q0 16 14 27t29 9q6 -1 42 -23q22 -13 39 -18t30 -6t33 -1h31q16 -2 23.5 -14t7.5 -27q0 -22 -35 -66q-27 -32 -39 -47q16 4 30 5.5t33 1.5
q11 0 19.5 -0.5t13.5 -0.5q43 0 72 -25q34 -29 34 -76q0 -11 -3 -20t-17 -33q42 7 61 13q39 12 70 32q17 10 25 14q14 7 22 7t13.5 -7t5.5 -12q0 -15 -26 -31q-39 -23 -104.5 -48.5t-104.5 -29.5q-22 -15 -54 -26t-59 -11q-78 0 -111 34q-28 28 -28 86q0 10 3 24.5t7 25.5z
" />
    <glyph glyph-name="uacute" unicode="&#x44a;" horiz-adv-x="732" 
d="M386 166q-11 -17 -15.5 -28t-4.5 -28q0 -39 12 -53q16 -19 67 -19q38 0 72.5 32.5t34.5 71.5q0 26 -21 37t-58 11q-53 0 -87 -24zM310 157q9 27 52 91q47 70 52 84q-8 -1 -15.5 -1h-11.5q-25 0 -49 5.5t-34.5 10t-28.5 17.5q-23 -44 -60.5 -90.5t-89.5 -95.5
q-35 -32 -64 -56q-23 -19 -40.5 -30.5t-31.5 -11.5q-9 0 -14.5 5.5t-5.5 13.5q0 14 15 25q53 36 105 90q56 57 102 117q42 55 42 69q0 16 14 27t29 9q6 -1 42 -23q22 -13 39 -18t30 -6t33 -1h31q16 -2 23.5 -14t7.5 -27q0 -22 -35 -66q-27 -32 -39 -47q16 4 30 5.5t33 1.5
q11 0 19.5 -0.5t13.5 -0.5q43 0 72 -25q34 -29 34 -76q0 -11 -3 -20t-17 -33q42 7 61 13q39 12 70 32q17 10 25 14q14 7 22 7t13.5 -7t5.5 -12q0 -15 -26 -31q-39 -23 -104.5 -48.5t-104.5 -29.5q-22 -15 -54 -26t-59 -11q-78 0 -111 34q-28 28 -28 86q0 10 3 24.5t7 25.5z
" />
    <glyph glyph-name="ucircumflex" unicode="&#xfb;" horiz-adv-x="1008" 
d="M1056 143q4 -6 4 -12q0 -13 -21 -27q-59 -38 -108 -61q-77 -36 -131 -36q-71 0 -109.5 31.5t-38.5 75.5q0 37 3.5 58.5t22.5 54.5q-40 -21 -110 -34t-113 -13q4 -9 6 -22.5t2 -22.5v-13q0 -41 -53.5 -78t-105.5 -37q-81 0 -127 34t-46 87q0 39 26 75q18 23 25 32l-3 4
q-9 -8 -43 -44q-30 -32 -53.5 -52t-30.5 -26q-15 -12 -38 -27.5t-32 -15.5q-8 0 -13 7.5t-5 13.5q0 14 17 26q40 27 58 42t35 33l148 146q15 14 27 21t26 7q10 0 16 -6q10 -10 10 -28q0 -22 -58 -100t-58 -106q0 -35 31.5 -53.5t87.5 -18.5q37 0 71 22t34 45q0 17 -1 25.5
t-7 19.5q-21 5 -40.5 22.5t-19.5 35.5q0 12 16 26t31 14q14 0 27.5 -8.5t28.5 -30.5q53 0 117.5 13t96.5 33q12 7 48 43q27 26 42 26q9 0 14.5 -9.5t5.5 -22.5q0 -17 -32 -83t-32 -92q0 -34 17 -56q24 -31 77 -31q32 0 94.5 26t115.5 62q17 10 32 10q13 0 16 -5z" />
    <glyph glyph-name="ucircumflex" unicode="&#x44b;" horiz-adv-x="1008" 
d="M1056 143q4 -6 4 -12q0 -13 -21 -27q-59 -38 -108 -61q-77 -36 -131 -36q-71 0 -109.5 31.5t-38.5 75.5q0 37 3.5 58.5t22.5 54.5q-40 -21 -110 -34t-113 -13q4 -9 6 -22.5t2 -22.5v-13q0 -41 -53.5 -78t-105.5 -37q-81 0 -127 34t-46 87q0 39 26 75q18 23 25 32l-3 4
q-9 -8 -43 -44q-30 -32 -53.5 -52t-30.5 -26q-15 -12 -38 -27.5t-32 -15.5q-8 0 -13 7.5t-5 13.5q0 14 17 26q40 27 58 42t35 33l148 146q15 14 27 21t26 7q10 0 16 -6q10 -10 10 -28q0 -22 -58 -100t-58 -106q0 -35 31.5 -53.5t87.5 -18.5q37 0 71 22t34 45q0 17 -1 25.5
t-7 19.5q-21 5 -40.5 22.5t-19.5 35.5q0 12 16 26t31 14q14 0 27.5 -8.5t28.5 -30.5q53 0 117.5 13t96.5 33q12 7 48 43q27 26 42 26q9 0 14.5 -9.5t5.5 -22.5q0 -17 -32 -83t-32 -92q0 -34 17 -56q24 -31 77 -31q32 0 94.5 26t115.5 62q17 10 32 10q13 0 16 -5z" />
    <glyph glyph-name="udieresis" unicode="&#xfc;" horiz-adv-x="547" 
d="M224 187q-17 -24 -17 -25q-7 -12 -7 -28q0 -39 14 -54q18 -20 69 -20q39 0 73 31.5t34 71.5q0 26 -21 37t-58 11q-22 2 -46.5 -5t-40.5 -19zM283 5q-77 0 -111 36q-28 30 -28 87q0 27 14 56q9 19 28 44q-26 -25 -41 -39q-24 -23 -51.5 -46.5t-41 -32.5t-33 -20t-33.5 -11
q-9 0 -13 4t-4 11q0 16 18 28q30 20 49 35q25 19 47 41q35 35 81 78q36 33 72 67q14 14 27 21.5t27 7.5t21.5 -10.5t7.5 -25.5q0 -14 -31 -50l-32 -36q18 5 31 7q26 5 55 5q43 0 72 -25q34 -29 34 -76q0 -20 -6.5 -35.5t-20.5 -35.5l54 14q34 10 63 29q16 11 24 15t18 4
q9 0 15 -8t6 -13q0 -13 -24 -27q-42 -25 -107.5 -48t-109.5 -28q-17 -12 -37 -17.5t-40 -5.5z" />
    <glyph glyph-name="udieresis" unicode="&#x44c;" horiz-adv-x="547" 
d="M224 187q-17 -24 -17 -25q-7 -12 -7 -28q0 -39 14 -54q18 -20 69 -20q39 0 73 31.5t34 71.5q0 26 -21 37t-58 11q-22 2 -46.5 -5t-40.5 -19zM283 5q-77 0 -111 36q-28 30 -28 87q0 27 14 56q9 19 28 44q-26 -25 -41 -39q-24 -23 -51.5 -46.5t-41 -32.5t-33 -20t-33.5 -11
q-9 0 -13 4t-4 11q0 16 18 28q30 20 49 35q25 19 47 41q35 35 81 78q36 33 72 67q14 14 27 21.5t27 7.5t21.5 -10.5t7.5 -25.5q0 -14 -31 -50l-32 -36q18 5 31 7q26 5 55 5q43 0 72 -25q34 -29 34 -76q0 -20 -6.5 -35.5t-20.5 -35.5l54 14q34 10 63 29q16 11 24 15t18 4
q9 0 15 -8t6 -13q0 -13 -24 -27q-42 -25 -107.5 -48t-109.5 -28q-17 -12 -37 -17.5t-40 -5.5z" />
    <glyph glyph-name="yacute" unicode="&#xfd;" horiz-adv-x="637" 
d="M264 0q-46 0 -80 29t-34 66q0 19 8 37.5t24 15.5q22 -6 22 -40q0 -27 19.5 -41.5t51.5 -14.5q47 0 111 31.5t95 72.5q-35 -12 -87 -12h-14q-10 2 -21.5 3t-27.5 9q-38 19 -46 19q-5 0 -17.5 -1t-13.5 -1q-21 0 -22 13q-2 13 16 25t40 12t55 -12l48 -18q12 -3 31 -3
q48 0 84 12q5 11 10 23.5t5 24.5q0 34 -36.5 60.5t-79.5 26.5q-61 0 -128 -30q-51 -23 -118 -71q-28 -21 -84 -69q-41 -35 -74 -58q-13 -8 -22 -8q-10 0 -19 9q-4 3 -4 10q0 14 19 28q24 17 96 75q32 26 68 51q76 53 129 78q71 33 134 33q64 0 107 -21q67 -33 67 -109v-12
q-2 -10 -2 -14q-11 -83 -122 -159q-103 -70 -188 -70z" />
    <glyph glyph-name="yacute" unicode="&#x44d;" horiz-adv-x="637" 
d="M264 0q-46 0 -80 29t-34 66q0 19 8 37.5t24 15.5q22 -6 22 -40q0 -27 19.5 -41.5t51.5 -14.5q47 0 111 31.5t95 72.5q-35 -12 -87 -12h-14q-10 2 -21.5 3t-27.5 9q-38 19 -46 19q-5 0 -17.5 -1t-13.5 -1q-21 0 -22 13q-2 13 16 25t40 12t55 -12l48 -18q12 -3 31 -3
q48 0 84 12q5 11 10 23.5t5 24.5q0 34 -36.5 60.5t-79.5 26.5q-61 0 -128 -30q-51 -23 -118 -71q-28 -21 -84 -69q-41 -35 -74 -58q-13 -8 -22 -8q-10 0 -19 9q-4 3 -4 10q0 14 19 28q24 17 96 75q32 26 68 51q76 53 129 78q71 33 134 33q64 0 107 -21q67 -33 67 -109v-12
q-2 -10 -2 -14q-11 -83 -122 -159q-103 -70 -188 -70z" />
    <glyph glyph-name="thorn" unicode="&#xfe;" horiz-adv-x="991" 
d="M576 8q-76 0 -122 15q-63 21 -63 67q0 36 28 88q12 23 35 61q-38 -19 -77 -37.5t-69 -27t-60 -14t-54 -5.5h-12q-8 2 -12 2q-49 -92 -53 -98q-27 -41 -53 -41q-5 0 -10.5 4.5t-4.5 11.5q3 16 23 51.5t41 71.5l-97 -68q-14 -9 -25 -9q-12 0 -16.5 10t-4.5 13q0 9 11 16
q68 50 96 73q44 36 86 80q10 10 84 118q23 34 34 34q10 0 17.5 -0.5t7.5 -6.5l-2 -10q-3 -11 -37 -76.5t-65 -122.5q4 -1 13 -1q31 0 75.5 13t101.5 44q49 26 119 73q28 19 57 39q44 26 123 26q55 0 105 -52q54 -57 54 -128q0 -42 -54 -97q-50 -51 -90 -64q66 0 162 29
q82 25 117 46q29 17 41 17q8 0 13 -8q4 -4 4 -11q0 -15 -28.5 -33.5t-106.5 -44t-142 -36.5q-45 -7 -88 -9.5t-102 -2.5zM802 224q0 50 -38.5 87.5t-77.5 37.5t-81 -22.5t-79 -62.5q-23 -25 -43 -66q-29 -61 -29 -94q0 -22 19.5 -33t80.5 -11q69 0 158.5 60.5t89.5 103.5z
" />
    <glyph glyph-name="thorn" unicode="&#x44e;" horiz-adv-x="991" 
d="M576 8q-76 0 -122 15q-63 21 -63 67q0 36 28 88q12 23 35 61q-38 -19 -77 -37.5t-69 -27t-60 -14t-54 -5.5h-12q-8 2 -12 2q-49 -92 -53 -98q-27 -41 -53 -41q-5 0 -10.5 4.5t-4.5 11.5q3 16 23 51.5t41 71.5l-97 -68q-14 -9 -25 -9q-12 0 -16.5 10t-4.5 13q0 9 11 16
q68 50 96 73q44 36 86 80q10 10 84 118q23 34 34 34q10 0 17.5 -0.5t7.5 -6.5l-2 -10q-3 -11 -37 -76.5t-65 -122.5q4 -1 13 -1q31 0 75.5 13t101.5 44q49 26 119 73q28 19 57 39q44 26 123 26q55 0 105 -52q54 -57 54 -128q0 -42 -54 -97q-50 -51 -90 -64q66 0 162 29
q82 25 117 46q29 17 41 17q8 0 13 -8q4 -4 4 -11q0 -15 -28.5 -33.5t-106.5 -44t-142 -36.5q-45 -7 -88 -9.5t-102 -2.5zM802 224q0 50 -38.5 87.5t-77.5 37.5t-81 -22.5t-79 -62.5q-23 -25 -43 -66q-29 -61 -29 -94q0 -22 19.5 -33t80.5 -11q69 0 158.5 60.5t89.5 103.5z
" />
    <glyph glyph-name="ydieresis" unicode="&#xff;" horiz-adv-x="722" 
d="M430 211q32 26 48 47q21 26 21 47v14q0 18 -10 28q-15 15 -55 15q-63 0 -97 -18q-44 -23 -44 -66q0 -48 67 -61q31 -6 70 -6zM413 156q-85 -55 -158 -94q-90 -48 -123 -48q-62 0 -100 35q-30 28 -30 55q-1 10 -1 15q0 14 5.5 18.5t15.5 4.5q13 0 38 -35t72 -35
q35 0 97 35q24 14 107 68q-66 19 -83 33q-30 25 -30 87q0 42 62 78q68 40 166 40q69 0 95 -40q16 -24 16 -63q0 -25 -52.5 -102.5t-52.5 -92.5q0 -24 18.5 -34.5t62.5 -10.5q55 0 104 23q17 8 77 46q22 15 36 15q10 0 14 -8t4 -13q0 -15 -23 -31q-68 -48 -96 -61
q-54 -24 -131 -24q-59 0 -93 25.5t-34 58.5q0 24 17 55z" />
    <glyph glyph-name="ydieresis" unicode="&#x44f;" horiz-adv-x="722" 
d="M430 211q32 26 48 47q21 26 21 47v14q0 18 -10 28q-15 15 -55 15q-63 0 -97 -18q-44 -23 -44 -66q0 -48 67 -61q31 -6 70 -6zM413 156q-85 -55 -158 -94q-90 -48 -123 -48q-62 0 -100 35q-30 28 -30 55q-1 10 -1 15q0 14 5.5 18.5t15.5 4.5q13 0 38 -35t72 -35
q35 0 97 35q24 14 107 68q-66 19 -83 33q-30 25 -30 87q0 42 62 78q68 40 166 40q69 0 95 -40q16 -24 16 -63q0 -25 -52.5 -102.5t-52.5 -92.5q0 -24 18.5 -34.5t62.5 -10.5q55 0 104 23q17 8 77 46q22 15 36 15q10 0 14 -8t4 -13q0 -15 -23 -31q-68 -48 -96 -61
q-54 -24 -131 -24q-59 0 -93 25.5t-34 58.5q0 24 17 55z" />
    <glyph glyph-name="dotlessi" unicode="&#x131;" horiz-adv-x="650" 
d="M670 79q-62 -36 -110 -50q-66 -19 -164 -19q-119 0 -162.5 25.5t-49.5 86.5q-2 13 3.5 39t5.5 38q-42 -30 -66 -47q-79 -56 -117 -78q-19 -10 -27 -10q-6 0 -10 6.5t-4 13.5q0 12 14 22q44 32 98 69q70 48 124 82q21 13 72 62q42 41 64 43q15 2 19.5 -2.5t4.5 -16.5v-17
q-46 -55 -80 -98q-37 -47 -37 -94q0 -44 32 -61.5t126 -17.5q51 0 88 7t132 41q11 4 25 10.5t19 6.5q8 0 14 -10q3 -6 3 -10q0 -12 -17 -21z" />
    </font>
</defs>
</svg>
